<?xml version="1.0" encoding="utf-8"?>
<!-- Generator: Adobe Illustrator 24.2.0, SVG Export Plug-In . SVG Version: 6.00 Build 0)  -->
<svg version="1.1" id="Слой_1" xmlns="http://www.w3.org/2000/svg" xmlns:xlink="http://www.w3.org/1999/xlink" x="0px" y="0px"
	 viewBox="0 0 18 18" style="enable-background:new 0 0 18 18;" xml:space="preserve">
<style type="text/css">
	.st0{fill:#0087C6;}
</style>
<path class="st0" d="M9,1.8c0,0-5.6,0-7,0.4C1.2,2.4,0.6,3,0.4,3.8C0,5.2,0,9,0,9s0,3.8,0.4,5.2C0.6,15,1.2,15.6,2,15.8
	c1.4,0.4,7,0.4,7,0.4s5.6,0,7-0.4c0.8-0.2,1.4-0.8,1.6-1.6C18,12.8,18,9,18,9s0-3.8-0.4-5.2C17.4,3,16.8,2.4,16,2.2
	C14.6,1.8,9,1.8,9,1.8z M9,3.6c2.6,0,5.8,0.1,6.6,0.3c0.2,0,0.3,0.2,0.3,0.3C16.1,5,16.2,7.5,16.2,9s-0.1,4-0.3,4.8
	c0,0.2-0.2,0.3-0.3,0.3c-0.7,0.2-4,0.3-6.6,0.3c-2.6,0-5.8-0.1-6.6-0.3c-0.2,0-0.3-0.2-0.3-0.3C1.9,13,1.8,10.5,1.8,9s0.1-4,0.3-4.8
	c0-0.2,0.2-0.3,0.3-0.3C3.2,3.7,6.4,3.6,9,3.6z M7.2,5.9v6.2L12.6,9L7.2,5.9z"/>
</svg>
