<?xml version="1.0" encoding="utf-8"?>
<!-- Generator: Adobe Illustrator 24.2.0, SVG Export Plug-In . SVG Version: 6.00 Build 0)  -->
<svg version="1.1" id="Слой_1" xmlns="http://www.w3.org/2000/svg" xmlns:xlink="http://www.w3.org/1999/xlink" x="0px" y="0px"
	 viewBox="0 0 18 18" style="enable-background:new 0 0 18 18;" xml:space="preserve">
<style type="text/css">
	.st0{fill:#0087C6;}
</style>
<path class="st0" d="M6.3,0C2.8,0,0,2.8,0,6.3s2.8,6.3,6.3,6.3c1.6,0,3-0.6,4.1-1.5l0.4,0.4v1.2l5.4,5.4l1.8-1.8l-5.4-5.4h-1.2
	l-0.4-0.4c1-1.1,1.5-2.5,1.5-4.1C12.6,2.8,9.8,0,6.3,0z M6.3,1.8c2.5,0,4.5,2,4.5,4.5s-2,4.5-4.5,4.5s-4.5-2-4.5-4.5
	S3.8,1.8,6.3,1.8z"/>
</svg>
