<?xml version="1.0" encoding="utf-8"?>
<!-- Generator: Adobe Illustrator 24.2.0, SVG Export Plug-In . SVG Version: 6.00 Build 0)  -->
<svg version="1.1" id="Слой_1" xmlns="http://www.w3.org/2000/svg" xmlns:xlink="http://www.w3.org/1999/xlink" x="0px" y="0px"
	 viewBox="0 0 387 78" style="enable-background:new 0 0 387 78;" xml:space="preserve">
<style type="text/css">
	.st0{fill:#0087C6;}
</style>
<g>
	<g>
		<path class="st0" d="M78,58.5C78,69.3,69.3,78,58.5,78C47.7,78,39,69.3,39,58.5C39,47.7,47.7,39,58.5,39C69.3,39,78,47.7,78,58.5z
			"/>
		<path class="st0" d="M51.3,12.1c0,6.7-5.4,12.1-12.1,12.1c-6.7,0-12.1-5.4-12.1-12.1C27.2,5.4,32.6,0,39.2,0
			C45.9,0,51.3,5.4,51.3,12.1z"/>
		<path class="st0" d="M14.9,32.9c0,4.1-3.3,7.4-7.4,7.4C3.3,40.3,0,37,0,32.9c0-4.1,3.3-7.4,7.4-7.4C11.5,25.4,14.9,28.8,14.9,32.9
			z"/>
		<path class="st0" d="M24.1,58.5c0,2.5-2.1,4.6-4.6,4.6c-2.5,0-4.6-2.1-4.6-4.6c0-2.5,2.1-4.6,4.6-4.6C22,53.9,24.1,56,24.1,58.5z"
			/>
		<polygon class="st0" points="19.5,58.5 34.5,12.1 44.3,12.1 		"/>
		<polygon class="st0" points="58.5,58.5 32.7,14.5 45.6,8.9 		"/>
		<polygon class="st0" points="7.4,32.9 57.9,50.9 51.3,64.9 		"/>
	</g>
	<g>
		<g>
			<path d="M101.9,14.8c1.5,0,2.8,0.2,4,0.5c1.1,0.3,2.1,0.8,2.8,1.5c0.7,0.6,1.3,1.4,1.6,2.3c0.4,0.9,0.5,1.9,0.5,2.9
				c0,1.1-0.2,2.1-0.6,3c-0.4,0.9-1,1.7-1.7,2.3c-0.7,0.7-1.7,1.2-2.8,1.5c-1.1,0.4-2.4,0.5-3.9,0.5h-3.7v8.5h-3.5v-23H101.9z
				 M101.9,26.6c0.9,0,1.7-0.1,2.4-0.3c0.7-0.2,1.2-0.5,1.7-1c0.5-0.4,0.8-0.9,1-1.5c0.2-0.6,0.3-1.2,0.3-1.9c0-1.4-0.4-2.5-1.3-3.3
				c-0.9-0.8-2.3-1.2-4.1-1.2h-3.7v9.2H101.9z"/>
			<path d="M136.8,26.3c0,1.7-0.3,3.3-0.9,4.7c-0.6,1.4-1.4,2.7-2.4,3.7c-1,1-2.3,1.9-3.7,2.4c-1.4,0.6-3,0.9-4.8,0.9
				c-1.8,0-3.4-0.3-4.8-0.9c-1.4-0.6-2.7-1.4-3.7-2.4c-1-1-1.8-2.3-2.4-3.7c-0.6-1.4-0.9-3-0.9-4.7c0-1.7,0.3-3.3,0.9-4.7
				c0.6-1.4,1.4-2.7,2.4-3.7c1-1,2.3-1.9,3.7-2.4c1.4-0.6,3-0.9,4.8-0.9c1.8,0,3.4,0.3,4.8,0.9c1.4,0.6,2.7,1.4,3.7,2.4
				c1,1,1.8,2.3,2.4,3.7C136.5,23,136.8,24.5,136.8,26.3z M133.2,26.3c0-1.4-0.2-2.6-0.6-3.7c-0.4-1.1-0.9-2-1.6-2.8
				c-0.7-0.8-1.6-1.3-2.6-1.7c-1-0.4-2.1-0.6-3.4-0.6c-1.2,0-2.4,0.2-3.4,0.6c-1,0.4-1.9,1-2.6,1.7s-1.3,1.7-1.7,2.8
				c-0.4,1.1-0.6,2.3-0.6,3.7c0,1.4,0.2,2.6,0.6,3.7c0.4,1.1,0.9,2,1.7,2.8s1.6,1.3,2.6,1.7s2.1,0.6,3.4,0.6c1.2,0,2.4-0.2,3.4-0.6
				c1-0.4,1.9-1,2.6-1.7c0.7-0.8,1.3-1.7,1.6-2.8C133,28.9,133.2,27.6,133.2,26.3z"/>
			<path d="M157.8,32.8c0.2,0,0.4,0.1,0.5,0.2l1.4,1.5c-1,1.1-2.2,2-3.5,2.6s-3.1,0.9-5,0.9c-1.7,0-3.3-0.3-4.7-0.9
				c-1.4-0.6-2.6-1.4-3.6-2.4c-1-1-1.7-2.3-2.3-3.7c-0.5-1.4-0.8-3-0.8-4.8c0-1.7,0.3-3.3,0.9-4.8c0.6-1.4,1.4-2.7,2.4-3.7
				c1-1,2.2-1.8,3.7-2.4c1.4-0.6,3-0.9,4.7-0.9c1.7,0,3.2,0.3,4.5,0.8c1.3,0.5,2.5,1.2,3.4,2.1l-1.2,1.6c-0.1,0.1-0.2,0.2-0.3,0.3
				c-0.1,0.1-0.3,0.1-0.5,0.1c-0.2,0-0.5-0.1-0.7-0.3c-0.3-0.2-0.6-0.4-1.1-0.7c-0.5-0.3-1-0.5-1.7-0.7c-0.7-0.2-1.5-0.3-2.5-0.3
				c-1.2,0-2.3,0.2-3.2,0.6c-1,0.4-1.8,1-2.5,1.7c-0.7,0.8-1.3,1.7-1.7,2.8c-0.4,1.1-0.6,2.3-0.6,3.7c0,1.4,0.2,2.6,0.6,3.7
				s1,2,1.7,2.8s1.6,1.3,2.5,1.7c1,0.4,2,0.6,3.1,0.6c0.7,0,1.3,0,1.8-0.1c0.5-0.1,1-0.2,1.5-0.4c0.5-0.2,0.9-0.4,1.3-0.6
				c0.4-0.3,0.8-0.6,1.2-0.9c0.1-0.1,0.2-0.1,0.3-0.2S157.7,32.8,157.8,32.8z"/>
			<path d="M181.6,37.8h-3.5c-0.3,0-0.5-0.1-0.6-0.2c-0.2-0.1-0.3-0.3-0.4-0.4l-6.1-9.5c-0.1,0.3-0.2,0.5-0.3,0.7l-6,8.8
				c-0.1,0.1-0.2,0.3-0.4,0.4c-0.1,0.1-0.3,0.2-0.5,0.2h-3.3l8.1-11.8l-7.8-11.2h3.5c0.3,0,0.4,0,0.6,0.1c0.1,0.1,0.2,0.2,0.3,0.3
				l6,9c0.1-0.3,0.2-0.5,0.4-0.8l5.6-8.2c0.1-0.2,0.2-0.3,0.3-0.4c0.1-0.1,0.3-0.1,0.5-0.1h3.4l-7.8,11L181.6,37.8z"/>
			<path d="M204.3,14.8v23h-3.5V21.9c0-0.5,0-1,0-1.5c0-0.5,0.1-1.1,0.2-1.7c-0.2,0.5-0.4,1-0.6,1.4c-0.2,0.4-0.4,0.8-0.7,1.2
				L189,36.7c-0.2,0.3-0.4,0.5-0.7,0.7c-0.3,0.2-0.6,0.3-0.9,0.3h-2.6v-23h3.5v15.8c0,0.5,0,1,0,1.5c0,0.5-0.1,1.1-0.2,1.7
				c0.2-0.5,0.4-1,0.6-1.4c0.2-0.4,0.4-0.8,0.7-1.2l10.6-15.3c0.2-0.3,0.4-0.5,0.6-0.7c0.3-0.2,0.6-0.3,0.9-0.3H204.3z"/>
			<path d="M235.1,14.8v23H232V21.4c0-0.2,0-0.5,0-0.8c0-0.3,0-0.6,0.1-0.8l-7.9,14.1c-0.3,0.5-0.7,0.8-1.3,0.8h-0.5
				c-0.6,0-1-0.3-1.3-0.8l-8-14.1c0.1,0.6,0.1,1.2,0.1,1.7v16.4h-3.1v-23h2.6c0.3,0,0.5,0,0.7,0.1c0.2,0.1,0.3,0.2,0.5,0.5l7.9,13.8
				c0.2,0.3,0.3,0.6,0.4,0.9c0.1,0.3,0.3,0.6,0.4,0.9c0.2-0.6,0.5-1.2,0.8-1.8l7.8-13.8c0.1-0.3,0.3-0.4,0.5-0.5
				c0.2-0.1,0.4-0.1,0.7-0.1H235.1z"/>
			<path d="M248.1,14.8c1.5,0,2.8,0.2,4,0.5c1.1,0.3,2.1,0.8,2.8,1.5c0.7,0.6,1.3,1.4,1.6,2.3c0.4,0.9,0.5,1.9,0.5,2.9
				c0,1.1-0.2,2.1-0.6,3c-0.4,0.9-1,1.7-1.7,2.3c-0.7,0.7-1.7,1.2-2.8,1.5c-1.1,0.4-2.4,0.5-3.9,0.5h-3.7v8.5h-3.5v-23H248.1z
				 M248.1,26.6c0.9,0,1.7-0.1,2.4-0.3s1.2-0.5,1.7-1c0.5-0.4,0.8-0.9,1-1.5c0.2-0.6,0.3-1.2,0.3-1.9c0-1.4-0.4-2.5-1.3-3.3
				c-0.9-0.8-2.3-1.2-4.1-1.2h-3.7v9.2H248.1z"/>
			<path d="M275.6,35l0,2.8h-14.7v-23h14.7v2.8h-11.2v7.3h9v2.7h-9V35H275.6z"/>
			<path d="M299.5,37.8h-2.7c-0.3,0-0.6-0.1-0.8-0.2c-0.2-0.1-0.3-0.3-0.4-0.6l-2.1-5.3H283l-2.1,5.3c-0.1,0.2-0.2,0.4-0.4,0.6
				c-0.2,0.2-0.5,0.2-0.8,0.2H277l9.4-23h3.6L299.5,37.8z M292.5,29.2l-3.5-8.9c-0.1-0.3-0.2-0.6-0.4-1c-0.1-0.4-0.3-0.8-0.4-1.3
				c-0.1,0.5-0.2,0.9-0.4,1.3c-0.1,0.4-0.3,0.7-0.4,1l-3.5,8.9H292.5z"/>
			<path d="M321.6,37.8h-3.2c-0.4,0-0.6-0.1-0.9-0.3c-0.2-0.2-0.5-0.4-0.7-0.8l-6-8.2c-0.1-0.2-0.3-0.4-0.4-0.5
				c-0.1-0.1-0.3-0.3-0.5-0.4c-0.2-0.1-0.4-0.2-0.6-0.2c-0.2,0-0.5-0.1-0.8-0.1h-2.8v10.4h-3.5v-23h3.5v9.9h2.4
				c0.5,0,0.9-0.1,1.2-0.2c0.3-0.1,0.7-0.4,1-0.9l6-7.9c0.2-0.3,0.4-0.5,0.6-0.7c0.2-0.2,0.5-0.3,0.9-0.3h3l-7,9.4
				c-0.3,0.4-0.6,0.7-0.9,1c-0.4,0.3-0.7,0.5-1.2,0.6c0.6,0.1,1.1,0.4,1.5,0.7c0.4,0.3,0.8,0.8,1.2,1.4L321.6,37.8z"/>
			<path d="M340.9,17.6h-7.5v20.2h-3.5V17.6h-7.6v-2.9h18.6V17.6z"/>
			<path d="M363.8,14.8v23h-3.5V21.9c0-0.5,0-1,0-1.5c0-0.5,0.1-1.1,0.2-1.7c-0.2,0.5-0.4,1-0.6,1.4c-0.2,0.4-0.4,0.8-0.7,1.2
				l-10.6,15.3c-0.2,0.3-0.4,0.5-0.7,0.7c-0.3,0.2-0.6,0.3-0.9,0.3h-2.6v-23h3.5v15.8c0,0.5,0,1,0,1.5c0,0.5-0.1,1.1-0.2,1.7
				c0.2-0.5,0.4-1,0.6-1.4c0.2-0.4,0.4-0.8,0.7-1.2l10.6-15.3c0.2-0.3,0.4-0.5,0.6-0.7c0.3-0.2,0.6-0.3,0.9-0.3H363.8z"/>
			<path d="M377.4,14.8c1.5,0,2.8,0.1,3.8,0.4c1.1,0.3,1.9,0.7,2.6,1.2c0.7,0.5,1.2,1.2,1.5,1.9c0.3,0.7,0.5,1.6,0.5,2.5
				c0,0.6-0.1,1.1-0.3,1.6c-0.2,0.5-0.4,1-0.8,1.4c-0.4,0.4-0.8,0.8-1.4,1.2s-1.2,0.6-1.9,0.9c3.4,0.7,5.2,2.4,5.2,5.2
				c0,1-0.2,1.9-0.6,2.7c-0.4,0.8-0.9,1.5-1.6,2.1c-0.7,0.6-1.6,1-2.6,1.4c-1,0.3-2.2,0.5-3.6,0.5h-8.5v-23H377.4z M373.1,17.4V25h4
				c1.7,0,3-0.3,3.9-1c0.8-0.7,1.3-1.6,1.3-2.7c0-1.3-0.4-2.3-1.2-2.9c-0.8-0.6-2.1-0.9-3.7-0.9H373.1z M378.1,35.1
				c0.9,0,1.7-0.1,2.3-0.3c0.6-0.2,1.2-0.5,1.6-0.8c0.4-0.4,0.7-0.8,0.9-1.3c0.2-0.5,0.3-1,0.3-1.6c0-1.1-0.4-2-1.2-2.7
				c-0.8-0.7-2.1-1-3.8-1h-5v7.7H378.1z"/>
		</g>
		<g>
			<path d="M149.9,59.8H149c-0.1,0-0.2,0-0.2-0.1s-0.1-0.1-0.2-0.2l-1.8-4.3h-7.5l-1.8,4.3c0,0.1-0.1,0.1-0.2,0.2
				c-0.1,0.1-0.2,0.1-0.3,0.1h-0.8l6.2-14.7h1.1L149.9,59.8z M146.5,54.5l-3.1-7.4c-0.1-0.2-0.2-0.5-0.3-0.9c0,0.2-0.1,0.3-0.1,0.5
				c0,0.1-0.1,0.3-0.2,0.4l-3.1,7.4H146.5z"/>
			<path d="M169.5,57.3c0.1,0,0.1,0,0.2,0.1l0.4,0.4c-0.3,0.3-0.7,0.6-1,0.9c-0.4,0.3-0.8,0.5-1.2,0.7c-0.4,0.2-0.9,0.3-1.4,0.4
				c-0.5,0.1-1.1,0.2-1.7,0.2c-1.1,0-2-0.2-2.9-0.5c-0.9-0.4-1.6-0.9-2.3-1.5c-0.6-0.7-1.1-1.4-1.5-2.4c-0.3-0.9-0.5-2-0.5-3.1
				c0-1.1,0.2-2.1,0.5-3.1c0.4-0.9,0.9-1.7,1.5-2.4c0.6-0.7,1.4-1.2,2.3-1.5c0.9-0.4,1.9-0.5,3-0.5c1,0,2,0.2,2.8,0.5
				c0.8,0.3,1.5,0.8,2.2,1.3l-0.3,0.5c-0.1,0.1-0.1,0.1-0.3,0.1c-0.1,0-0.2-0.1-0.4-0.2c-0.2-0.2-0.5-0.3-0.8-0.5
				c-0.3-0.2-0.8-0.4-1.3-0.5c-0.5-0.2-1.1-0.2-1.8-0.2c-0.9,0-1.8,0.2-2.5,0.5c-0.8,0.3-1.4,0.7-2,1.3c-0.5,0.6-1,1.3-1.3,2.1
				c-0.3,0.8-0.5,1.7-0.5,2.8c0,1,0.2,2,0.5,2.8c0.3,0.8,0.7,1.5,1.3,2.1c0.5,0.6,1.2,1,1.9,1.3c0.7,0.3,1.5,0.5,2.4,0.5
				c0.5,0,1,0,1.5-0.1s0.8-0.2,1.2-0.3c0.4-0.1,0.7-0.3,1-0.5c0.3-0.2,0.6-0.4,0.9-0.7c0,0,0.1-0.1,0.1-0.1
				C169.4,57.3,169.4,57.3,169.5,57.3z"/>
			<path d="M190.1,57.3c0.1,0,0.1,0,0.2,0.1l0.4,0.4c-0.3,0.3-0.7,0.6-1,0.9s-0.8,0.5-1.2,0.7c-0.4,0.2-0.9,0.3-1.4,0.4
				c-0.5,0.1-1.1,0.2-1.7,0.2c-1,0-2-0.2-2.9-0.5c-0.9-0.4-1.6-0.9-2.3-1.5c-0.6-0.7-1.1-1.4-1.5-2.4c-0.3-0.9-0.5-2-0.5-3.1
				c0-1.1,0.2-2.1,0.5-3.1c0.4-0.9,0.9-1.7,1.5-2.4c0.6-0.7,1.4-1.2,2.3-1.5c0.9-0.4,1.9-0.5,3-0.5c1,0,2,0.2,2.8,0.5
				c0.8,0.3,1.5,0.8,2.2,1.3l-0.3,0.5c-0.1,0.1-0.1,0.1-0.3,0.1c-0.1,0-0.2-0.1-0.4-0.2c-0.2-0.2-0.5-0.3-0.8-0.5
				c-0.3-0.2-0.8-0.4-1.3-0.5c-0.5-0.2-1.1-0.2-1.8-0.2c-0.9,0-1.8,0.2-2.5,0.5c-0.8,0.3-1.4,0.7-2,1.3c-0.5,0.6-1,1.3-1.3,2.1
				c-0.3,0.8-0.5,1.7-0.5,2.8c0,1,0.2,2,0.5,2.8c0.3,0.8,0.7,1.5,1.3,2.1c0.5,0.6,1.2,1,1.9,1.3c0.7,0.3,1.5,0.5,2.4,0.5
				c0.5,0,1,0,1.5-0.1s0.8-0.2,1.2-0.3c0.4-0.1,0.7-0.3,1-0.5c0.3-0.2,0.6-0.4,0.9-0.7c0,0,0.1-0.1,0.1-0.1
				C190,57.3,190.1,57.3,190.1,57.3z"/>
			<path d="M213.3,52.4c0,1.1-0.2,2.2-0.5,3.1c-0.4,0.9-0.8,1.7-1.5,2.4c-0.6,0.7-1.4,1.2-2.3,1.5c-0.9,0.4-1.9,0.5-2.9,0.5
				c-1.1,0-2.1-0.2-2.9-0.5c-0.9-0.4-1.6-0.9-2.3-1.5c-0.6-0.7-1.1-1.4-1.5-2.4c-0.3-0.9-0.5-2-0.5-3.1c0-1.1,0.2-2.2,0.5-3.1
				c0.4-0.9,0.8-1.7,1.5-2.4c0.6-0.7,1.4-1.2,2.3-1.5c0.9-0.4,1.9-0.5,2.9-0.5c1.1,0,2.1,0.2,2.9,0.5c0.9,0.4,1.7,0.9,2.3,1.5
				c0.6,0.7,1.1,1.5,1.5,2.4C213.1,50.3,213.3,51.3,213.3,52.4z M212.2,52.4c0-1-0.1-1.9-0.4-2.8c-0.3-0.8-0.7-1.5-1.2-2.1
				c-0.5-0.6-1.2-1-1.9-1.3c-0.8-0.3-1.6-0.5-2.5-0.5c-0.9,0-1.7,0.2-2.5,0.5c-0.8,0.3-1.4,0.7-1.9,1.3c-0.5,0.6-1,1.3-1.3,2.1
				c-0.3,0.8-0.4,1.7-0.4,2.8c0,1,0.1,2,0.4,2.8c0.3,0.8,0.7,1.5,1.3,2.1s1.2,1,1.9,1.3c0.7,0.3,1.6,0.4,2.5,0.4
				c0.9,0,1.7-0.1,2.5-0.4c0.7-0.3,1.4-0.7,1.9-1.3c0.5-0.6,0.9-1.3,1.2-2.1C212,54.4,212.2,53.5,212.2,52.4z"/>
			<path d="M236.8,59v4.2c0,0.1,0,0.2-0.1,0.2c-0.1,0.1-0.2,0.1-0.3,0.1h-0.6v-3.7h-12.5V45.1h1.1V59h8.8V45.1h1.1V59H236.8z"/>
			<path d="M257.7,45.1v14.7h-1.1V47.7c0-0.2,0-0.4,0-0.7c0-0.2,0-0.5,0.1-0.7c-0.1,0.2-0.2,0.4-0.3,0.6c-0.1,0.2-0.2,0.3-0.3,0.5
				l-8.8,12.1c-0.1,0.1-0.1,0.2-0.2,0.2c-0.1,0.1-0.2,0.1-0.3,0.1H246V45.1h1.1v12.1c0,0.2,0,0.4,0,0.7c0,0.2,0,0.5-0.1,0.7
				c0.1-0.2,0.2-0.4,0.3-0.6c0.1-0.2,0.2-0.3,0.3-0.5l8.8-12.1c0.1-0.1,0.1-0.2,0.2-0.2c0.1-0.1,0.2-0.1,0.3-0.1H257.7z"/>
			<path d="M280.2,59.8h-0.8c-0.1,0-0.2,0-0.2-0.1s-0.1-0.1-0.2-0.2l-1.8-4.3h-7.5l-1.8,4.3c0,0.1-0.1,0.1-0.2,0.2
				c-0.1,0.1-0.2,0.1-0.3,0.1h-0.8l6.2-14.7h1.1L280.2,59.8z M276.8,54.5l-3.1-7.4c-0.1-0.2-0.2-0.5-0.3-0.9c0,0.2-0.1,0.3-0.1,0.5
				c0,0.1-0.1,0.3-0.2,0.4l-3.1,7.4H276.8z"/>
			<path d="M302.6,59v4.2c0,0.1,0,0.2-0.1,0.2c-0.1,0.1-0.2,0.1-0.3,0.1h-0.6v-3.7h-12.5V45.1h1.1V59h8.8V45.1h1.1V59H302.6z"/>
			<path d="M323.6,45.1v14.7h-1.1V47.7c0-0.2,0-0.4,0-0.7c0-0.2,0-0.5,0.1-0.7c-0.1,0.2-0.2,0.4-0.3,0.6c-0.1,0.2-0.2,0.3-0.3,0.5
				l-8.8,12.1c-0.1,0.1-0.1,0.2-0.2,0.2c-0.1,0.1-0.2,0.1-0.3,0.1h-0.8V45.1h1.1v12.1c0,0.2,0,0.4,0,0.7c0,0.2,0,0.5-0.1,0.7
				c0.1-0.2,0.2-0.4,0.3-0.6c0.1-0.2,0.2-0.3,0.3-0.5l8.8-12.1c0.1-0.1,0.1-0.2,0.2-0.2c0.1-0.1,0.2-0.1,0.3-0.1H323.6z"/>
			<path d="M343.9,59.8h-1.1v-6.7h-2.7c-0.2,0-0.4,0-0.6,0c-0.2,0-0.3,0.1-0.5,0.2c-0.2,0.1-0.3,0.2-0.5,0.3
				c-0.2,0.1-0.3,0.3-0.5,0.6l-4.1,5.1c-0.1,0.1-0.2,0.2-0.3,0.3c-0.1,0.1-0.3,0.1-0.4,0.1h-0.8l4.5-5.6c0.2-0.3,0.5-0.5,0.7-0.7
				c0.2-0.2,0.5-0.3,0.7-0.4c-0.7-0.1-1.3-0.2-1.8-0.4c-0.5-0.2-0.9-0.5-1.3-0.8c-0.3-0.3-0.6-0.7-0.8-1.2c-0.2-0.5-0.3-0.9-0.3-1.5
				c0-0.6,0.1-1.2,0.3-1.7c0.2-0.5,0.5-0.9,1-1.3c0.4-0.3,1-0.6,1.6-0.8c0.6-0.2,1.3-0.3,2.2-0.3h4.7V59.8z M342.8,52.3v-6.4h-3.6
				c-1.3,0-2.3,0.3-3,0.8c-0.7,0.5-1,1.3-1,2.3c0,1,0.3,1.8,1,2.4c0.6,0.5,1.6,0.8,3,0.8H342.8z"/>
		</g>
	</g>
</g>
</svg>
