<?xml version="1.0" encoding="utf-8"?>
<!-- Generator: Adobe Illustrator 21.0.2, SVG Export Plug-In . SVG Version: 6.00 Build 0)  -->
<svg version="1.2" baseProfile="tiny" id="Слой_1"
	 xmlns="http://www.w3.org/2000/svg" xmlns:xlink="http://www.w3.org/1999/xlink" x="0px" y="0px" viewBox="0 0 300 62"
	 overflow="scroll" xml:space="preserve">
<g>
	<g>
		<path fill="#0087C6" d="M60.3,46.1c0,8.4-6.8,15.1-15.1,15.1s-15.1-6.8-15.1-15.1S36.8,31,45.2,31S60.3,37.8,60.3,46.1z"/>
		<path fill="#0087C6" d="M39.6,10.1c0,5.2-4.2,9.4-9.4,9.4s-9.4-4.2-9.4-9.4c0.1-5.2,4.3-9.4,9.4-9.4C35.4,0.7,39.6,4.9,39.6,10.1z
			"/>
		<path fill="#0087C6" d="M11.4,26.3c0,3.2-2.6,5.7-5.7,5.7c-3.3,0-5.8-2.6-5.8-5.7s2.6-5.7,5.7-5.7C8.7,20.4,11.4,23.1,11.4,26.3z"
			/>
		<path fill="#0087C6" d="M18.5,46.1c0,1.9-1.6,3.6-3.6,3.6s-3.6-1.6-3.6-3.6c0-1.9,1.6-3.6,3.6-3.6S18.5,44.2,18.5,46.1z"/>
		<polygon fill="#0087C6" points="14.9,46.1 26.6,10.1 34.2,10.1 		"/>
		<polygon fill="#0087C6" points="45.2,46.1 25.2,12 35.2,7.6 		"/>
		<polygon fill="#0087C6" points="5.5,26.3 44.7,40.2 39.6,51.1 		"/>
	</g>
	<g display="none">
		<g display="inline">
			<path d="M78.9,12.2c1.2,0,2.2,0.2,3.1,0.4s1.6,0.6,2.2,1.2c0.5,0.5,1,1.1,1.2,1.8c0.3,0.7,0.4,1.5,0.4,2.3c0,0.9-0.2,1.6-0.5,2.3
				C85,20.9,84.5,21.5,84,22s-1.3,0.9-2.2,1.2c-0.9,0.3-1.9,0.4-3,0.4h-2.9v6.6h-2.7v-18H78.9z M78.9,21.4c0.7,0,1.3-0.1,1.9-0.2
				s0.9-0.4,1.3-0.8c0.4-0.3,0.6-0.7,0.8-1.2c0.2-0.5,0.2-0.9,0.2-1.5c0-1.1-0.3-1.9-1-2.6c-0.7-0.6-1.8-0.9-3.2-0.9H76v7.1
				C76,21.4,78.9,21.4,78.9,21.4z"/>
			<path d="M106,21.1c0,1.3-0.2,2.6-0.7,3.6c-0.5,1.1-1.1,2.1-1.9,2.9s-1.8,1.5-2.9,1.9c-1.1,0.5-2.3,0.7-3.7,0.7
				c-1.4,0-2.6-0.2-3.7-0.7s-2.1-1.1-2.9-1.9s-1.4-1.8-1.9-2.9s-0.7-2.3-0.7-3.6c0-1.3,0.2-2.6,0.7-3.6s1.1-2.1,1.9-2.9
				c0.8-0.8,1.8-1.5,2.9-1.9c1.1-0.5,2.3-0.7,3.7-0.7c1.4,0,2.6,0.2,3.7,0.7s2.1,1.1,2.9,1.9c0.8,0.8,1.4,1.8,1.9,2.9
				S106,19.7,106,21.1z M103.2,21.1c0-1.1-0.2-2-0.5-2.9s-0.7-1.6-1.2-2.2s-1.2-1-2-1.3s-1.6-0.5-2.6-0.5c-0.9,0-1.9,0.2-2.6,0.5
				s-1.5,0.8-2,1.3s-1,1.3-1.3,2.2c-0.3,0.9-0.5,1.8-0.5,2.9s0.2,2,0.5,2.9s0.7,1.6,1.3,2.2c0.6,0.6,1.2,1,2,1.3s1.6,0.5,2.6,0.5
				c0.9,0,1.9-0.2,2.6-0.5c0.8-0.3,1.5-0.8,2-1.3c0.5-0.6,1-1.3,1.2-2.2C103,23.2,103.2,22.2,103.2,21.1z"/>
			<path d="M122.3,26.2c0.2,0,0.3,0.1,0.4,0.2l1.1,1.2c-0.8,0.9-1.7,1.6-2.7,2c-1,0.5-2.4,0.7-3.9,0.7c-1.3,0-2.6-0.2-3.6-0.7
				c-1.1-0.5-2-1.1-2.8-1.9s-1.3-1.8-1.8-2.9c-0.4-1.1-0.6-2.3-0.6-3.7c0-1.3,0.2-2.6,0.7-3.7s1.1-2.1,1.9-2.9
				c0.8-0.8,1.7-1.4,2.9-1.9c1.1-0.5,2.3-0.7,3.6-0.7s2.5,0.2,3.5,0.6s1.9,0.9,2.6,1.6l-0.9,1.2c-0.1,0.1-0.2,0.2-0.2,0.2
				c-0.1,0.1-0.2,0.1-0.4,0.1s-0.4-0.1-0.5-0.2c-0.2-0.2-0.5-0.3-0.9-0.5s-0.8-0.4-1.3-0.5c-0.5-0.2-1.2-0.2-1.9-0.2
				c-0.9,0-1.8,0.2-2.5,0.5c-0.8,0.3-1.4,0.8-1.9,1.3c-0.5,0.6-1,1.3-1.3,2.2c-0.3,0.9-0.5,1.8-0.5,2.9s0.2,2,0.5,2.9
				s0.8,1.6,1.3,2.2s1.2,1,1.9,1.3c0.8,0.3,1.6,0.5,2.4,0.5c0.5,0,1,0,1.4-0.1s0.8-0.2,1.2-0.3c0.4-0.2,0.7-0.3,1-0.5
				s0.6-0.5,0.9-0.7c0.1-0.1,0.2-0.1,0.2-0.2C122,26,122.2,26.2,122.3,26.2z"/>
			<path d="M140.7,30.1H138c-0.2,0-0.4-0.1-0.5-0.2c-0.2-0.1-0.2-0.2-0.3-0.3l-4.7-7.4c-0.1,0.2-0.2,0.4-0.2,0.5l-4.7,6.8
				c-0.1,0.1-0.2,0.2-0.3,0.3c-0.1,0.1-0.2,0.2-0.4,0.2h-2.6l6.3-9.2l-6.1-8.7h2.7c0.2,0,0.3,0,0.5,0.1c0.1,0.1,0.2,0.2,0.2,0.2
				l4.7,7c0.1-0.2,0.2-0.4,0.3-0.6l4.3-6.4c0.1-0.2,0.2-0.2,0.2-0.3c0.1-0.1,0.2-0.1,0.4-0.1h2.6l-6.1,8.5L140.7,30.1z"/>
			<path d="M158.3,12.2V30h-2.7V17.7c0-0.4,0-0.8,0-1.2c0-0.4,0.1-0.9,0.2-1.3c-0.2,0.4-0.3,0.8-0.5,1.1s-0.3,0.6-0.5,0.9l-8.3,12
				c-0.2,0.2-0.3,0.4-0.5,0.5c-0.2,0.2-0.5,0.2-0.7,0.2h-2V12.1h2.7v12.3c0,0.4,0,0.8,0,1.2s-0.1,0.9-0.2,1.3
				c0.2-0.4,0.3-0.8,0.5-1.1c0.2-0.3,0.3-0.6,0.5-0.9L155,13c0.2-0.2,0.3-0.4,0.5-0.5c0.2-0.2,0.5-0.2,0.7-0.2
				C156.2,12.2,158.3,12.2,158.3,12.2z"/>
			<path d="M182.2,12.2V30h-2.4V17.3c0-0.2,0-0.4,0-0.6s0-0.5,0.1-0.6L173.8,27c-0.2,0.4-0.5,0.6-1,0.6h-0.4c-0.5,0-0.8-0.2-1-0.6
				l-6.2-10.9c0.1,0.5,0.1,0.9,0.1,1.3v12.7h-2.4V12.3h2c0.2,0,0.4,0,0.5,0.1s0.2,0.2,0.4,0.4l6.1,10.7c0.2,0.2,0.2,0.5,0.3,0.7
				s0.2,0.5,0.3,0.7c0.2-0.5,0.4-0.9,0.6-1.4l6.1-10.7c0.1-0.2,0.2-0.3,0.4-0.4s0.3-0.1,0.5-0.1L182.2,12.2L182.2,12.2z"/>
			<path d="M192.3,12.2c1.2,0,2.2,0.2,3.1,0.4c0.9,0.2,1.6,0.6,2.2,1.2c0.5,0.5,1,1.1,1.2,1.8c0.3,0.7,0.4,1.5,0.4,2.3
				c0,0.9-0.2,1.6-0.5,2.3c-0.3,0.7-0.8,1.3-1.3,1.8s-1.3,0.9-2.2,1.2c-0.9,0.3-1.9,0.4-3,0.4h-2.9v6.6h-2.7v-18
				C186.7,12.2,192.3,12.2,192.3,12.2z M192.3,21.4c0.7,0,1.3-0.1,1.9-0.2c0.5-0.2,0.9-0.4,1.3-0.8c0.4-0.3,0.6-0.7,0.8-1.2
				s0.2-0.9,0.2-1.5c0-1.1-0.3-1.9-1-2.6c-0.7-0.6-1.8-0.9-3.2-0.9h-2.9v7.1C189.5,21.4,192.3,21.4,192.3,21.4z"/>
			<path d="M213.7,27.9v2.2h-11.4V12.2h11.4v2.2H205v5.7h7v2.1h-7v5.7C205,27.9,213.7,27.9,213.7,27.9z"/>
			<path d="M232.2,30.1h-2.1c-0.2,0-0.5-0.1-0.6-0.2c-0.2-0.1-0.2-0.2-0.3-0.5l-1.6-4.1h-8.1l-1.6,4.1c-0.1,0.2-0.2,0.3-0.3,0.5
				c-0.2,0.2-0.4,0.2-0.6,0.2h-2.1l7.3-17.8h2.8L232.2,30.1z M226.8,23.4l-2.7-6.9c-0.1-0.2-0.2-0.5-0.3-0.8s-0.2-0.6-0.3-1
				c-0.1,0.4-0.2,0.7-0.3,1s-0.2,0.5-0.3,0.8l-2.7,6.9H226.8z"/>
			<path d="M249.4,30.1h-2.5c-0.3,0-0.5-0.1-0.7-0.2c-0.2-0.2-0.4-0.3-0.5-0.6l-4.7-6.4c-0.1-0.2-0.2-0.3-0.3-0.4s-0.2-0.2-0.4-0.3
				c-0.2-0.1-0.3-0.2-0.5-0.2s-0.4-0.1-0.6-0.1H237V30h-2.7V12.1h2.7v7.7h1.9c0.4,0,0.7-0.1,0.9-0.2s0.5-0.3,0.8-0.7l4.7-6.1
				c0.2-0.2,0.3-0.4,0.5-0.5s0.4-0.2,0.7-0.2h2.3l-5.4,7.3c-0.2,0.3-0.5,0.5-0.7,0.8c-0.3,0.2-0.5,0.4-0.9,0.5
				c0.5,0.1,0.9,0.3,1.2,0.5s0.6,0.6,0.9,1.1L249.4,30.1z"/>
			<path d="M264.3,14.4h-5.8v15.7h-2.7V14.4h-5.9v-2.3h14.4L264.3,14.4L264.3,14.4z"/>
			<path d="M282.1,12.2V30h-2.7V17.7c0-0.4,0-0.8,0-1.2c0-0.4,0.1-0.9,0.2-1.3c-0.2,0.4-0.3,0.8-0.5,1.1s-0.3,0.6-0.5,0.9l-8.2,11.9
				c-0.2,0.2-0.3,0.4-0.5,0.5c-0.2,0.2-0.5,0.2-0.7,0.2h-2V12.1h2.7v12.3c0,0.4,0,0.8,0,1.2c0,0.4-0.1,0.9-0.2,1.3
				c0.2-0.4,0.3-0.8,0.5-1.1c0.2-0.3,0.3-0.6,0.5-0.9l8.2-11.9c0.2-0.2,0.3-0.4,0.5-0.5c0.2-0.2,0.5-0.2,0.7-0.2L282.1,12.2
				L282.1,12.2z"/>
			<path d="M292.7,12.2c1.2,0,2.2,0.1,2.9,0.3c0.9,0.2,1.5,0.5,2,0.9s0.9,0.9,1.2,1.5c0.2,0.5,0.4,1.2,0.4,1.9
				c0,0.5-0.1,0.9-0.2,1.2c-0.2,0.4-0.3,0.8-0.6,1.1c-0.3,0.3-0.6,0.6-1.1,0.9s-0.9,0.5-1.5,0.7c2.6,0.5,4,1.9,4,4
				c0,0.8-0.2,1.5-0.5,2.1s-0.7,1.2-1.2,1.6c-0.5,0.5-1.2,0.8-2,1.1c-0.8,0.2-1.7,0.4-2.8,0.4h-6.6V12.2
				C286.7,12.2,292.7,12.2,292.7,12.2z M289.3,14.2v5.9h3.1c1.3,0,2.3-0.2,3-0.8c0.6-0.5,1-1.2,1-2.1c0-1-0.3-1.8-0.9-2.3
				s-1.6-0.7-2.9-0.7L289.3,14.2L289.3,14.2z M293.2,28c0.7,0,1.3-0.1,1.8-0.2c0.5-0.2,0.9-0.4,1.2-0.6c0.3-0.3,0.5-0.6,0.7-1
				s0.2-0.8,0.2-1.2c0-0.9-0.3-1.6-0.9-2.1s-1.6-0.8-2.9-0.8h-3.9v6L293.2,28L293.2,28z"/>
		</g>
		<g display="inline">
			<path d="M116.1,47.1h-0.7c-0.1,0-0.2,0-0.2-0.1s-0.1-0.1-0.2-0.2l-1.4-3.3h-5.8l-1.4,3.3c0,0.1-0.1,0.1-0.2,0.2
				c-0.1,0.1-0.2,0.1-0.2,0.1h-0.6l4.8-11.4h0.9L116.1,47.1z M113.5,43l-2.4-5.7c-0.1-0.2-0.2-0.4-0.2-0.7c0,0.2-0.1,0.2-0.1,0.4
				c0,0.1-0.1,0.2-0.2,0.3l-2.4,5.7H113.5z"/>
			<path d="M131.3,45.2c0.1,0,0.1,0,0.2,0.1l0.3,0.3c-0.2,0.2-0.5,0.5-0.8,0.7s-0.6,0.4-0.9,0.5s-0.7,0.2-1.1,0.3
				c-0.4,0.1-0.9,0.2-1.3,0.2c-0.9,0-1.6-0.2-2.3-0.4c-0.7-0.3-1.2-0.7-1.8-1.2c-0.5-0.5-0.9-1.1-1.2-1.9c-0.2-0.7-0.4-1.6-0.4-2.4
				c0-0.9,0.2-1.6,0.4-2.4c0.3-0.7,0.7-1.3,1.2-1.9c0.5-0.5,1.1-0.9,1.8-1.2c0.7-0.3,1.5-0.4,2.3-0.4s1.6,0.2,2.2,0.4
				c0.6,0.2,1.2,0.6,1.7,1l-0.2,0.4c-0.1,0.1-0.1,0.1-0.2,0.1c-0.1,0-0.2-0.1-0.3-0.2c-0.2-0.2-0.4-0.2-0.6-0.4
				c-0.2-0.2-0.6-0.3-1-0.4c-0.4-0.2-0.9-0.2-1.4-0.2c-0.7,0-1.4,0.2-1.9,0.4c-0.6,0.2-1.1,0.5-1.6,1c-0.4,0.5-0.8,1-1,1.6
				s-0.4,1.3-0.4,2.2c0,0.8,0.2,1.6,0.4,2.2s0.5,1.2,1,1.6c0.4,0.5,0.9,0.8,1.5,1c0.5,0.2,1.2,0.4,1.9,0.4c0.4,0,0.8,0,1.2-0.1
				s0.6-0.2,0.9-0.2s0.5-0.2,0.8-0.4c0.2-0.2,0.5-0.3,0.7-0.5l0.1-0.1C131.3,45.2,131.3,45.2,131.3,45.2z"/>
			<path d="M147.3,45.2c0.1,0,0.1,0,0.2,0.1l0.3,0.3c-0.2,0.2-0.5,0.5-0.8,0.7c-0.2,0.2-0.6,0.4-0.9,0.5s-0.7,0.2-1.1,0.3
				c-0.4,0.1-0.9,0.2-1.3,0.2c-0.8,0-1.6-0.2-2.3-0.4c-0.7-0.3-1.2-0.7-1.8-1.2c-0.5-0.5-0.9-1.1-1.2-1.9c-0.2-0.7-0.4-1.6-0.4-2.4
				c0-0.9,0.2-1.6,0.4-2.4c0.3-0.7,0.7-1.3,1.2-1.9c0.5-0.5,1.1-0.9,1.8-1.2s1.5-0.4,2.3-0.4s1.6,0.2,2.2,0.4c0.6,0.2,1.2,0.6,1.7,1
				l-0.2,0.4c-0.1,0.1-0.1,0.1-0.2,0.1c-0.1,0-0.2-0.1-0.3-0.2c-0.2-0.2-0.4-0.2-0.6-0.4c-0.2-0.2-0.6-0.3-1-0.4
				c-0.4-0.2-0.9-0.2-1.4-0.2c-0.7,0-1.4,0.2-1.9,0.4c-0.6,0.2-1.1,0.5-1.6,1c-0.4,0.5-0.8,1-1,1.6s-0.4,1.3-0.4,2.2
				c0,0.8,0.2,1.6,0.4,2.2s0.5,1.2,1,1.6c0.4,0.5,0.9,0.8,1.5,1c0.5,0.2,1.2,0.4,1.9,0.4c0.4,0,0.8,0,1.2-0.1s0.6-0.2,0.9-0.2
				s0.5-0.2,0.8-0.4c0.2-0.2,0.5-0.3,0.7-0.5l0.1-0.1C147.2,45.2,147.3,45.2,147.3,45.2z"/>
			<path d="M165.3,41.4c0,0.9-0.2,1.7-0.4,2.4c-0.3,0.7-0.6,1.3-1.2,1.9c-0.5,0.5-1.1,0.9-1.8,1.2s-1.5,0.4-2.3,0.4
				c-0.9,0-1.6-0.2-2.3-0.4c-0.7-0.3-1.2-0.7-1.8-1.2c-0.5-0.5-0.9-1.1-1.2-1.9c-0.2-0.7-0.4-1.6-0.4-2.4c0-0.9,0.2-1.7,0.4-2.4
				c0.3-0.7,0.6-1.3,1.2-1.9c0.5-0.5,1.1-0.9,1.8-1.2s1.5-0.4,2.3-0.4c0.9,0,1.6,0.2,2.3,0.4c0.7,0.3,1.3,0.7,1.8,1.2
				s0.9,1.2,1.2,1.9C165.2,39.8,165.3,40.5,165.3,41.4z M164.5,41.4c0-0.8-0.1-1.5-0.3-2.2c-0.2-0.6-0.5-1.2-0.9-1.6s-0.9-0.8-1.5-1
				s-1.2-0.4-1.9-0.4s-1.3,0.2-1.9,0.4c-0.6,0.2-1.1,0.5-1.5,1s-0.8,1-1,1.6s-0.3,1.3-0.3,2.2c0,0.8,0.1,1.6,0.3,2.2s0.5,1.2,1,1.6
				s0.9,0.8,1.5,1c0.5,0.2,1.2,0.3,1.9,0.3s1.3-0.1,1.9-0.3c0.5-0.2,1.1-0.5,1.5-1s0.7-1,0.9-1.6C164.3,43,164.5,42.3,164.5,41.4z"
				/>
			<path d="M183.6,46.5v3.3c0,0.1,0,0.2-0.1,0.2c-0.1,0.1-0.2,0.1-0.2,0.1h-0.5v-2.9h-9.7V35.7h0.9v10.8h6.8V35.7h0.9v10.8H183.6z"
				/>
			<path d="M199.8,35.7v11.4h-0.9v-9.4c0-0.2,0-0.3,0-0.5s0-0.4,0.1-0.5c-0.1,0.2-0.2,0.3-0.2,0.5c-0.1,0.2-0.2,0.2-0.2,0.4
				l-6.8,9.4c-0.1,0.1-0.1,0.2-0.2,0.2c-0.1,0.1-0.2,0.1-0.2,0.1h-0.6V35.7h0.9v9.4c0,0.2,0,0.3,0,0.5s0,0.4-0.1,0.5
				c0.1-0.2,0.2-0.3,0.2-0.5c0.1-0.2,0.2-0.2,0.2-0.4l6.8-9.4c0.1-0.1,0.1-0.2,0.2-0.2c0.1-0.1,0.2-0.1,0.2-0.1
				C199.2,35.7,199.8,35.7,199.8,35.7z"/>
			<path d="M217.2,47.1h-0.6c-0.1,0-0.2,0-0.2-0.1s-0.1-0.1-0.2-0.2l-1.4-3.3H209l-1.4,3.3c0,0.1-0.1,0.1-0.2,0.2
				c-0.1,0.1-0.2,0.1-0.2,0.1h-0.6l4.8-11.4h0.9L217.2,47.1z M214.6,43l-2.4-5.7c-0.1-0.2-0.2-0.4-0.2-0.7c0,0.2-0.1,0.2-0.1,0.4
				c0,0.1-0.1,0.2-0.2,0.3l-2.4,5.7H214.6z"/>
			<path d="M234.6,46.5v3.3c0,0.1,0,0.2-0.1,0.2c-0.1,0.1-0.2,0.1-0.2,0.1h-0.5v-2.9h-9.7V35.7h0.9v10.8h6.8V35.7h0.9v10.8H234.6z"
				/>
			<path d="M250.9,35.7v11.4H250v-9.4c0-0.2,0-0.3,0-0.5s0-0.4,0.1-0.5c-0.1,0.2-0.2,0.3-0.2,0.5c-0.1,0.2-0.2,0.2-0.2,0.4l-6.8,9.4
				c-0.1,0.1-0.1,0.2-0.2,0.2c-0.1,0.1-0.2,0.1-0.2,0.1h-0.6V35.7h0.9v9.4c0,0.2,0,0.3,0,0.5s0,0.4-0.1,0.5c0.1-0.2,0.2-0.3,0.2-0.5
				c0.1-0.2,0.2-0.2,0.2-0.4l6.8-9.4c0.1-0.1,0.1-0.2,0.2-0.2c0.1-0.1,0.2-0.1,0.2-0.1C250.3,35.7,250.9,35.7,250.9,35.7z"/>
			<path d="M266.7,47.1h-0.9v-5.2h-2.1c-0.2,0-0.3,0-0.5,0s-0.2,0.1-0.4,0.2c-0.2,0.1-0.2,0.2-0.4,0.2s-0.2,0.2-0.4,0.5l-3.2,4
				c-0.1,0.1-0.2,0.2-0.2,0.2c-0.1,0.1-0.2,0.1-0.3,0.1h-0.6l3.5-4.3c0.2-0.2,0.4-0.4,0.5-0.5c0.2-0.2,0.4-0.2,0.5-0.3
				c-0.5-0.1-1-0.2-1.4-0.3c-0.4-0.2-0.7-0.4-1-0.6c-0.2-0.2-0.5-0.5-0.6-0.9c-0.2-0.4-0.2-0.7-0.2-1.2s0.1-0.9,0.2-1.3
				c0.2-0.4,0.4-0.7,0.8-1c0.3-0.2,0.8-0.5,1.2-0.6s1-0.2,1.7-0.2h3.6L266.7,47.1L266.7,47.1z M265.8,41.3v-5H263
				c-1,0-1.8,0.2-2.3,0.6c-0.5,0.4-0.8,1-0.8,1.8s0.2,1.4,0.8,1.9c0.5,0.4,1.2,0.6,2.3,0.6L265.8,41.3L265.8,41.3z"/>
		</g>
	</g>
	<g>
		<path d="M86.8,30.9h-2.5c-0.5,0-0.9-0.2-1.1-0.6l-4.6-6.5c-0.1-0.2-0.3-0.4-0.5-0.5c-0.2-0.1-0.4-0.1-0.8-0.1h-1.8v7.7h-2.8V12.2
			h5.4c1.2,0,2.2,0.1,3.1,0.4s1.6,0.6,2.2,1.1c0.6,0.5,1,1,1.3,1.6c0.3,0.6,0.4,1.4,0.4,2.2c0,0.6-0.1,1.3-0.3,1.8
			c-0.2,0.6-0.5,1.1-0.9,1.5c-0.4,0.5-0.9,0.8-1.4,1.2c-0.6,0.3-1.2,0.6-1.9,0.8c0.3,0.2,0.6,0.5,0.9,0.9L86.8,30.9z M78.1,21.2
			c0.7,0,1.3-0.1,1.9-0.3c0.5-0.2,1-0.4,1.4-0.7c0.4-0.3,0.6-0.7,0.8-1.1s0.3-0.9,0.3-1.4c0-1.1-0.4-1.9-1.1-2.4
			c-0.7-0.5-1.8-0.8-3.2-0.8h-2.6v6.8H78.1z"/>
		<path d="M106.4,21.6c0,1.4-0.2,2.7-0.7,3.8c-0.4,1.2-1.1,2.2-1.9,3c-0.8,0.8-1.8,1.5-2.9,2c-1.1,0.5-2.4,0.7-3.8,0.7
			c-1.4,0-2.6-0.2-3.8-0.7c-1.1-0.5-2.1-1.1-2.9-2c-0.8-0.8-1.4-1.9-1.9-3c-0.5-1.2-0.7-2.4-0.7-3.8c0-1.4,0.2-2.7,0.7-3.8
			s1.1-2.2,1.9-3c0.8-0.8,1.8-1.5,2.9-2c1.1-0.5,2.4-0.7,3.8-0.7c1.4,0,2.6,0.2,3.8,0.7c1.1,0.5,2.1,1.1,2.9,2
			c0.8,0.8,1.4,1.9,1.9,3S106.4,20.2,106.4,21.6z M103.5,21.6c0-1.1-0.2-2.1-0.5-3c-0.3-0.9-0.7-1.6-1.3-2.2c-0.6-0.6-1.2-1.1-2-1.4
			c-0.8-0.3-1.7-0.5-2.7-0.5s-1.9,0.2-2.7,0.5c-0.8,0.3-1.5,0.8-2,1.4c-0.6,0.6-1,1.4-1.3,2.2c-0.3,0.9-0.5,1.9-0.5,3
			c0,1.1,0.2,2.1,0.5,3c0.3,0.9,0.7,1.6,1.3,2.2c0.6,0.6,1.2,1.1,2,1.4c0.8,0.3,1.7,0.5,2.7,0.5s1.9-0.2,2.7-0.5
			c0.8-0.3,1.5-0.8,2-1.4c0.6-0.6,1-1.4,1.3-2.2C103.4,23.7,103.5,22.7,103.5,21.6z"/>
		<path d="M119.5,15.3c-0.1,0.1-0.2,0.3-0.3,0.3c-0.1,0.1-0.2,0.1-0.4,0.1c-0.2,0-0.3-0.1-0.5-0.2c-0.2-0.1-0.4-0.3-0.7-0.5
			c-0.3-0.2-0.7-0.3-1.1-0.5s-0.9-0.2-1.5-0.2c-0.5,0-1,0.1-1.4,0.2s-0.8,0.3-1,0.6s-0.5,0.5-0.6,0.9s-0.2,0.7-0.2,1.1
			c0,0.5,0.1,0.9,0.4,1.2c0.3,0.3,0.6,0.6,1,0.8c0.4,0.2,0.9,0.4,1.4,0.6c0.5,0.2,1.1,0.4,1.6,0.5s1.1,0.4,1.6,0.6
			c0.5,0.2,1,0.5,1.4,0.9c0.4,0.4,0.8,0.8,1,1.4c0.3,0.5,0.4,1.2,0.4,2c0,0.8-0.1,1.6-0.4,2.3c-0.3,0.7-0.7,1.3-1.2,1.9
			c-0.5,0.5-1.2,1-2,1.3c-0.8,0.3-1.7,0.5-2.7,0.5c-0.6,0-1.2-0.1-1.7-0.2c-0.6-0.1-1.1-0.3-1.6-0.5s-1-0.5-1.4-0.8
			c-0.4-0.3-0.8-0.6-1.2-1l0.8-1.3c0.1-0.1,0.2-0.2,0.3-0.3c0.1-0.1,0.2-0.1,0.4-0.1c0.2,0,0.4,0.1,0.6,0.3c0.2,0.2,0.5,0.4,0.9,0.6
			c0.4,0.2,0.8,0.4,1.3,0.6c0.5,0.2,1.1,0.3,1.8,0.3c0.6,0,1.1-0.1,1.5-0.2c0.5-0.2,0.8-0.4,1.1-0.7c0.3-0.3,0.5-0.6,0.7-1
			c0.2-0.4,0.2-0.8,0.2-1.3c0-0.5-0.1-1-0.4-1.3s-0.6-0.6-1-0.9c-0.4-0.2-0.9-0.4-1.4-0.6s-1.1-0.3-1.6-0.5
			c-0.6-0.2-1.1-0.4-1.6-0.6c-0.5-0.2-1-0.5-1.4-0.9s-0.7-0.8-1-1.4c-0.3-0.6-0.4-1.3-0.4-2.1c0-0.7,0.1-1.3,0.4-1.9
			c0.3-0.6,0.6-1.2,1.1-1.7c0.5-0.5,1.1-0.9,1.8-1.2s1.6-0.4,2.5-0.4c1,0,2,0.2,2.9,0.5c0.9,0.3,1.6,0.8,2.3,1.4L119.5,15.3z"/>
		<path d="M139.3,12.2v18.7h-2.8v-8.4h-9.7v8.4H124V12.2h2.8v8.2h9.7v-8.2H139.3z"/>
		<path d="M146.7,30.9h-2.8V12.2h2.8V30.9z"/>
		<path d="M170.9,12.2v18.7h-2.4V17.6c0-0.2,0-0.4,0-0.6c0-0.2,0-0.5,0-0.7l-6.2,11.4c-0.2,0.4-0.6,0.6-1,0.6H161
			c-0.5,0-0.8-0.2-1-0.6l-6.3-11.4c0.1,0.5,0.1,0.9,0.1,1.4v13.3h-2.4V12.2h2.1c0.2,0,0.4,0,0.6,0.1c0.1,0,0.3,0.2,0.4,0.4l6.2,11.2
			c0.1,0.2,0.2,0.5,0.3,0.7c0.1,0.3,0.2,0.5,0.3,0.8c0.2-0.5,0.4-1,0.6-1.5l6.1-11.2c0.1-0.2,0.2-0.3,0.4-0.4c0.1,0,0.3-0.1,0.6-0.1
			H170.9z"/>
		<path d="M189.5,30.9h-2.5c-0.5,0-0.9-0.2-1.1-0.6l-4.6-6.5c-0.1-0.2-0.3-0.4-0.5-0.5c-0.2-0.1-0.4-0.1-0.8-0.1h-1.8v7.7h-2.8V12.2
			h5.4c1.2,0,2.2,0.1,3.1,0.4s1.6,0.6,2.2,1.1c0.6,0.5,1,1,1.3,1.6c0.3,0.6,0.4,1.4,0.4,2.2c0,0.6-0.1,1.3-0.3,1.8
			c-0.2,0.6-0.5,1.1-0.9,1.5s-0.9,0.8-1.4,1.2c-0.6,0.3-1.2,0.6-1.9,0.8c0.3,0.2,0.6,0.5,0.9,0.9L189.5,30.9z M180.8,21.2
			c0.7,0,1.3-0.1,1.9-0.3c0.5-0.2,1-0.4,1.4-0.7s0.6-0.7,0.8-1.1c0.2-0.4,0.3-0.9,0.3-1.4c0-1.1-0.4-1.9-1.1-2.4
			c-0.7-0.5-1.8-0.8-3.2-0.8h-2.6v6.8H180.8z"/>
		<path d="M203.5,28.7l0,2.2h-11.6V12.2h11.6v2.2h-8.8v5.9h7.1v2.2h-7.1v6.1H203.5z"/>
		<path d="M222.3,30.9h-2.1c-0.2,0-0.4-0.1-0.6-0.2c-0.2-0.1-0.3-0.3-0.3-0.5l-1.7-4.3h-8.2l-1.7,4.3c-0.1,0.2-0.2,0.3-0.3,0.4
			c-0.2,0.1-0.4,0.2-0.6,0.2h-2.1l7.4-18.7h2.8L222.3,30.9z M216.8,23.9l-2.8-7.2c-0.2-0.5-0.4-1.1-0.6-1.9c-0.1,0.4-0.2,0.7-0.3,1
			s-0.2,0.6-0.3,0.9l-2.8,7.2H216.8z"/>
		<path d="M237.2,26.9c0.2,0,0.3,0.1,0.4,0.2l1.1,1.2c-0.8,0.9-1.7,1.6-2.8,2.1c-1.1,0.5-2.4,0.7-4,0.7c-1.4,0-2.6-0.2-3.7-0.7
			c-1.1-0.5-2-1.1-2.8-2c-0.8-0.8-1.4-1.8-1.8-3S223,23,223,21.6s0.2-2.7,0.7-3.9c0.4-1.2,1.1-2.2,1.9-3c0.8-0.8,1.8-1.5,2.9-2
			c1.1-0.5,2.4-0.7,3.7-0.7c1.3,0,2.5,0.2,3.5,0.6c1,0.4,1.9,1,2.7,1.7l-0.9,1.3c-0.1,0.1-0.1,0.2-0.2,0.2c-0.1,0.1-0.2,0.1-0.4,0.1
			c-0.2,0-0.4-0.1-0.6-0.2c-0.2-0.2-0.5-0.3-0.9-0.6s-0.8-0.4-1.3-0.6c-0.5-0.2-1.2-0.2-2-0.2c-0.9,0-1.8,0.2-2.5,0.5
			c-0.8,0.3-1.4,0.8-2,1.4c-0.6,0.6-1,1.4-1.3,2.2c-0.3,0.9-0.5,1.9-0.5,3c0,1.1,0.2,2.1,0.5,3c0.3,0.9,0.8,1.6,1.3,2.2
			c0.6,0.6,1.2,1.1,2,1.4s1.6,0.5,2.5,0.5c0.5,0,1,0,1.5-0.1c0.4-0.1,0.8-0.2,1.2-0.3s0.7-0.3,1-0.5s0.6-0.4,0.9-0.7
			c0.1-0.1,0.1-0.1,0.2-0.1C237,26.9,237.1,26.9,237.2,26.9z"/>
		<path d="M254.2,14.5h-5.9v16.4h-2.8V14.5h-6v-2.3h14.6V14.5z"/>
		<path d="M259.7,30.9h-2.8V12.2h2.8V30.9z"/>
		<path d="M279.7,12.2l-7.6,18.7h-2.5L262,12.2h2.2c0.2,0,0.4,0.1,0.6,0.2c0.2,0.1,0.3,0.3,0.3,0.5l5,12.7c0.1,0.3,0.2,0.7,0.4,1
			c0.1,0.4,0.2,0.8,0.3,1.2c0.1-0.4,0.2-0.8,0.3-1.2c0.1-0.4,0.2-0.7,0.3-1l5-12.7c0.1-0.2,0.2-0.3,0.3-0.5c0.2-0.1,0.4-0.2,0.6-0.2
			H279.7z"/>
		<path d="M293.6,28.7l0,2.2H282V12.2h11.6v2.2h-8.8v5.9h7.1v2.2h-7.1v6.1H293.6z"/>
	</g>
	<g>
		<path d="M115.7,47.3H115c-0.1,0-0.1,0-0.2-0.1c0,0-0.1-0.1-0.1-0.2l-1.3-3.3h-5.6l-1.3,3.3c0,0.1-0.1,0.1-0.1,0.2
			c-0.1,0-0.1,0.1-0.2,0.1h-0.6l4.6-11.3h0.8L115.7,47.3z M113.2,43.2l-2.3-5.7c-0.1-0.2-0.2-0.4-0.2-0.7c0,0.1-0.1,0.2-0.1,0.4
			c0,0.1-0.1,0.2-0.1,0.3l-2.3,5.7H113.2z"/>
		<path d="M131.1,37.4c0,0.1-0.1,0.1-0.2,0.1c-0.1,0-0.2,0-0.3-0.1s-0.3-0.2-0.4-0.3c-0.2-0.1-0.4-0.2-0.7-0.3
			c-0.3-0.1-0.6-0.2-1-0.2c-0.4,0-0.8,0.1-1.1,0.2c-0.3,0.1-0.6,0.3-0.8,0.5c-0.2,0.2-0.4,0.4-0.5,0.7s-0.2,0.5-0.2,0.8
			c0,0.4,0.1,0.7,0.2,1c0.2,0.3,0.4,0.5,0.6,0.6c0.3,0.2,0.6,0.3,0.9,0.4s0.7,0.2,1,0.4c0.4,0.1,0.7,0.2,1,0.4
			c0.3,0.1,0.6,0.3,0.9,0.5c0.3,0.2,0.5,0.5,0.6,0.8c0.2,0.3,0.2,0.7,0.2,1.2c0,0.5-0.1,0.9-0.2,1.3c-0.2,0.4-0.4,0.8-0.7,1.1
			c-0.3,0.3-0.7,0.6-1.1,0.7c-0.4,0.2-1,0.3-1.5,0.3c-0.7,0-1.4-0.1-1.9-0.4c-0.5-0.3-1-0.6-1.4-1.1l0.2-0.4
			c0.1-0.1,0.1-0.1,0.2-0.1c0,0,0.1,0,0.2,0.1c0.1,0.1,0.2,0.1,0.3,0.2c0.1,0.1,0.2,0.2,0.4,0.3s0.3,0.2,0.5,0.3
			c0.2,0.1,0.4,0.2,0.7,0.2c0.3,0.1,0.5,0.1,0.9,0.1c0.4,0,0.8-0.1,1.2-0.2c0.4-0.1,0.6-0.3,0.9-0.6c0.2-0.2,0.4-0.5,0.6-0.8
			c0.1-0.3,0.2-0.7,0.2-1c0-0.4-0.1-0.7-0.2-1s-0.4-0.5-0.6-0.6c-0.3-0.2-0.6-0.3-0.9-0.4c-0.3-0.1-0.7-0.2-1-0.3
			c-0.4-0.1-0.7-0.2-1-0.4c-0.3-0.1-0.6-0.3-0.9-0.5c-0.3-0.2-0.5-0.5-0.6-0.8c-0.2-0.3-0.2-0.7-0.2-1.2c0-0.4,0.1-0.7,0.2-1.1
			c0.1-0.4,0.4-0.7,0.6-0.9c0.3-0.3,0.6-0.5,1-0.6c0.4-0.2,0.9-0.2,1.4-0.2c0.6,0,1.1,0.1,1.6,0.3s0.9,0.5,1.3,0.9L131.1,37.4z"/>
		<path d="M147.8,37.4c0,0.1-0.1,0.1-0.2,0.1c-0.1,0-0.2,0-0.3-0.1s-0.3-0.2-0.4-0.3c-0.2-0.1-0.4-0.2-0.7-0.3
			c-0.3-0.1-0.6-0.2-1-0.2c-0.4,0-0.8,0.1-1.1,0.2c-0.3,0.1-0.6,0.3-0.8,0.5c-0.2,0.2-0.4,0.4-0.5,0.7s-0.2,0.5-0.2,0.8
			c0,0.4,0.1,0.7,0.2,1c0.2,0.3,0.4,0.5,0.6,0.6c0.3,0.2,0.6,0.3,0.9,0.4s0.7,0.2,1,0.4c0.4,0.1,0.7,0.2,1,0.4
			c0.3,0.1,0.6,0.3,0.9,0.5c0.3,0.2,0.5,0.5,0.6,0.8c0.2,0.3,0.2,0.7,0.2,1.2c0,0.5-0.1,0.9-0.2,1.3c-0.2,0.4-0.4,0.8-0.7,1.1
			c-0.3,0.3-0.7,0.6-1.1,0.7c-0.4,0.2-1,0.3-1.5,0.3c-0.7,0-1.4-0.1-1.9-0.4c-0.5-0.3-1-0.6-1.4-1.1l0.2-0.4
			c0.1-0.1,0.1-0.1,0.2-0.1c0,0,0.1,0,0.2,0.1c0.1,0.1,0.2,0.1,0.3,0.2c0.1,0.1,0.2,0.2,0.4,0.3s0.3,0.2,0.5,0.3
			c0.2,0.1,0.4,0.2,0.7,0.2c0.3,0.1,0.5,0.1,0.9,0.1c0.4,0,0.8-0.1,1.2-0.2c0.4-0.1,0.6-0.3,0.9-0.6c0.2-0.2,0.4-0.5,0.6-0.8
			c0.1-0.3,0.2-0.7,0.2-1c0-0.4-0.1-0.7-0.2-1s-0.4-0.5-0.6-0.6c-0.3-0.2-0.6-0.3-0.9-0.4c-0.3-0.1-0.7-0.2-1-0.3
			c-0.4-0.1-0.7-0.2-1-0.4c-0.3-0.1-0.6-0.3-0.9-0.5c-0.3-0.2-0.5-0.5-0.6-0.8c-0.2-0.3-0.2-0.7-0.2-1.2c0-0.4,0.1-0.7,0.2-1.1
			c0.1-0.4,0.4-0.7,0.6-0.9c0.3-0.3,0.6-0.5,1-0.6c0.4-0.2,0.9-0.2,1.4-0.2c0.6,0,1.1,0.1,1.6,0.3s0.9,0.5,1.3,0.9L147.8,37.4z"/>
		<path d="M169,41.6c0,0.9-0.1,1.7-0.4,2.4c-0.3,0.7-0.6,1.3-1.1,1.8s-1,0.9-1.7,1.2s-1.4,0.4-2.2,0.4c-0.8,0-1.5-0.1-2.2-0.4
			s-1.2-0.7-1.7-1.2s-0.8-1.1-1.1-1.8c-0.3-0.7-0.4-1.5-0.4-2.4c0-0.9,0.1-1.7,0.4-2.4c0.3-0.7,0.6-1.3,1.1-1.8s1-0.9,1.7-1.2
			s1.4-0.4,2.2-0.4c0.8,0,1.5,0.1,2.2,0.4s1.2,0.7,1.7,1.2s0.8,1.1,1.1,1.8C168.8,40,169,40.8,169,41.6z M168.1,41.6
			c0-0.8-0.1-1.5-0.3-2.1c-0.2-0.6-0.5-1.2-0.9-1.6c-0.4-0.4-0.9-0.8-1.4-1c-0.6-0.2-1.2-0.3-1.9-0.3c-0.7,0-1.3,0.1-1.8,0.3
			c-0.6,0.2-1,0.6-1.4,1c-0.4,0.4-0.7,1-0.9,1.6c-0.2,0.6-0.3,1.3-0.3,2.1c0,0.8,0.1,1.5,0.3,2.1s0.5,1.2,0.9,1.6
			c0.4,0.4,0.9,0.8,1.4,1c0.6,0.2,1.2,0.3,1.8,0.3c0.7,0,1.3-0.1,1.9-0.3c0.6-0.2,1-0.6,1.4-1c0.4-0.4,0.7-1,0.9-1.6
			S168.1,42.4,168.1,41.6z"/>
		<path d="M187.8,45.4c0.1,0,0.1,0,0.1,0.1l0.3,0.3c-0.2,0.3-0.5,0.5-0.8,0.7s-0.6,0.4-0.9,0.5c-0.3,0.1-0.7,0.3-1.1,0.3
			c-0.4,0.1-0.8,0.1-1.3,0.1c-0.8,0-1.5-0.1-2.2-0.4s-1.2-0.7-1.7-1.2c-0.5-0.5-0.8-1.1-1.1-1.8s-0.4-1.5-0.4-2.4
			c0-0.9,0.1-1.6,0.4-2.4c0.3-0.7,0.6-1.3,1.1-1.8c0.5-0.5,1.1-0.9,1.7-1.2s1.4-0.4,2.2-0.4c0.8,0,1.5,0.1,2.1,0.4
			c0.6,0.2,1.1,0.6,1.6,1l-0.2,0.4c0,0.1-0.1,0.1-0.2,0.1c-0.1,0-0.2-0.1-0.3-0.2c-0.1-0.1-0.3-0.2-0.6-0.4c-0.3-0.1-0.6-0.3-1-0.4
			c-0.4-0.1-0.8-0.2-1.4-0.2c-0.7,0-1.3,0.1-1.9,0.4c-0.6,0.2-1.1,0.6-1.5,1c-0.4,0.4-0.7,1-1,1.6s-0.3,1.3-0.3,2.1
			c0,0.8,0.1,1.5,0.3,2.1c0.2,0.6,0.6,1.2,1,1.6s0.9,0.8,1.4,1c0.6,0.2,1.1,0.3,1.8,0.3c0.4,0,0.8,0,1.1-0.1s0.6-0.1,0.9-0.2
			c0.3-0.1,0.5-0.2,0.7-0.4s0.5-0.3,0.7-0.5C187.7,45.4,187.7,45.4,187.8,45.4C187.8,45.4,187.8,45.4,187.8,45.4z"/>
		<path d="M199.4,47.3h-0.8V36h0.8V47.3z"/>
		<path d="M219.4,47.3h-0.6c-0.1,0-0.1,0-0.2-0.1s-0.1-0.1-0.1-0.2l-1.3-3.3h-5.6l-1.3,3.3c0,0.1-0.1,0.1-0.1,0.2
			c-0.1,0-0.1,0.1-0.2,0.1h-0.6L214,36h0.8L219.4,47.3z M216.9,43.2l-2.3-5.7c-0.1-0.2-0.2-0.4-0.2-0.7c0,0.1-0.1,0.2-0.1,0.4
			c0,0.1-0.1,0.2-0.1,0.3l-2.3,5.7H216.9z"/>
		<path d="M235.6,36.7h-4v10.6h-0.8V36.7h-4V36h8.8V36.7z"/>
		<path d="M246.4,47.3h-0.8V36h0.8V47.3z"/>
		<path d="M266.6,36v11.3h-0.4c-0.1,0-0.1,0-0.2,0c0,0-0.1-0.1-0.1-0.1l-7.4-9.8c0,0.2,0,0.3,0,0.5v9.5h-0.7V36h0.4
			c0.1,0,0.1,0,0.2,0s0.1,0.1,0.1,0.1l7.3,9.8c0-0.2,0-0.3,0-0.5V36H266.6z"/>
	</g>
</g>
</svg>
