<svg xmlns="http://www.w3.org/2000/svg" viewBox="0 0 1632.5 937.8" id="map">
    <defs>
        <style>
            .a {
            fill: #0087c6;
            -webkit-transition: all .1s ease-out;
            -moz-transition: all .1s ease-out;
            transition: all .1s ease-out;
            cursor: pointer;
            }
            .a.hover {
            fill: #bbb;
            }
            .b {
            fill: #bbb;
            -webkit-transition: all .1s ease-out;
            -moz-transition: all .1s ease-out;
            transition: all .1s ease-out;
            cursor: pointer;
            }
            .b.hover,
            .b:hover {
            fill: #0087c6;
            }
            .d {
            fill: #bbb;
            -webkit-transition: all .1s ease-out;
            -moz-transition: all .1s ease-out;
            transition: all .1s ease-out;
            cursor: pointer;
            }
            .d.hover,
            .d:hover {
            fill: #0087c6;
            }
        </style>
    </defs>
    <g data-item="01">
        <title>Центральный Федеральный Округ</title>
        <path class="a"
              d="M142.8,683.1c-.7-.8-1.8-6.3-2.4-12.2s-1.6-11.3-2.1-11.8a32.6,32.6,0,0,0-5.7-2.7c-4-1.4-5.4-2.8-8.3-7.2s-3.4-5.6-2.3-9.3c.6-2.1,1.7-4,2.4-4.2s9.2,2.3,14.1,5.9c3.1,2.4,5.6,3.6,7.8,3.6s3.9.8,6.7,4.2,3.6,4.8,3.6,10.7c-.1,9.5-1.3,13.2-6,18.6s-6.3,6.3-7.8,4.4Z"
              transform="translate(-7.6 -21.2)"/>
        <path class="a"
              d="M133.1,601.8c-1.1-.7-1.1-1.6-.1-4.8,1.8-6.2,1-7.1-6.3-7.1h-6.3l-.7-5c-.6-4.4-1-5.1-4-6.6s-3.5-2.2-3.5-3,7.7-13,8.9-13,1.2.9,1.5,1.9c1,3.1,14.2,6.1,16.9,4,.9-.8,5.3-1.6,10.4-1.9,8.1-.5,8.7-.4,9.2,1.5,1.1,4,.5,6.8-2,10.2s-4.9,11.7-3.3,13.6.7,1.4-.9,1.4-3.7,2-6.1,4.9-4.5,4.9-8.2,4.9-4.7-.4-5.4-.9Z"
              transform="translate(-7.6 -21.2)"/>
        <path class="a"
              d="M329.1,595.1l-6.8-4.5-3.7,2.2c-5.4,3.1-10.7,2.7-16.7-1.2-4.1-2.7-4.9-3.6-4.6-5.6s-.8-3.7-4.8-7.8-5.3-5.4-7.7-4.1-7.7.9-10.5-.8,3.9-6.3,12.7-10.9l10.4-5.4c2.1-1.1,5.5-1.6,11.2-1.6,10.2,0,14.7,2,19.3,8.6,6.7,9.7,8.9,11.5,17.4,14s8.1,2.3,9.8.7,7.1-2.2,7.1-.3a4.3,4.3,0,0,1-1.5,2.7c-1,.8-1.5,3-1.5,6.4v5.2l-5.5-.5c-4.6-.4-6.1-.1-9.2,1.9-9.5,6.3-7.8,6.2-15.3,1.1Z"
              transform="translate(-7.6 -21.2)"/>
        <path class="a"
              d="M160.2,591c-4.6-1.6-4.8-1.8-4.3-4.7a21.4,21.4,0,0,1,3.6-7.3c2.8-3.9,3-4.6,2.5-9.9s-.4-5.7,1.1-6.3,2.7.1,4.4,1.8,3,2.6,12,2l11.8-.9c2-.3,2.9.3,4.1,2.5s2.4,3,3.2,3,4.5,4,4.5,7.7-.8,4-3.1,6.2-5.6,3.5-12,1.3l-4.5-1.6-6.4,4c-6.9,4.4-9.3,4.7-16.8,2.3Z"
              transform="translate(-7.6 -21.2)"/>
        <path class="a"
              d="M274.3,598.3c-7.5-9.6-12.5-14.4-14.7-14.4a5,5,0,0,1-3.3-1.5c-1-1.3-.9-1.9.6-3.6s1.6-2.4.6-4-.7-3.9,4.1-3.9a12.1,12.1,0,0,1,7.5,2.4c4.3,3.3,13.1,5.3,15.3,3.6s1.9-1,3.7.6c4.9,4.2,6.6,6.7,6,9.4s.1,3,3.6,4.8,5.1,4,1.9,4a7.4,7.4,0,0,0-4.3,2.1c-1.8,1.6-2.6,1.8-4.1,1-3.8-2.1-6.9-1.4-8.6,1.8a11.7,11.7,0,0,1-2.4,3.5c-.5.3-3.2-2.3-5.8-5.7Z"
              transform="translate(-7.6 -21.2)"/>
        <path class="a"
              d="M154.8,647.2c-2.5-3.1-4-4-7.3-4.5a24.4,24.4,0,0,1-9.2-4.4,37.3,37.3,0,0,0-9.1-4.8c-3.5-1-4.2-1.7-4.2-3.5a36.2,36.2,0,0,0-2-8c-2.6-7.5-2.6-7.8,1.5-9.7a12.1,12.1,0,0,0,4.9-4.7c1.6-3.1,1.9-3.2,6.7-2.7s5.4,1,10.4,6.3c7.3,8.1,8,9.2,9.2,15.5s1.7,6.3,6.4,11c3,3,5.3,5.8,5.3,6.3s-1.2,1.7-2.7,2.7c-7.5,4.8-6.6,4.7-10,.6Z"
              transform="translate(-7.6 -21.2)"/>
        <path class="a"
              d="M188,659.9a9,9,0,0,1-4.7-5.3c-.6-1.9-1.7-3.9-2.3-4.2a11.5,11.5,0,0,1-2.9-3.4,8.8,8.8,0,0,0-4.7-3.3c-1.7-.4-4.2-2.3-5.9-4.3l-3-3.6,3.5-.3c3-.3,4.1-1.2,7.6-5.9,2.2-3.2,4.3-6,4.8-6.5s1.9.4,3.2,1.9l2.4,2.8,4.3-1.8,5.4-2.2c1-.4,11.3,12,11.3,13.4s-2.5,2.4-5.4,4.5l-5.4,4,.2,7.3c.3,7.1.2,7.4-2.3,8s-3.8.1-6-1.1Z"
              transform="translate(-7.6 -21.2)"/>
        <path class="a"
              d="M215.5,580.6a26.4,26.4,0,0,1-.6-5.2c0-3,.3-3.2,4.3-3.9,5.6-.8,6.5-.2,6.5,4.5s-.2,4.4-5.6,5.7c-3.8.8-4.1.7-4.6-1.2Z"
              transform="translate(-7.6 -21.2)"/>
        <path class="a"
              d="M209.5,606.9c-.2-.3.2-1.9.9-3.6s1-3.7-2.2-10.6-3.4-8.1-2.8-12.1-1.8-11.7-4.5-11.7c-.9,0-2.7-1.6-3.9-3.5l-2.1-3.5,3.3-5.9c2.7-4.8,3.9-6.1,6.7-6.9,5.6-1.6,7.6-1.2,10.2,2.1s3.5,3.3,12.1,4.9c12.3,2.4,19.2,7.2,12.3,8.8-1.8.4-2.8,2-4.5,7.3s-2.2,7.3-1.2,10.7a14.6,14.6,0,0,0,4,6.2c3.3,2.7,3.4,3.6.9,8.9s-2,4-9.1,5.3l-13.4,2.6c-3.4.7-6.3,1-6.6.8ZM221.8,584l6.4-1.8.3-5.3c.4-7.8-.7-8.8-9.2-8l-6.9.7.3,6.9c.3,7.3.7,9.4,1.9,9.4S218.2,585,221.8,584Z"
              transform="translate(-7.6 -21.2)"/>
        <path class="a"
              d="M159.9,631.1c-.5-.7-1.4-4-2.1-7.1-1-4.8-2.1-6.6-7.2-12.1-3.5-3.8-5.7-6.8-5.2-7.5,2.6-4.6,6.5-8.5,7.9-7.9a2.7,2.7,0,0,0,2.9-1.2c1.2-1.6,1.9-1.6,8.2-.4l6.9,1.3.6,4.8a15.3,15.3,0,0,0,3.6,8c4.3,4.9,4,10.5-.9,17.4-3.6,5.2-3.9,5.4-8.8,5.7-3.4.2-5.3-.2-5.8-1Z"
              transform="translate(-7.6 -21.2)"/>
        <path class="a"
              d="M233.7,641.9c-3.1-3.1-3.2-3.1-7.7-1.9s-4.8,1-5,.2-3.5-4-6.4-4-4.5-.4-10-7.4-5.2-7-3.1-7.8,2.6-2.8,4-5.5,3.3-5.1,4.7-5.4c5.2-1.3,23.1-4.4,25-4.4s10.1,9.2,15.6,18l2.9,4.7-7.3,7.7a94.8,94.8,0,0,1-8.5,8.4c-.6.3-2.5-.9-4.1-2.6Z"
              transform="translate(-7.6 -21.2)"/>
        <path class="a"
              d="M141.5,563c-3-1.7-2.2-12.5,1.7-24.4,3.2-9.5,3.9-10.8,9.3-16.2s5.9-5.8,9.3-4.6,4.5,3,9.1,10.5l5.7,9.3h14.6l4,5c2.2,2.8,4,5.3,4,5.8s-5.8,12-7.3,13.5-5,1.6-11.2,1.9l-10,.7-2.5-2.9-2.5-2.9-4.7,2.2c-5.2,2.3-16.9,3.6-19.5,2.1Z"
              transform="translate(-7.6 -21.2)"/>
        <path class="a"
              d="M204.4,679.4c-7.3-7.9-9-10.1-9.7-12.8s-.3-2.8,2-3.3,2.5-.8,2.3-8.4c-.2-4.2-.1-7.9.2-8.1,7.1-5.8,10.5-7.6,13.9-7.6s4,.4,4.9,2.5,1.4,2.9,7.3,1.3c4.1-1,4.7-.9,6.6,1.1l2.2,2.2-2.8,2-2.8,2.1.7,11.7.7,11.7-10,5c-5.5,2.8-10.4,5-10.9,5s-2.6-1.9-4.7-4.2Z"
              transform="translate(-7.6 -21.2)"/>
        <path class="a"
              d="M240.5,557.8c-1.9-1.7-5.2-2.8-12-4-8.6-1.6-9.5-2-12.1-5.2s-3-3.5-7.2-2.8a29.1,29.1,0,0,0-5.6,1.1c-.7.2-3.3-2.3-5.8-5.5l-4.6-5.9h-6.6c-3.8-.1-7.2-.4-7.8-.8s-10.3-15.2-10.3-16.6,1.4-1.8,3-2.4c3.7-1.6,4.4-3,5.4-9.4,1.2-8.4,3.7-10.7,6.6-6.2,1.1,1.7,3.8,2.7,11.3,4.2a130.4,130.4,0,0,1,12.9,3.5c2.8,1.2,3.8,1.1,9.8-1.5l6.6-2.9,5.7,6.1c4.9,5.3,6,6,7.7,5.1s4.6-1.3,9.7,2c3.5,2.2,5.8,3,9.3,3s4.7.3,5.2,2.4-.9,7.1-6.1,12.2-9.3,13.8-7.2,17.1.9,2.5-1.4,5.3-2.9,3.5-3.3,3.4a10,10,0,0,1-3.3-2.3Z"
              transform="translate(-7.6 -21.2)"/>
        <path class="a"
              d="M184.4,621.4c-.9-1.6-2-2.9-2.4-2.9s-.8-1.6-.8-3.5-.9-4.4-3.1-6.9-3.2-4.3-3.3-9.2v-5.5l4.4-2.8,4.4-2.8,5.8,1.7c5.7,1.6,5.9,1.6,9.5-.5l3.8-2.2,2.8,6.2c3.2,7.1,3.2,7.3,1.2,12.2-5.8,14.1-5.5,13.7-15,17l-5.6,2-1.7-3Z"
              transform="translate(-7.6 -21.2)"/>
        <path class="a"
              d="M246,612.4c-7.3-9.2-7-8-4-14.6l2.6-5.9-3.6-3.3c-5.1-4.6-5.7-6.9-3.8-14.2.9-3.5,2-6.2,2.3-6.2s1.9,1.6,3.5,3.6,3.1,3.5,7,2.9,6.5.6,3.9,3.6-1.7,2.2-.3,4.6a9.5,9.5,0,0,0,4.7,3.8c4.4,1.4,19.3,18.1,17.6,19.8s-23.7,11.3-24.8,11.2-2.9-2.3-5-5Z"
              transform="translate(-7.6 -21.2)"/>
        <path class="a"
              d="M157.6,700.5a29.2,29.2,0,0,0-5.4-3c-.8,0-4.6-5.6-6.2-9-.1-.4,2.4-3.6,5.6-7.1,6.4-7.1,8-11.6,8-22.3v-5.7l5.5-3.8c6.2-4.1,9.7-4.1,11.3,0,.5,1.4,1.4,2.5,2,2.5s1.9,2,3,4.3,2.8,4.8,5.2,5.8,6.6,4.9,6.6,7.5c0,.9,3.2,4.8,6.9,9,6.2,6.7,6.9,7.8,6.9,11.6s-1.6,5.5-6.7,1.6c-3.2-2.4-3.9-2.6-10.8-2a50.5,50.5,0,0,0-7.9,1,14.8,14.8,0,0,0-1.2,3.9c-.6,2.9-1.4,3.6-6.4,5.5-8.8,3.5-11.3,3.6-16.4.2Z"
              transform="translate(-7.6 -21.2)"/>
        <path class="a"
              d="M245.1,570.1c-2.2-2.4-1.5-5,2.9-10.4s4.6-6.1,3.4-8.6.7-9.5,6.6-15.4,8.8-6.6,14-1l4,4.1,2.8-1.9c2.5-1.7,2.8-1.7,4-.1S286,551,286,556.7c0,2.6-.5,3.5-2.3,3.9s-4.5,2.7-7.5,5.1-5.8,4.4-7.4,3.9c-3.6-1.2-15.5-.4-17.1,1.1s-4.6,1.8-6.6-.5Z"
              transform="translate(-7.6 -21.2)"/>
        <circle class="b" cx="210.4" cy="556.8" r="16px"/>
    </g>

    <g  data-item="02">
        <title>Северо-Западный Федеральный Округ</title>
        <path class="a"
              d="M398.6,559.2a18.8,18.8,0,0,0-5.2-.9,6.7,6.7,0,0,1-4.8-2.7c-1.8-2.2-2.5-2.5-5.8-1.9l-3.9.6v-3.9c0-3.1-.4-4-1.9-4.4s-2.9-2.4-4-4.5c-2.1-4-4-4.9-6.9-3.2a6.5,6.5,0,0,1-4,.1c-2.1-.5-2.7-1.4-3.1-4.5s-.9-3.9-2.5-3.7l-6.4.9c-4.2.6-4.6.4-7.1-2.9s-5.3-4.6-10.1-6.9-7.6-4.1-8.1-6.1a4.1,4.1,0,0,0-3-3.1c-2.8-.7-15.2-13.6-15.2-15.8a33.6,33.6,0,0,1,2.5-7.3c1.4-3.3,2.5-6.5,2.5-7.4s1.8-2.4,3.9-3.5,4-2.6,4.9-7a20.7,20.7,0,0,1,3.6-8c2.3-2.8,2.4-3,1-7.5-2.5-8.1-2-10.7,3.4-17.8,2.1-2.7,3.1-3.2,6.6-3.2s4.2.4,4.6,1.9,6,6,7.8,6,7.7-6,8.8-8,.5-3.3-.3-6.1c-1.4-5.2-.2-12.3,2.4-13.9s3.7.1,4.6,9.1l.9,8.2,6.3,6.6c8.3,8.7,9.9,8.9,12.5,1.5,4.9-13.7,6.7-15,21.3-15,12.7.1,13,.2,16.4,8.3s5,10.3,8.8,8.1l2.9-1.8,7,13.3,7,13.3,6.1-.6c4.4-.4,6.6-.1,8,.9s1.6,1.7-2.1,9.2l-4,7.9,2.2,7.1c1.9,5.9,2,7.4,1,8.9s-1.8,1.6-5.8.5A38.2,38.2,0,0,0,443,499c-3.4,0-4.6-.7-8.8-4.7a59.5,59.5,0,0,0-11.3-8.1c-6-3.2-6.6-3.3-10.4-2.2s-4,1.9-4,2.6,1.4,4.2,3,7.7c2.6,5.5,2.9,6.8,2,9.3s-.9,4.8-.6,7.4c.7,5,.9,4.8-5.4,6.1-2.1.5-2.9,1.7-4.8,8.1l-2.4,7.5,3,2.4c4,3.3,5.5,3.1,9.2-1.5s3.8-4,6.9-4,4.1.5,5.3,2.3,1.3,2.6-6.8,10.7-8.3,8.7-7.9,10.9c1.1,5.5-4,8.1-11.3,5.8Z"
              transform="translate(-7.6 -21.2)"/>
        <path class="a"
              d="M555,493.1c-18.1-8-24.5-11.4-37.2-19.9s-16-10-17.7-9.6-29.9.6-45.4.2c-3.7-.1-7-.6-7.5-1.1s-3.7-6.2-7-12.6c-5-9.4-5.9-11.9-4.8-12.6l4.7-3,3.3-2.1-.6-6.8L442,419l4.2-1.9c5.8-2.5,14.6-12.1,14.6-16,0-1.5.4-3.1.9-3.4s6.2,3.7,8.1,8.1,2.4,9.4,0,11.6-2.2,1.7-7,0-4.9-1.8-9.4.4c-2.5,1.2-4.7,2.9-5.1,3.8s1.4,17.1,2.5,18.9,10.8,5.2,13,5.2,4-2.5,6.9-5.4l5.3-5.4h28c15.5,0,28.1.4,28.3.9s-1.9,2.3-4.8,4-5.7,3.8-6.1,4.6,5.8,8.9,9.1,10.2c1.3.5,4,.1,7.3-1.1,6.7-2.3,8.7-2.3,14.9.2,4,1.6,6.2,1.8,12.4,1.3l7.5-.6-.7,4.5c-.7,4.3-.6,4.6,2.1,5.7,4.7,2,9.6,1.4,14.2-1.7l4.2-2.9-.6-6.6c-.5-5.2-.2-7,1-8.2s1.4-1.7,16.8,7.1a24.5,24.5,0,0,1,7.3,7.3l3.2,4.9-2.1,2.9c-2.7,3.6-2.7,3.2.5,10.6,1.4,3.5,2.3,6.5,1.9,6.9s-2.1.1-3.9-.6-3.3-1.1-6.8,2.9a14.8,14.8,0,0,1-7.8,5,25.1,25.1,0,0,0-8.2,4.2,27.5,27.5,0,0,1-10.1,4.9c-3.4.9-6.2,1.5-6.4,1.5L555,493.1Z"
              transform="translate(-7.6 -21.2)"/>
        <path class="a"
              d="M569.4,404.1c-4.2-3.3-7.8-6.9-8.1-8.1s-1.5-7.2-2.6-13.2c-1.9-9.6-1.9-11.5-.8-14.8s2.1-4.1,5.1-5.1,7.3-4.6,13.1-10.2c8.3-7.8,9.8-8.8,12.1-8.3s3.2-.1,7.3-5.4a49.6,49.6,0,0,1,9.2-9.1c2.6-1.8,8.9-6.3,14-10.2s10.6-7.8,12-8.8c3.1-2,23-5.1,41.8-6.6a142.5,142.5,0,0,0,20.9-3.1c4-1.2,7.8-1.8,8.7-1.5,2.8,1.1,1.8,6.2-1.9,9.9s-3.8,3.8-25.8,6.1c-16,1.7-20.5,3.4-33.8,12.1a85,85,0,0,1-11.5,6,67.4,67.4,0,0,0-12.3,7.7c-3.6,3-10.1,8-14.4,11.3-8.3,6.1-18.7,17.2-22.9,24.4-2.5,4.1-2.5,4.6-2,16.3.3,6.6.7,12.8.9,13.9.6,3.4-1.6,2.6-9.2-3.4Z"
              transform="translate(-7.6 -21.2)"/>
        <path class="a" d="M701.4,199.2c-1.9-4.8,1.5-8.5,5.9-6.5,2.9,1.4,3,2.2.3,5.4S702.3,201.5,701.4,199.2Z"
              transform="translate(-7.6 -21.2)"/>
        <path class="a" d="M717.8,199.2c-2.7-1.2-3.1-1.8-2.2-3.3s10.8-4.9,12-3,.9,4.9-2.6,6.3l-3.7,1.4-3.6-1.5Z"
              transform="translate(-7.6 -21.2)"/>
        <path class="a" d="M688.9,197.3c0-4.2,6.8-4.5,6.9-.3,0,.8-4.2,2.8-6,2.8S688.9,198.7,688.9,197.3Z"
              transform="translate(-7.6 -21.2)"/>
        <path class="a" d="M688,185.2c-2-7-1.2-7.5,7.2-4.6,4.3,1.5,4.6,1.8,4.3,4.6s-.5,3.2-5.4,3.5l-5.1.3Z"
              transform="translate(-7.6 -21.2)"/>
        <path class="a"
              d="M650.1,182c-1.7-1.9-1.7-2,1.6-3.3,11.9-4.9,17.8-6.8,18.7-5.9s.2,8.2-.7,8.2-3.8.6-8,1.5C652,184.4,652.2,184.4,650.1,182Z"
              transform="translate(-7.6 -21.2)"/>
        <path class="a" d="M695.3,175.7l-3-1.3,5.4-1.7c4.6-1.4,5.5-1.5,6.8-.2s1.2,1.7.1,3S699.4,177.3,695.3,175.7Z"
              transform="translate(-7.6 -21.2)"/>
        <path class="a"
              d="M655.9,170.1c-.3-.6-2.2-1-4-1-4.1,0-4.3-1.9-.5-4.7l2.9-2.1,5.5,2.2c3.1,1.2,5.4,2.5,5.4,3s-5.9,3.7-7.7,3.7a2.3,2.3,0,0,1-1.6-1Z"
              transform="translate(-7.6 -21.2)"/>
        <path class="a"
              d="M68,441c-1.6-2.1-5.9-8.2-9.7-13.5C51,416.9,51,416,58,416c3.1,0,4,.5,5.6,3.3a33.3,33.3,0,0,0,4,5.1c2,1.8,2.1,1.8,4.9-.3s3.1-1.8,3.5-1.2,5.4,16.1,5.4,18-.5,2.4-6,3.3S70.8,444.6,68,441Z"
              transform="translate(-7.6 -21.2)"/>
        <path class="a"
              d="M249.6,495.8a3.9,3.9,0,0,1-1.2-2,86.5,86.5,0,0,0-4.1-9.7l-4-8.9h-3.9c-3.5,0-3.9-.3-3.3-2s-.2-3.4-1.5-5.4-3.8-4-8.9-2.6-10.7-.6-13.4-3.4-2.6-2.5-5.3-1a19.9,19.9,0,0,1-3.4,1.5c-.2,0-.7-2.6-1-5.7a83.1,83.1,0,0,0-2.8-12.3c-2.6-7.7-2.4-8,4.7-9.1,3.2-.5,5.4-.1,9.2,1.5s6.1,3.7,7.6,12.1c.6,3.5.8,3.7,5.7,4.2a51.8,51.8,0,0,0,8.5.3c3.1-.3,3.7-.9,6-5.7,1.5-3.1,2.5-5.8,2.2-6.2s-3.2-2.3-6.7-4.1-6.5-4.3-7.3-6.6c-1.6-4.6-1.4-5.5,2.3-9.3s3.9-3.5,7.7-3.2,4.3.5,7.1,5.9c1.6,3.2,5.5,11.8,8.9,19.3l6,13.6,5.7.8c5.3.8,5.9.7,8.3-1.5l2.5-2.3,2.4,3c1.3,1.6,3.8,4.7,5.3,7l3,4.1-3.6,1.2c-2,.7-6.8,4-10.8,7.5-5.7,5-7.3,7-7.6,9.5s-1.3,3.7-6.2,6.8c-6.8,4.2-6.6,4.1-8.2,2.7Z"
              transform="translate(-7.6 -21.2)"/>
        <path class="a"
              d="M307.8,473.9c-2.9-3.1-4-3.5-10.4-4l-7.2-.7-6.8-9.3c-3.8-5-7.4-9.3-8-9.3s-2.3,1.1-3.5,2.5-5,3-9.3,1.9c-1.7-.5-4-4.5-9.7-17.6-4.1-9.3-7.5-17.5-7.5-18.2s2-1.2,6.7-1.2c8.1,0,33.8-4.5,35.4-6.2s1.9-5.8,2.8-11.6,2-10.7,2.4-11.2a23.2,23.2,0,0,1,5.2-2c4.1-1.2,4.6-1.8,9.8-11s5.9-10,11.4-13.1c7.6-4.4,9.7-6.4,14.5-13.4,2.1-3.1,4.2-5.6,4.7-5.6s3.3,1.6,6,3.6c4.6,3.4,4.9,3.9,4.3,6.7-1.5,6.2-.1,9.5,4,9.5s2.8.5,4.4,12.2l1.2,8.9-2.8,2c-5.8,4.1-10.2,8.6-15.8,16l-5.8,7.5,1.9,9c1,4.9,2,9.8,2.3,10.8s-.2,1.8-4,1.8-4.6.3-8.5,5.2-4,5.6-4,11.7a52.5,52.5,0,0,0,.8,8.8c.6,1.8.2,3.2-1.4,5a15.8,15.8,0,0,0-2.9,7.2c-.6,3.7-1.3,4.8-3.6,6l-3.2,1.5a29.9,29.9,0,0,1-3.7-3.4Z"
              transform="translate(-7.6 -21.2)"/>
        <path class="a"
              d="M491.9,599.9c-10.1-4-14.7-4.4-26.4-2.3-7.1,1.3-8.1,1.3-14.3-.5s-6.8-2.1-9.3-6.8l-2.5-4.9-7.4-.7c-10.3-.9-10.8-.7-10.8,5.2s-2.1,7.6-15,4.3c-10.6-2.6-11.5-2.5-15.5,1.9-1.4,1.4-3,2.6-3.6,2.6s-4.4-9.8-4.4-13.3c0-1,1.5-3.5,3.4-5.4s3.8-5.6,5.1-11.4l1.8-7.6,3.6.6c10.9,2.1,11.5,2,14.1-1.6s2.4-4.1,2.1-5.7.9-4,8-10.9c4.6-4.6,8.4-8.8,8.4-9.2s-1.2-2.4-2.7-4.2-3.3-3.4-7.4-3.4-4.8.3-7.9,4-3.7,4-5.5,3-2.6-2-.3-8.5c1.6-4.6,2.1-5,6.1-6l4.3-1.1-.3-5.9a27,27,0,0,1,.8-8.7c.9-2.4.6-3.8-2-9.2s-2.8-6.7-1.8-7.3,4.5-.9,9.9,2.3c8.2,4.8,10.8,6.8,11.8,9.4s1.5,2.4,5.2,2.4a44.9,44.9,0,0,1,10.7,2l6.4,2a35.2,35.2,0,0,0,2.7-3.6l2.4-3.6-2.4-6.9L457,484l2.6-5.1c1.4-2.8,3.6-6.6,4.8-8.6l2.3-3.7,18.2.2H503l15.2,10c10.8,7,19.2,11.7,28.5,15.6l17.3,7.4c14.3,6.4,12.6,6.1,20.2,4a26,26,0,0,0,10.9-5.2,16.1,16.1,0,0,1,7.9-4c2.8-.4,4.6-1.5,7-4,4.5-5.2,9.4-4.4,5.3.9-2.1,2.9-1.8,5.2,1.1,7.7l2.5,2.2-2.8,4a48.9,48.9,0,0,1-7.2,8.1c-4.1,3.8-5.3,4.2-13.8,5.7s-14.1,3.8-18.4,8.5c-.9,1-4.7,2.8-8.4,3.9a52.2,52.2,0,0,0-12.7,6.1c-5.4,3.8-6.1,4-7,2.5s-3.1-2.1-9.7,4.5-6.2,6.9-6.6,10.6a24.2,24.2,0,0,1-.6,4.3l-6.3,4.8c-5.8,4.4-6.2,5-10.7,16.2-7.1,17.5-9.7,22.4-12,22.6s-5.9-1.4-10.9-3.4Z"
              transform="translate(-7.6 -21.2)"/>
        <path class="a"
              d="M395.9,407.7c-6.2-2.6-8.2-4.3-13.7-12.1s-9.9-19.7-12-33.3c-1.6-9.9-2-11.2-3.9-11.4s-3.3,1.1-6.2,4.6-4.9,5-6.6,5-3.8-1.8-1.9-6.2,1.4-3.6-1.3-5.8a72.3,72.3,0,0,0-6.4-4.7c-4-2.7-4.2-3.6-2.5-7.4s1.5-2.9,10.2-4.5,10-3,10.8-7.5c2.5-14.2,3.7-17.9,6.3-19.1,9.7-4.4,12.9-5,24.8-4,17.6,1.6,17.9,1.7,17.9,4.4s-.5,2.5-3,2.5-3.3.6-3.6,1.4c-1,2.5,2.5,12.4,7.6,22.3s5,10.1,6.4,21.7a119.7,119.7,0,0,0,3.5,18.2c2.3,7,2.3,11.8.1,24.8l-1.7,9.9-5.9,1.6c-7.9,2.3-12.8,2.1-19-.5Z"
              transform="translate(-7.6 -21.2)"/>
        <path class="a"
              d="M247,512.2c-3-1.9-4.8-2.4-7.4-2s-4,0-9.1-5.1l-5.7-5.6-4.1,1.7-7.3,2.9c-2.6,1-3.7,1-6.4-.4a63.6,63.6,0,0,0-10.8-2.8c-5.9-1-8.1-1.8-10.6-4.1l-3.2-3.1,6.5-7.3,6.5-7.2-1.2-3.9a27.5,27.5,0,0,1-1.1-6.2c0-2.2.5-2.6,3.8-3a24.9,24.9,0,0,0,6.7-1.8c2.8-1.1,3.4-1.1,5.2.8s9.5,3.7,15.1,2.7,6.6,1.1,6.7,6.7c0,3.7.1,3.8,4,3.8h4l4,8.6c5.1,11.2,5.4,12.5,3.4,15.8s-1.7,2.7.2,4.1l3.8,2.6a3.2,3.2,0,0,1,1.4,3.2l-.4,2.1-4-2.4Z"
              transform="translate(-7.6 -21.2)"/>
        <path class="a"
              d="M160.7,511c-4.3-8.5-12-28.8-11.4-30.5s13.1-23.2,14.9-25.3a7,7,0,0,1,4.5-1.7c4.1,0,6.6-1.9,10.4-7.8s6.7-7,11-7c2.4,0,5.7,9,6.5,17.5l.7,7.2h-2.5c-3.7,0-5,2.3-4.4,7.1a38.9,38.9,0,0,0,1.2,6.2c.4,1.4-.7,3.3-4,6.9-12.1,13-13.1,14.6-14.2,20.6-.6,3.3-1.1,6-1.1,6.2s-6.5,4.2-8,4.2-2.6-1.7-3.7-3.8Z"
              transform="translate(-7.6 -21.2)"/>
        <path class="a"
              d="M221.5,449.8c-.7-1.1-1.8-8.1-1.4-8.1a39.5,39.5,0,0,1,4.1,1.5c4.6,2,6.8,1.3,6.2-2-.3-1.4-.1-2.5.4-2.5s4.3,2,6.6,3.7c.2.1-.4,2.1-1.4,4.2l-1.8,4h-6.2C224.7,450.6,221.7,450.2,221.5,449.8Z"
              transform="translate(-7.6 -21.2)"/>
        <path class="a"
              d="M344.4,573.7c-6.1-2-6.7-2.5-11.7-9.5s-6.2-7.9-10.9-10.3-6-2.9-15.1-2.2c-6.6.5-10.3,1.2-12.6,2.6s-3.7,1.8-3.9,1.6-1.1-4.7-1.8-10.1c-1.1-7.3-1.9-10.1-3.6-12s-4-2.9-6.9-1.1-2.4.9-5-2.6a17.9,17.9,0,0,0-5.4-4.6c-1.8-.7-2.3-1.6-2.3-4.1,0-4.3-1.5-5.6-6.6-5.6s-4.2-.1-4.2-3.3-.8-3.9-3.2-5.8-3.3-2.7-1.3-4.7,4.5-3.8,7.9-5.6c8.2-4.9,9.4-6.1,9.4-9.3s1.4-4,6.2-8.2,7.4-5.9,8.7-6.4,6.2-.6,11.8-.2c9,.8,9.4.9,12.5,4.3l3.3,3.6-3,8a86.6,86.6,0,0,0-3,9.2c0,1.7,15,17.5,16.6,17.5s1.7,1.1,2.2,2.4,3.4,3.7,8.6,6.3,8.8,5.2,10.9,7.8l3.2,4,5-1c5.6-1.1,6.9-.4,6.9,4,0,2.7,3.4,3.8,8.8,2.9,3.6-.6,4-.4,5,2.5a12.8,12.8,0,0,0,3.7,4.5c2.3,1.5,2.9,4.4,1.7,7.6-.3.8-3.3,2.7-6.4,4.1-6,2.7-7.1,4.6-4.1,6.8,1.4,1,1.6,1.8.7,4s-1.3,2.8-5.1,2.6-4.9.2-6.3,1.2-2.7,1.9-10.6-.8Z"
              transform="translate(-7.6 -21.2)"/>
        <circle class="b" cx="363.1" cy="465.8" r="16px" />
    </g>

    <g  data-item="03">
        <title>Южный Федеральный Округ</title>
        <path class="a"
              d="M68.6,799.5,66.9,796c-.2-.4.7-.7,2-.7a9.9,9.9,0,0,0,3.8-1c1.2-.8,1.3-1.3.3-3-2.1-3.3-1.5-4.5,2.6-6.4s6.6-5.6,5.5-7.5-2.1-.9-4-.9c-3.8,0-8-3.7-9-7.7s.2-3.8,3.6-.9a10.1,10.1,0,0,0,7,2.7c3.6,0,4,.3,5.4,3.5,2,4.7,3,15.5,1.6,17.9s-1.2,1.6-2.2-1.4-1.7-3.2-2.4-3.2-3.1,3.3-5.5,7.4-4.6,7.4-5,7.4-1.2-1.3-2-2.8Z"
              transform="translate(-7.6 -21.2)"/>
        <path class="a"
              d="M198.6,840.2c-6.5-.7-12.6-1.1-13.5-.8a4.7,4.7,0,0,1-3.3-.4c-1.2-.7-.7-1.6,2.9-5.1l4.4-4.2-2-3.9c-2.2-4.3-2.5-4,6.2-5.7,3.2-.7,5.9-1.5,6.1-1.9s0-2.9-.5-5.5c-.9-4.5-.7-5,2.6-9.9,1.9-2.8,3.5-5.3,3.5-5.7s-2.3-.7-5-.7h-5.1l.7-7.9c.4-5,.2-9.4-.6-12.2s-.9-4.8-.5-5.2,4.2-.7,8.4-.6c6.5.1,7.8.5,9.3,2.3s2.3,4.5.3,6.5-1.8,4.6-.6,7.8c.5,1.2.1,4-1,7.2-2.2,6.3-1.8,7.3,4.4,12,2.5,1.9,4.7,4,4.9,4.9a81.2,81.2,0,0,1,1.1,10.5l.7,9-4.1,1.7c-4.1,1.6-4.2,1.6-3.6,5.5s2.2,4.4-15.7,2.5Z"
              transform="translate(-7.6 -21.2)"/>
        <path class="a"
              d="M163.2,843.4c-4.8-4.4-6-6.3-7.7-11.6a137.2,137.2,0,0,0-5.3-13.6c-1.9-4-3.8-9.2-4-11.5-.7-4.2-6.4-15.5-9.5-18.6a7.5,7.5,0,0,0-5.1-1.8c-2.8,0-3.5-.4-3.8-2.3s-.8-2.2-3.4-1.9-3.6-.4-4.1-1.2-.3-1.5,4-2.1,6-1.4,6.9-2.2,1.9-1.1,4.2,2.7a48.4,48.4,0,0,1,3.9,7.3c2.3,6.1,3.1,6.8,8.7,7.2s5.4.4,6.7-2.7,1.4-3.2,5.9-2.5l4.7.6,3.7-5.9c2-3.4,3.4-6.5,3-7s-2.4-1-4.5-1-4-.3-3.7-1.8,1.6-1.8,7.7-2,7.9-.8,9.5-2.3,3.4-1.7,3.4,1.5,1.9,4.6,4.2,3.4,4.1.5,4.1,12.3v11.1l3.8.3c2,.2,3.7.7,3.7,1.2a16.2,16.2,0,0,1-2.5,4.4c-1.6,2.5-2.2,4.4-1.9,6.2,1.3,6.5,1.4,6.5-5.5,7.8-3.5.8-6.8,1.8-7.3,2.3s-.2,2.5.9,4.9l1.9,4-4.7,4.5c-4.7,4.6-4.7,4.6-2.7,6.3s2.7,3-1.1,5.5c-6.1,4-7.6,3.8-13.9-2Z"
              transform="translate(-7.6 -21.2)"/>
        <path class="a"
              d="M85,806.7c-1.5-1.9-3.2-3.5-3.9-3.5a37.5,37.5,0,0,0-6.7,2.8c-3.2,1.5-6,2.5-6.4,2.1a16.7,16.7,0,0,0-4.3-1.8c-4.2-1.4-4.8-3.4-4.8-17.1,0-7-.5-10.1-3.1-17.3-4-11.3-5.6-17.3-6.4-23.2-.6-4.2-.4-4.7,1.3-4.7s2.7,1.3,3.6,3c2.3,3.8,3.8,3.7,9.2-.2s4.6-3.1,10.7-2.5,8.3.1,8.7-6.8c.3-5.3,0-5.1,8.4-3.9,2.9.5,3.2.8,2.7,3.3s1.8,6.3,4.9,5.1,2.8-.4,4.2,1.3c4.5,5.2,4.5,5.2,2.8,10.6l-1.7,4.9,3.7,5.4c2.9,4.2,3.6,6.2,3.3,9.1s-.4,3.8-4.4,3.8-4.4.4-6.7,3.7-3,5.3-.9,10.7c1.6,3.8,1.5,4-.5,5.6a15.7,15.7,0,0,0-3.4,5.7,10.9,10.9,0,0,1-4.4,5.7l-3,1.8L85,806.7Zm-8.4-8.2,4.2-6.6,1.4,3.2c1.8,4.3,3.7,4,5.6-1s1.4-5.5.7-11.7c-1.6-12.1-3.5-14.7-10.8-14.7-1.4,0-3.8-1.2-5.3-2.7s-3.1-2.5-5.2-1.5-3.2,5.5.6,10.6c2.1,2.7,4,4,6,4.4,4.7.7,4.3,2.5-1.3,4.7s-5.3,2.6-3.5,7.2c.6,1.2,0,1.7-2.3,2.2s-3.1,1.2-3.1,2.2c0,2.8,5,10.4,6.9,10.4S74,802.7,76.6,798.5Z"
              transform="translate(-7.6 -21.2)"/>
        <path class="a"
              d="M147.2,791.6c-3.7-.5-5.4-1.9-5.4-4.3s-6.7-14.6-8.5-15.3-2.4.6-3.5,2.1-2.6,2.6-8.6,2.4l-6.6-.3-.5-4c-.3-2.2-2.1-6.1-3.9-8.8l-3.3-4.8,1.7-5.1,1.8-5.2-3.7-4.5c-3.9-4.6-4.3-4.9-8.3-4.6-1.8.2-2.3-.2-2-1.6s1.3-1.8,4.9-1.8,5.2-.6,5.9-1.4.1-2.8-6.6-7.7c-2.9-2.1-2.9-2.2-1.1-4.1s3.1-2.1,6.2-2.1,4.9.6,10.4,5.5l6,5.6,3.1-3.5c1.7-1.9,4.6-5.6,6.5-8.2s4.4-5.1,7.4-5.9c6.3-1.9,8.2-3.3,9.4-7.2,1.9-5.6,2.5-5.8,8.1-2.3s5.7,3.1,8.7,2.6c7.4-1.5,7.2-1.6,8.8,5.2s1.8,6.7-5.3,11.7c-2,1.4-2,1.4.3,5.6s2.3,4.3.6,7.9-2,3.7-6.5,3.7-10.7,2.2-10.7,4a12.9,12.9,0,0,0,1.6,4c1.3,2.6,1.4,3.9.5,7.4-1.5,5.6.2,11.6,3.9,14.2,2.1,1.5,2.6,2.5,2.2,4.8s-.3,3.1,3.8,3.1h4l-2.3,4c-2.3,4-2.3,4-6.9,3.5s-4.8-.4-6.2,2.4S151,792,147.2,791.6Z"
              transform="translate(-7.6 -21.2)"/>
        <path class="a"
              d="M215.5,772.2c-1.5-3.5-3.3-4.1-12.9-4.8-3.3-.3-12.7,1.4-14,2.5s-1.6.6-2.7-4.4-2-3.4-5.6.8-3.4,3.5-9.8,3.5c-9,0-11.4-1.1-12.8-5.5-.9-2.8-.9-4.5,0-7.8s.9-4.7-.5-7.4c-2.3-4.4-1.1-5.2,8.2-5.4,4,0,4.3-.3,6.9-4.8l2.6-4.7-2.1-3.8-2.2-3.8,4-3.4,4.1-3.5-1.3-5.8c-.7-3.3-1.5-6.7-1.7-7.8s.4-2.5,3.2-4,4.6-3.2,5.7-6.7c.4-1.4,1.7-1.7,6.4-1.7s6.2.5,6.6,1.1a14.8,14.8,0,0,0,3.7,2.9,20.8,20.8,0,0,1,5.5,6.5c2.5,4.5,2.9,4.8,9.8,6.8,4,1.1,7.6,2.7,8.2,3.5s1.2,8.5,0,12.4.1,5.9,4.4,6.7c2.6.5,4,1.6,5.5,4.1a13.7,13.7,0,0,0,5,4.8c2.1.8,3.4,2.4,4.2,4.9s1.1,4.1.8,4.5-4.1,2.8-8.7,5.2c-9.5,5.1-10.2,5.8-10.7,10.3-.2,2.6-1.1,3.7-4.4,5.6l-4.1,2.5-1.5-3.4Z"
              transform="translate(-7.6 -21.2)"/>
        <path class="a"
              d="M30.5,695.8c1.4,4.8,3.8,14.1,5.3,13.1-.1.3-.5,2-3.1,1.6l3.2,1c-1.8.3.3,6.7.2,7.1-.8,4.4-4.4,1.4-1.1,8.4,3.5-9.2-.5-12.8,1.6-2.6a13.2,13.2,0,0,0,1.1,3.2,3.7,3.7,0,0,0,1.7,1.8,2.6,2.6,0,0,0,2.4-.2c-.3,2.5.8,2.9,2.8,3.7s3.8,4.1,3.9,6.8c-1.9-1.6-2.7-.8-4.1.6s-3.3-.1-4.6-1.4a6.6,6.6,0,0,1-2.7-4.3c-.3-1.3-.6-3.1-1.9-3.8s-1.9.8-2.7.4-4.2-.5-5.9-2-3.8-4-7-4.2C14,724.7,5.6,722.4,8,714.5c1.5,2.8,9.8-3.6,7.1-7.5-1.5-2.2-1.7-3.9-2.2-6.4s-2.4-3.2-3.7-5,6.7-.5,7.8.1,8.3,6.1,10.8,4.8c-1.3-1.4-.1-3,1-4Z"
              transform="translate(-7.6 -21.2)"/>
    </g>

    <g data-item="04">
        <title>Северо-Кавказский Федеральный Округ</title>
        <path class="a"
              d="M119.8,878.9c-.9-1.8-1.3-3.8-1-4.2s5.5-4.1,11.6-8c10.7-6.9,10.9-7,12.6-5.1a6.1,6.1,0,0,0,3.7,2c3.5,0,2.4,3.8-1.5,5.6s-3.8,2.6-4.9,6.2l-1.6,4.6-7.1.7-8.7,1.1C121.9,882,120.8,881.1,119.8,878.9Z"
              transform="translate(-7.6 -21.2)"/>
        <path class="a"
              d="M130.5,923.4a57.2,57.2,0,0,1-.6-9.1c0-6.5-.2-7.1-5-14.4s-4.8-8-4.2-11.3,3-5.4,12.2-5.4c7.4,0,7.5-.1,9.9-6.4.9-2.2,2.5-4.4,3.7-5,4.3-2.1,5.3-3.7,5-7.2s-.7-3.7-3-3.9-4-1.9-8.5-9.3l-2.2-3.6,8.5-4.6,8.5-4.7,5.3,5.3c5.8,5.7,6.2,6.5,3.7,7.5-4.8,1.7-5.2,2.9-4.5,14.1s.8,11.4-6.7,21.2l-3.8,5-.3,15.7-.3,15.8-4.9,1.1a50.8,50.8,0,0,1-8.5,1.3c-3,.1-3.8-.3-4.2-2.2Z"
              transform="translate(-7.6 -21.2)"/>
        <path class="a"
              d="M115.5,870.9c-.4-1,.2-2.6,1.6-4s2.2-3.1,1.6-7.9l-.7-5.4h7.3c8.9,0,13.2.8,13.9,2.5s-3.7,4-20.8,15.1C116.4,872.4,116.1,872.4,115.5,870.9Z"
              transform="translate(-7.6 -21.2)"/>
        <path class="a"
              d="M94,845.4c-1-3.4-2.6-7.1-3.8-8.3l-2-2.2,4.9-2.5,4.9-2.6,5.3,3,11.9,6.4,6.6,3.5-2,3.4c-2,3.3-2,3.4-7.7,2.8a26.3,26.3,0,0,0-10.6,1.1,48.1,48.1,0,0,1-5.3,1.7C95.9,851.6,95,848.9,94,845.4Z"
              transform="translate(-7.6 -21.2)"/>
        <path class="a"
              d="M84.2,831.8c-2.3-1.8-14-20.4-13.3-21.1a39.7,39.7,0,0,1,5.2-2.5l4.8-2.1,3.1,3.7,3.2,3.7,3.3-1.7c4.4-2.2,5.2-2.1,7.1,1.2s1.6,2.8,0,3.8-1.6,1.4,0,5.5l1.6,4.5-3,1.2a41.1,41.1,0,0,0-6.2,3.6c-3.3,2.2-3.4,2.2-5.7.3Z"
              transform="translate(-7.6 -21.2)"/>
        <path class="a"
              d="M106.2,864.6c-6.5-1.7-7.5-2.7-9.3-8.6-.5-1.9,0-2.3,4.5-3.4a48.3,48.3,0,0,1,9.7-.9l4.4.4.3,5.7c.3,5.2-.8,8.8-2.7,8.5l-7-1.8Z"
              transform="translate(-7.6 -21.2)"/>
        <path class="a"
              d="M123.3,850.7c-2.8-.3-2.8-.8-.3-4.5s2.6-4.8-1.7-6.8c-2.1-1-7.3-3.8-11.8-6.2-7.4-4.2-8-4.8-8.9-8.9s-.8-4.2.7-4.2c3.2,0,3-1.9-.5-7.1-2-2.9-3.6-6-3.6-7s1.8-5.8,4.1-7.7,2-1.7.3-7.1-1.7-5.6-.1-8.1,2.4-2.5,4.3-2.4a11,11,0,0,0,5-1c2.1-1.2,2.7-1,6.4,2.8s4.7,3.9,5.9,3.5,1.9-.1,2.3,1.4,1.3,2.2,4.6,2.2,4.2.2,7.9,6a35.2,35.2,0,0,1,5.1,12.1,61.9,61.9,0,0,0,4.6,13.1c4.5,9.2,6,14.3,4.3,15.8a68.3,68.3,0,0,1-8.1,4.8c-8.9,4.7-9.6,5.3-9,7.8s.1,2.1-4.6,2.1A60.3,60.3,0,0,1,123.3,850.7Z"
              transform="translate(-7.6 -21.2)"/>
    </g>

    <g data-item="05">
        <title>Приволжский Федеральный Округ</title>
        <path class="a"
              d="M418.1,835c-4.7-3-6-3.4-7.4-2.4-5.1,3.7-5.9,3.7-10-.3s-4-4.7-4.5-8.7c-1.2-8-6.5-11.5-13.7-8.7-2.8,1.1-2.6,1.2-9.8-7.3l-2.5-3-8.2,1.7c-4.5,1-8.8,1.8-9.5,1.8s-1.7-1.8-2.3-3.9a18.5,18.5,0,0,0-2.8-6.1c-1.6-1.9-2.1-2-4-1s-2.6.9-3.1.6-1.6-4.6-2.6-9.7a97.4,97.4,0,0,0-2.6-10.8c-.5-1-2.9-2.6-5.3-3.7-4.3-2-4.4-2.1-4.4-6.8,0-6.4-1-7.2-8.4-6.4l-6.1.5-.6-3.2c-1-4.6-1.1-4.5,3.3-5.8a12.6,12.6,0,0,0,6.2-4.2c1.4-1.9,5.1-4.3,10.1-6.7,6.8-3.3,9-4.8,16.1-12.6,4.4-4.9,8.1-9.8,8.1-10.8s1.4.2,3.5,3.4,3.5,5.7,3.6,12.3.6,8.7,4.7,19,4.6,12.1,3.9,16.2c-1.2,6.4-.6,7.4,4.1,6.8,2.2-.3,4.1-.2,4.4.3s-1.3,6-3.2,7.4-1.4,1.5.5,4.5,2,3.7.7,6.2c-2.5,4.6-1.9,6.1,2.3,6.8s8.9.8,11.1-.6,2.5-.7,5.8,2.7,6.1,4.2,9-1.4c1.1-2.2,2.8-4,3.7-4,4,0,14.1,2.4,14.1,3.4a28.1,28.1,0,0,1-1.7,5.7l-1.7,4.6,5.5,8.2c8.4,12.7,8.2,12,4.6,16-1.7,2-3.6,3.6-4.1,3.5s-3.8-1.6-6.9-3.7Z"
              transform="translate(-7.6 -21.2)"/>
        <path class="a"
              d="M395.3,799.1c-3.3-2.7-4-3-6.2-2s-9.5,1.6-10.5.6-.1-2.1.5-4a8.2,8.2,0,0,0,.1-5.5c-.7-1.6-.5-3.7.8-7.5,2.6-7.9,2.6-8.1-3.1-8.1h-4.8l.5-5.2c.5-4.6,0-6.4-4-15.9S364,739.7,364,735s.4-6.5,4.6-12.8,4.8-8.4,5.2-11.6l.5-4.6,7.4-2.3c8.9-2.8,9.7-3.4,8-6.5s-1.1-4.5,5.5-7.1l6.1-2.3,2.5,3.3c2,2.7,3.4,3.4,7.4,4s7.4,2.7,11,9.8a8.5,8.5,0,0,0,4,3.8,18.7,18.7,0,0,1,4.4,2.8c3.8,3.4,15.3,9.2,17.3,8.7s2.5.9.1,7.7l-1.8,4.9-5.6.3c-5.9.3-10-1.4-13.9-5.7a5.7,5.7,0,0,0-3.2-2c-2.5,0-12.1,7.1-12.1,8.9s5.1,13.7,6.8,14.2c6.7,2,16.2,3.6,20.1,3.4s5,.1,5.3.4-.5,2.7-2,5.1c-2.5,4.2-2.7,4.3-5.5,3.4a11,11,0,0,0-5.2-.5c-2.6.7-12.5,9.9-12.5,11.6s-2,6-4.5,11.9c-3.6,8.5-4.9,10.8-6.6,11.1s-3,1.7-4.1,4-2.4,3.8-3,3.7-2.7-1.4-4.7-3.1Z"
              transform="translate(-7.6 -21.2)"/>
        <path class="a"
              d="M254.6,767a27.3,27.3,0,0,1-1.7-5.2,109.3,109.3,0,0,0-4.2-12.6c-3.1-8-3.9-9.3-6.2-9.8s-3.4-1.8-4.7-4.3-3-4-5.3-4.4l-3.3-.6v-8.6c0-5.5-.4-9.3-1.2-10.2s-4.6-2.3-8.8-3.4c-6.8-1.7-7.7-2.2-9.1-5s-1.3-3.8-.4-5.5a18.7,18.7,0,0,0,1.4-6.1c.3-3.9.5-4,7.7-7.7,4-2,7.9-3.7,8.5-3.7s2.8,1.8,4.9,4,6.9,6.7,10.6,10c6.1,5.4,7.5,6.2,15.4,8.3s9.6,3.2,12.5,5.7a25.6,25.6,0,0,0,8.2,5l5.9,2.3c3.9,2,19.3,35.8,16.9,37.2s-21.3,4.1-29.8,5-9.4,2.2-11.2,7.6c-1.2,3.7-4.7,4.7-6.2,2Z"
              transform="translate(-7.6 -21.2)"/>
        <path class="a"
              d="M302.9,743.7c-2-6.4-9.5-21.8-12.2-25.3-.8-1-.4-1.5,1.3-1.9s2.2-.9,1.5-7.5c-.8-8.4-.6-8.6,9-8.6,6.6,0,7.2.2,12.2,4a63.3,63.3,0,0,0,5.7,4,56.4,56.4,0,0,0,5.5-4.4l5.2-4.4,2.2,3c2.5,3.5,4,3.7,6.5,1s3.7-2.6,6.6.3,2.9,4.2,3.8,8.3l1.3,6.1-7.3,8.2c-8.7,9.7-7.7,8.9-15.7,12.3a33.9,33.9,0,0,0-10.5,6.9c-2.6,2.6-5,4.2-6.4,4.2a20.2,20.2,0,0,0-4.3.5C305.5,750.9,304.9,750.1,302.9,743.7Z"
              transform="translate(-7.6 -21.2)"/>
        <path class="a"
              d="M359.1,718.2c-2.3-3.3-4.4-5.6-4.9-5.3s-3-5.3-3-8.1-6.2-6.2-7.9-6.2a9.1,9.1,0,0,0-3.8,2l-2.7,2.1-2.2-2.8c-1.3-1.6-2.3-3.3-2.3-3.9s-1.1-2.1-2.3-3.3a16.7,16.7,0,0,1-3.6-6.1c-1-3.5-1.5-3.9-4.3-3.9s-4.6-.6-6.9-4.1-2.5-2.8-6.8-3-5.3-.8-5.5-1.8.6-1.6,2.5-1.6l7.5-.2,4.8-.2-.4-4.1-.3-4.1,5.4-1.8,14.5-4.6,9-2.9,3.6,2.4c2.4,1.7,4.2,2.2,5.9,1.8s2.8-.2,5.1,12.8c.8,4.3,4,12.1,5.2,12.8s4.7-.8,9.5-2.4,9.1-2.7,9.5-2.5.8,4.4-2.1,7.7-3.7,5.2-.5,6,5.7,5.5,3.5,6.3l-7.4,2.6-5.9,2.1-.5,4.5a24.7,24.7,0,0,1-4.2,10.2c-2,3-3.9,5.5-4.1,5.5a39.4,39.4,0,0,1-4.4-6Z"
              transform="translate(-7.6 -21.2)"/>
        <path class="a"
              d="M283.7,711.8a37.6,37.6,0,0,1-8.8-4l-4-2.6,5.7-5.1,5.8-5.1-1.3-5.9a40.7,40.7,0,0,1-.9-9.8l.3-4,5.3-.3c4.8-.3,5.3-.6,6.3-3.3s1.6-2.9,2.2-2.9c2.3,0,5.3,3.1,5.6,5.6s1,2.8,1.8,2.9c11,1.5,10.9,1.5,12.3,4.3s2.2,3,5,3,3.7.4,5,3.7a24.9,24.9,0,0,0,3.6,6l2.2,2.3-4.6,4.4-4.7,4.4-5.2-4c-4.9-3.7-5.7-4-11.7-4a47.9,47.9,0,0,0-10.2,1.1l-3.8,1,.6,6.8c.8,7.7,1.1,7.5-6.6,5.4Z"
              transform="translate(-7.6 -21.2)"/>
        <path class="a"
              d="M426.8,705.6c-.6-.4-2.6-3.2-4.3-6.1s-3.4-5.5-3.5-5.7a52.4,52.4,0,0,0-5.6-1.2c-4.1-.8-5.9-1.8-8.1-4.2s-6-9.6-5.4-10.2l4-1.8c2-.8,3.7-2.1,3.7-2.9s1.8-5,4-9.5,4-9.6,4-12c0-5.9,1.1-9.7,3.5-12.1a24.1,24.1,0,0,0,3.7-5.1c1.4-2.6,1.4-3.4.1-6.9s-1.3-4,.9-5.8c3.8-3,10.4-9.3,11.2-10.5s-1.9-3.7-4.9-6.8c-5.4-5.8-5.5-5.9-5.2-11.2s.5-5.2,3.2-5.6a34,34,0,0,1,6.2.3c2.8.6,3.8,1.5,5.5,5.3s2.4,4.6,10.4,7l8.1,2.4,9.9-1.8c11-2.1,12.3-1.9,26,3.1,4.1,1.5,7.6,3.4,7.6,4a16.9,16.9,0,0,1-2,4.9,17,17,0,0,0-2,6.3c0,4.5-14.3,20.6-20.2,22.6l-3.7,1.2.5,4.6a29.4,29.4,0,0,0,2.3,8.2c1.6,3.4,1.6,3.8.1,6.1a11.7,11.7,0,0,0-1.7,5.4c0,2.7-.5,3.1-5.6,4.9s-8.2,4.1-8.2,7.8-.1,2.4-5.9,1.8l-5.8-.7-2.5,4.9-2.6,4.9-5.6.3-5.7.3-1.5,6.8c-1.5,6.7-2.5,8.2-4.4,6.7Z"
              transform="translate(-7.6 -21.2)"/>
        <path class="a"
              d="M259.5,699.7c-9-2.6-9.6-3-18.5-11.1-5-4.6-9.5-9.1-9.8-9.8a2.2,2.2,0,0,1,.9-2.5c1.3-1,1.5-3.2,1.3-12.9l-.3-11.8,2.7-1c3.9-1.4,14.7,5.8,19.2,12.8s4.5,6.6,6.9,4.8,2.6-1,7.3,1.1c8.2,3.7,8.6,4.3,9.2,15.5l.4,9.6-4.5,4a28.8,28.8,0,0,1-5,3.9l-9.7-2.7Z"
              transform="translate(-7.6 -21.2)"/>
        <path class="a"
              d="M385.6,688.3c1.7-1.8,2.2-3.6,2.2-7.4,0-6.2-.1-6.2-11.7-2.5-8.1,2.7-8.3,2.7-9.7.8s-1.8-4.4.7-10.9c1.4-3.9,2.6-5.4,3.9-5.4s3.7-1.8,4.4-6.9,1.4-6.4,5.8-6.4,4-.3,8.5-7.4,4.9-8.4,15.8-3.2l7.4,3.7-.3,6.9c-.2,4.3-.9,8-2,9.9a62.7,62.7,0,0,0-4,8.4c-1.9,4.5-2.9,5.6-6.2,7.1s-4,2-3.4,4c1.9,5.8,1.4,6.9-4.9,9.3s-9.4,3.1-6.6.1Z"
              transform="translate(-7.6 -21.2)"/>
        <path class="a"
              d="M271.4,667.6c-6.1-3-8.5-3.7-9.3-2.9s-2.4,1.5-5.2-3.4c-1.8-3.1-4.7-5.9-9.4-9l-6.9-4.5,3.8-4,7.1-7.9c5-5.5,6.2-5.9,12-4l4.8,1.6v6.9c0,5.8.5,7.6,3.1,12.2,1.7,3,3.4,5.6,3.9,5.8s4-1.1,7.8-3,7.3-3.4,7.5-3.4a17.1,17.1,0,0,1,2.4,4l2.1,4-3,5.9-3,5.9h-4.7c-3.4-.1-6.9-1.2-12.8-4.1Z"
              transform="translate(-7.6 -21.2)"/>
        <path class="a"
              d="M298.7,667.9c-2.9-2.4-3.1-2.9-2.2-5.6s.7-3.6.2-4.3c-1.5-2.4-1-3.4,2.4-4.8s3.2-2,3.5-6.6.4-5.2,3.8-5.8,5.8,0,9,.8l5.7,1.4,1.8,5.3c.9,3,2,6.1,2.3,7.1s-.8,2.4-5.2,4.4-5.7,3-5.4,5.9-.1,3.9-7.4,4.4c-4.4.4-5.5.1-8.3-2.2Z"
              transform="translate(-7.6 -21.2)"/>
        <path class="a"
              d="M362.6,667.7c-.3-.7-1.7-8.2-3.2-16.5s-3.4-15.8-4-16.4-16.8-5-19.1-4.5a13.7,13.7,0,0,0-4.1,2.3c-1.6,1.2-3,1.9-3.2,1.7a21.6,21.6,0,0,1-1-4.9c-.5-4-.3-4.7,3-8.1s4-3.6,5.1-3.3l3.9,1.1c1.7.5,3.5-.1,6.2-2.1s3.9-3.1,3.9-3.5-2.4-2.8-5.3-5-5.4-4.7-5.4-5.4,2.1-2.5,4.6-4.1c4.2-2.8,5.6-3.1,11.9-3.1H363v-6.3c0-5.3.4-6.5,2.5-8.5s2.5-3,2.5-3.7a22.3,22.3,0,0,1,2.1-5.5c1.7-3.2,1.9-4.4,1-5.8s-.3-2.2,5.8-5.2a54.8,54.8,0,0,1,7.8-3.5c.5,0,1.7,1.2,2.6,2.7s1.7,3,.1,9.1-2.7,7.5-5.3,10.2l-3.6,3.8,1.1,5.1c2,9.6,4.3,16.6,5.6,16.6s3.6-2.1,6.4-4.4l5.3-4.4,7.6,2a60.6,60.6,0,0,0,12.3,2c4.7.1,5.1.3,9.9,5.6l4.9,5.5-6.9,6.3-6.8,6.3,1.6,4.3c1.6,4.2,1.6,4.2-1.4,8.3a24.9,24.9,0,0,1-3.4,4,40.9,40.9,0,0,1-5.2-2.5c-8.6-4.3-15.1-6.5-16.5-5.3s-3.1,4-5.2,7.8c-4,6.7-4.1,6.8-8.7,7.1l-4.7.3-1.3,6.1c-1.1,4.8-1.8,6.2-3.2,6.2s-3.6,1.6-4.4,5.1-2.3,4.4-2.9,2.6Z"
              transform="translate(-7.6 -21.2)"/>
        <path class="a"
              d="M328.2,656.3c-.2-.5-1.5-4.2-2.7-8.5s-2.9-7.8-3.9-8-4.1-1-7.3-1.6l-5.7-1.2.3-5.5.3-5.4,4.4-1.3c3.8-1.2,4.7-1.1,6.6.1a9.1,9.1,0,0,0,3.6,1.5c1,0,1.7,1.8,2.1,5.9.8,6.9,1.7,7.2,7.5,3.1l4-2.9,8.1,1.9a77.8,77.8,0,0,1,8.4,2.3,64.7,64.7,0,0,1,1.8,8.5c1.3,7.3,1.3,8.5,0,9.8s-1.8,1.2-4.2-.7a19.6,19.6,0,0,0-4.2-2.4c-1.2-.2-12.1,2.8-17.1,4.7a1.7,1.7,0,0,1-1.9-.3Z"
              transform="translate(-7.6 -21.2)"/>
        <path class="a"
              d="M273.2,650.3a32.1,32.1,0,0,1-3-12.1l-.5-7.3-6-1.8c-6-1.8-10.1-5.3-9-8.1.3-.6,6.8-4,14.5-7.5,11-5,14.3-7,15.4-9.2s1.5-3.1,6.4-1.6,4,.9,6.6-1.3,4.3-2.6,11.3-3.1c4.6-.3,9.3-1.1,10.5-1.9s2.7-1,6.7,1.2a125.2,125.2,0,0,1,12.3,8.8c7.7,6,7.8,6.3,6.1,8.2s-5.1,1.9-9.6.2c-.8-.3-3.5,1.7-6,4.4l-4.6,4.9-2.7-2c-2.5-1.9-2.8-1.9-9-.2l-6.4,1.8-.3,6.7c-.3,6.4-.4,6.7-3.2,7.7s-3,1.4-3,6.2-.3,5.3-2.6,6.5-2.7,1.2-3.9-.3-2.3-2.2-9.6,1.3a49.1,49.1,0,0,1-7.2,3c-.6,0-2.2-2.2-3.5-4.7Z"
              transform="translate(-7.6 -21.2)"/>
        <circle class="b" cx="350" cy="670" r="16px" />
    </g>

    <g data-item="06">
        <title>Уральский Федеральный Округ</title>
        <path class="a"
              d="M527,782.8c-10.6-1.2-15.3-1.3-18.3-.5s-6.6.6-15-.7c-6-.9-11.4-2-11.8-2.4s.6-2.3,2.1-4.2,2.5-4,2.2-4.7-3.5-2.1-7-3.1-6.5-2.1-6.5-2.4,5.9-9.7,9.3-12.9,3.6-3.6,3.6-10.9v-7.6l3.5-1.6a16.1,16.1,0,0,1,5.8-1.7c4,0,11.6,3.2,13.1,5.5s3,3,6.7,0,6.7-2,5.8,3.2,5.2,17.7,9.3,18.5,11,4.3,12.6,7.1a52.3,52.3,0,0,0,5.9,6.7c5.7,5.3,6.2,7.6,2.5,10.3s-7.1,3.1-23.8,1.4Z"
              transform="translate(-7.6 -21.2)"/>
        <path class="a"
              d="M509.1,733c-1.4-2.1-11.1-5.8-15.2-5.8a18,18,0,0,0-6,2.1l-4,2.2-3.9-2.7c-2.2-1.4-4.4-2.6-5-2.6s-4-1.3-15.9-6.6c-2.1-.9-3.3-2.1-3.3-3.3,0-2.9-1.8-3.4-5.8-1.6l-3.8,1.7-6.5-3.6c-7.1-4-7.1-4-5.2-11.9l1.1-4.9,5.4-.5c5.3-.5,5.4-.6,7.8-5.2s3.1-5.2,9-3.9,5.8.6,6.5-4,.2-3.8,11.1-8.3c2.8-1.2,3.2-1.9,3-4.6a11,11,0,0,1,1.5-5.7c2.2-3.1,2.1-5-.3-9.6s-2.6-7.9.8-9.3,9.8-8.2,16.4-16.1a20.8,20.8,0,0,0,4-7.9c.8-4.6,3.2-9.6,5-10.7a3.2,3.2,0,0,0,1.4-2.6,7.3,7.3,0,0,1,1.4-3.7c1.4-1.9,1.5-1.8,2.5,1.1,1.8,4.9,2.6,5.8,7.3,8.4s5.5,4,10.2,11.8l5.6,9.2-2.2,9.3L530,653l2.2,4.3c2,4.2,2,4.6.6,10.5l-1.6,6,3,2.5a17.6,17.6,0,0,0,3.6,2.5,11.2,11.2,0,0,1,3.5,2.5c2.3,2.2,2.7,3.3,2.7,8.2.1,3.1.7,6.7,1.5,8.1s1.5,4.7,1.5,7.5v5l-3.7.6c-5.7,1-9.7.8-10.9-.5s-8.2,12.9-8.2,18.6c0,2.4-.2,4.3-.5,4.3a18.2,18.2,0,0,1-3.6-1.6c-2.8-1.4-3.1-1.4-6.2,1.1l-3.3,2.5-1.4-2.1Z"
              transform="translate(-7.6 -21.2)"/>
        <path class="a"
              d="M565.8,782.2c-8.4-2.9-9.3-3.4-10.3-6.3s-2.8-4.6-4.8-6.3a21.5,21.5,0,0,1-5.1-5.6c-1.7-3.5-8.2-7.8-12.8-8.5s-4-1.2-6.7-6.6c-3.5-7.1-3.7-8.7-1-12.1,1.4-1.8,2-4,2-7.6a21.2,21.2,0,0,1,2.5-9.9c2.7-5.2,3.5-5.5,15.3-6.2l4.4-.2.3-5.2c.3-4.8.5-5.1,2.9-5.1a20.6,20.6,0,0,0,6.6-1.9,87.5,87.5,0,0,1,12.8-4c9.9-2.4,18.5-7.5,20.4-12.1.6-1.5,1.6-2.7,2.2-2.7s5.3,2.4,10.6,5.3c9.5,5.4,9.6,5.5,15.1,14.6a145.5,145.5,0,0,1,7.5,13.7c2,4.4,2.3,4.6,11.2,7.7,5,1.8,9.6,3.6,10.1,4s-1.6,2.4-4.4,4.2c-5.3,3.4-5.3,3.5-12.2,2.5a161.6,161.6,0,0,1-21.4-3.9c-3.3-.9-3.9-1.6-5.8-6.9s-2.7-5.8-3.9-5.8-3.6,3-6.5,7.6c-4.5,7.2-4.8,8.1-4.8,14.4s.9,8.5,5,8.6,4.1,1.8,4.8,7.5l.7,4.9-5.5,1.3-5.6,1.2-5.6,11.4c-3.6,7.2-6.1,11.2-7.1,11.2s-5.6-1.5-10.6-3.2Z"
              transform="translate(-7.6 -21.2)"/>
        <path class="a"
              d="M641.5,721.9c-8.8-3.3-11.8-5-11.8-7.1s-3.1-6.2-6.8-12.4l-6.7-11.3-11.2-6.4c-10.3-5.8-11.3-6.2-12.2-4.5-4.7,8-11.1,12.1-23.2,14.9a89,89,0,0,0-12.4,3.9c-5.1,2.7-7.1,2.1-9.4-2.9a25.6,25.6,0,0,1-2-9.7V681l-5.4-3.7c-5.9-4-6.1-4.5-4.3-12.1,1-4.2.9-5.2-1-8.6l-2.2-3.9,2.1-9.3,2.2-9.3-6.2-10.5c-5.4-9.3-6.7-10.7-10.6-12.4s-4.7-2.8-5.8-5.5c-2.4-5.6-1.9-9.6,3-21.8s5.6-13,14.9-20.1c3.1-2.4,3.6-3.4,3.6-6.7s.7-4.7,4.3-8.6,4.5-4.5,6.8-3.3,3,1,9.7-3.8c4-2.8,8.2-5,9.5-5s2.3.4,2.3,6.2-.6,7.3-3.1,11.9l-3.1,5.6,3.6,4.7,3.5,4.7,10.7,1.3c6.6.8,12.5,2.1,15.7,3.5,4.9,2.3,5,2.4,4.9,6.5s.1,4.4,4.7,7.1l4.8,2.9,7.2-2.2,7.3-2.2,4.7,4c4.2,3.6,4.7,4.3,5.2,9.3.3,3.4,1.9,8.1,4.3,12.9l3.9,7.7h6.3c6.1,0,6.5.1,13,5.3s7.4,5.4,15.4,6.8l8.7,1.6,6.9,7.5,6.9,7.4h19.1l5.6-4.6,5.6-4.6,5.6,6.1c5.3,5.7,5.9,6.1,10.1,6.1s5.8.9,10.3,3.5l7.4,4.3c.9.5,1.4,1.8,1.2,3.4-.6,4.8,3.3,11.3,8.6,14.6,2.8,1.7,4.7,3.6,4.4,4s-14.1,9.7-16,9.7a6.1,6.1,0,0,1-3.7-2,5.9,5.9,0,0,0-3.1-2c-.7,0-4.7,2.1-8.9,4.6l-7.5,4.6-7.3-3.8c-7.2-3.8-7.5-3.8-14.7-3.2s-7.4.7-8.5-1.9a5.8,5.8,0,0,0-3.3-3c-4.1-.8-20.1-1.4-21-.7s-2.9,5.4-5,11.2c-5.5,14.7-5.5,14.7-10,14.7s-4.2.5-10,7.3c-3.5,4.1-7,7.4-7.8,7.4s-5.3-1.5-10-3.2Z"
              transform="translate(-7.6 -21.2)"/>
        <path class="a"
              d="M758.9,654.6c-5.6-3.4-8.7-4.4-11.7-4.4s-4.5-.6-9.1-5.5c-7.4-8-7.4-8-14-2.4l-5.7,4.9H701.3l-6.6-7.3-6.6-7.3-9-1.7c-8.3-1.7-9.6-2.3-15.7-7.1s-7-5.2-13-5.3h-6.2l-3.8-8.1c-2.4-5.3-3.7-9.6-3.7-12.2s-.5-4.5-5.1-8.7c-2.9-2.5-5.9-4.4-6.8-4.4a42.6,42.6,0,0,0-7.9,1.9l-6.1,2-4.1-2.5c-3.8-2.2-4.1-2.8-4.1-6.5,0-6.3-5-8.8-21.8-10.8-10.1-1.2-10.2-1.2-12.5-4.7s-3.1-4.8,0-10.2c2-3.6,2.5-5.6,2.5-11.9v-7.6l3-.6c1.6-.4,5.1-2.7,7.8-5,4.5-4.1,5.6-4.5,13.6-5.9,11.9-2.1,11-1.7,18.8-9.1,5.1-4.9,7.4-7.9,8.3-11s1.1-4.4-.2-5.1c-4.3-2.7-4.3-2.5-.6-8,2.1-2.9,3.7-5.8,3.7-6.4a31,31,0,0,0-2.6-6.2c-2.6-5.1-2.6-7.9-.1-7.9.7,0,5.6,6.6,11,14.8,6.9,10.5,10.3,14.8,11.6,14.8s3.1-1.8,4.9-4.7c3.9-6.1,4.3-8.4,2.4-11.5s-1.5-3.7-.9-8.1.7-5.6-3-8.7l-3.8-3.1,2.4-3a76.3,76.3,0,0,0,5.9-10.8c3.5-7.6,3.6-8,2.1-10.6-2.7-4.5-1.2-7,8-12.7,7.4-4.6,9.1-6.3,15.8-15.4,4.8-6.6,8.2-10.3,9.4-10.3s12.8,3.8,14.1,4.9.5,3,.1,5.8-1.7,6.3-7.4,13.5c-3.8,4.7-6.8,9.4-6.8,10.6a44.1,44.1,0,0,0,1.6,7.8c1.6,5.6,1.6,5.8-1,13.5-1.4,4.3-2.6,8.7-2.6,9.7s-1.6,6.5-3.5,12.1-3.5,11.2-3.5,12.2,1.2,4.7,2.6,8l2.5,6-4,7.6c-2.3,4.1-4.4,7.6-4.9,7.6s-3.6,3.3-6.9,7.4c-5.8,7.2-6,7.4-10.5,7.4a51.2,51.2,0,0,1-11.2-2.1c-13.8-4.2-16.3-1.1-6.7,8.7,6.8,7,14.1,11.1,19.8,11.2s17.4-5.8,21.7-11.3a51.7,51.7,0,0,1,9.7-8.6l5.8-4V517.2c0-12.6.5-13.8,6.6-14.9s8.3,1,10,7.5c3.3,13.2,3.1,12.8,5.9,12.8a15.1,15.1,0,0,0,6-2.1l3.3-2-.7-7.1a60.1,60.1,0,0,0-1.5-9.2c-.5-1.2-3.9-4.2-7.5-6.9-5.6-4-7.8-4.9-13.6-5.8s-7-1.3-7.6-3.5c-1.7-6.2-1-9.4,4-17.3,2.8-4.3,4.9-8.3,4.9-8.9s-1.1-5.4-2.4-10.9c-2.8-11.1-2.5-12.3,3.6-17.9s12.1-9.5,12.4-8.5-1.3,5.1-3.2,10.4a88.5,88.5,0,0,0-3.6,10.5c0,2.2,18.9,12.9,22.8,12.9,2.3,0,4.7-2.6,4.8-4.8,0-.7-2.9-4.5-6.4-8.5s-6.4-7.9-6.4-8.7c0-2.7,2-3.1,4.3-.8s4.6,2.6,7.6,1,2.4-3.2-.7-8.4c-2.1-3.6-2.4-4.6-1.4-5.9,3-3.5,7.1-.3,4.6,3.7-1,1.6-.9,2.2.3,3.2a53.1,53.1,0,0,1,5.9,5.9l4.2,4.7-4.5,4.6c-2.6,2.6-4.6,5.1-4.6,5.7s2,3.4,4.4,6.1c4.7,5.1,5.1,7,3.4,13.1-.9,2.9-2.8,5-7.9,9s-6.9,5.7-7.2,6.4,4,8.2,9.5,15.1c2.7,3.4,2.8,3.4,6.9,2.3,2.4-.7,4.5-.9,4.9-.5a49.4,49.4,0,0,1,3.3,7.9l2.5,7.1-4.9,9.8-4.9,9.7,1.1,7.8a38,38,0,0,0,4.1,13.2c2.7,4.7,3.1,6.6,3.5,14.8.5,10.2,1.3,12.8,4,12.8s4.1,2.1,4.1,11,.7,10.7,7.4,12.2c4.9,1.2,5.4,2.2,5.4,9.8s-.2,7.4-4,12.8l-4.1,5.7,1.7,5.1a38,38,0,0,1,1.6,6.6c0,1.8-9.7,12.7-11.2,12.7s-4.6-2.1-8.8-4.4Z"
              transform="translate(-7.6 -21.2)"/>
        <path class="a"
              d="M425.7,806.7a9.2,9.2,0,0,1,.5-4.6c1.4-4,.3-5.4-5.1-6.3-7.5-1.2-7.9-1.8-5.3-7.1,1.3-2.6,3.4-7.4,4.6-10.9,2.9-7.9,9.6-14.6,13.6-13.6,6.7,1.7,7.4,1.4,10.8-4.8,5.2-9.7,4-13.2-3.8-11.5-3.4.7-6.2.5-12.6-.9-4.5-1-8.5-2.2-8.9-2.7a33.3,33.3,0,0,1-2.6-5.1l-1.9-4.2,2.5-1.9c4.2-3.4,6.4-3.4,10.5-.2s4.9,3.1,11.8,3.7c9.3.9,9.1,1,12.2-8.6,1.2-3.7,2.5-6.6,2.8-6.6,2.1,0,22.8,9.1,25.3,11.1s3,3.2,3.4,7.8.4,5.5-4.5,11.1-9.1,12.1-9.1,14.8c0,.9,2.4,2.1,6.4,3.2s6.4,2,6.4,2.2a33.9,33.9,0,0,1-2.1,4.2c-2.6,4.5-3.6,4.5-16.5-.2-9.2-3.4-11.5-3.1-14.5,1.5-1.5,2.4-1.5,3,.9,10.2s2.1,9.7-2.3,7.3-10.6-1.3-12.3.5-1.8,3.5-2.2,5.9-1.3,5.1-2.1,5.9-5.1,1.9-5.8,0Z"
              transform="translate(-7.6 -21.2)"/>
        <circle class="b" cx="655.8" cy="602.5" r="16px"/>
    </g>

    <g data-item="07">
        <title>Сибирский Федеральный Округ</title>
        <path class="a"
              d="M788.9,958.5c-2.7-.3-3.9-1.3-6.1-4.9a36.6,36.6,0,0,1-3.5-6.2c-.8-2.5-2.9-3-5.9-1.4s-11,1.8-15.3.6c-2.6-.7-16.1-18.7-15.2-20.2a4.6,4.6,0,0,1,2.9-.7c2,0,2.7-.8,3.7-4s1-4.2-.3-4.9c-5.4-3.2-5.3-3.3,3.4-6.1s8.5-3,12.4-8.6,5-6.5,11.2-5c4.3,1,5.1.3,6.2-5.3,1.3-7.4,1.4-7.5,10.3-5.5a60.5,60.5,0,0,1,8.8,2.5c1.6.9.3,3.7-3,6.5s-2.9,2.8-2.6,9.3l.3,6.9,4.3,1.3c3.8,1,4.7,1,6.5-.2s2.3-1.1,5.2,5.2c1.7,3.7,4,8.3,5.2,10.3l2.3,3.8-2.8,2.9-2.9,3,3.1,3.5c3,3.4,3.3,5.9.9,6.7-.7.3-4.9,1.3-9.5,2.4-7.3,1.7-8.6,2.3-11.3,5.5s-3.5,3.7-4,3.6l-4.3-.6Z"
              transform="translate(-7.6 -21.2)"/>
        <path class="a"
              d="M706.7,838.9l-10.2,4.2a86.9,86.9,0,0,1-21.2,5.9l-12.4,2.9c3,4.7,5.1,11.3,14.3,37,4,11.1,7.4,20,7.7,20s2.4-2.3,4.4-5c5.4-7.3,7.4-6.1,11,6.3l1.6,5.6h5c2.9.1,10.2.1,16.2-.1l11-.2,3.2,4.4c2.7,3.7,3.7,4.3,5.6,4a6.2,6.2,0,0,0,3.6-2.5c1.2-2.3.8-2.6-5.1-5.9-2.7-1.5-3-2.1-2-3.3a3.4,3.4,0,0,1,2.2-1.5c.6,0,4.7-1.2,9.4-2.6,8-2.5,8.2-2.6,12.7-8.9l4.5-6.4,5.3.5c5.1.7,5.2.8,5.8-2s1.3-4.6,2.1-6.9,1.3-6.1.8-12.3l-.7-8.3L772,852.9c-5.2-6.1-10-11.2-10.6-11.2a4.3,4.3,0,0,0-2.4,1.5c-2.2,2.7-4.4,3.4-13.8,4.4l-9.2,1-4.9,5.4c-2.8,3.1-5.5,5.4-6.1,5.3s-5.1-4.8-9.7-10.4l-8.6-10.2Z"
              transform="translate(-7.6 -21.2)"/>
        <path class="a"
              d="M1020.6,893.2c-.4-1.3-1.8-2.1-4.4-2.6s-3.9-1-3.6-2.9-11.9-11.5-17.4-11.5c-2.9,0-7.3-1.7-15.3-5.6-10.2-4.9-11.5-5.9-12.1-8.6-1.3-6.2-6.1-6.3-12.1-.2-4.2,4.3-4.3,4.4-6.7,2.9s-3-1.4-4.9-.5-3.6.6-12.5-4.4-10.9-5.6-15.3-5.7-5.4-.3-9.6-4.9a48.3,48.3,0,0,1-4.4-5.6c0-.3,2.3-2.1,4.9-3.8l5-3.4c0-.1.8-4.8,1.8-10.5,1.6-9.1,1.6-10.9.5-14.2s-2.1-3.4,6.9-13.9l3.9-4.5-3.2-8.1a72.1,72.1,0,0,1-3.1-9.5,34.5,34.5,0,0,1,3-7l3-5.8,5.6-.6c8.9-1,9.7-1.3,11.2-4s1.7-2.5,2.1-2.3,2.6,2.7,4.8,5.5c3.6,4.5,4.4,5.1,7.2,4.9s3.2-.4,3.3-5.8.5-6.2,7.6-17.1l7.6-11.5-1.5-3.7c-2.1-4.8-2-5.1,2-5.8s4.3,0,9.6,3.3,12.9,6.2,15.4,5.4c.6-.2,1.2-1.6,1.2-3.1a22.1,22.1,0,0,1,2-6.9c2.7-5.9,2.6-6.6-2-9.6s-4.5-3.7-2.5-7.3a19.2,19.2,0,0,0,1.5-7.6c0-4.9-.1-5.1-3.3-6.2a17.9,17.9,0,0,1-6-3.9c-2.5-2.7-2.7-3.2-1.7-6.7a31.9,31.9,0,0,0,1.1-7.1c0-2.6,1.1-4.6,4.3-8.4s4.3-5.5,6.1-16.3l1.8-11.2-3.8-3.2-3.8-3.1.8-10.6.7-10.6,6.7-4.5c6-4,6.8-4.2,7.7-2.8s.3,2.5-2.2,4.9-3.1,4.8,4.6,5.8l5.8.9,3.8,6.1c2.1,3.4,3.9,7.4,4,8.9s1.6,3.6,4.4,5.4,4,3.1,3.3,5.3a13.5,13.5,0,0,0-1,4.3c0,2.8,8.9,15.8,10.8,15.8,4.2,0,4.3.6,2.6,21.7l-1.8,20.1,3.9,3.3c5.8,5,6.9,5,11.7.6s17.6-13,19.2-13,2,1.5,3.5,3.5,3.2,3.5,3.7,3.5,2.5-2.1,4.4-4.6,3.5-5.4,3.5-9.3,1.2-7.3,5.3-16c5.2-11.2,5.3-11.3,9.1-12,9.1-1.5,10.4-1.1,16.7,5.3,3.3,3.3,6.3,5.9,6.9,5.8a26.4,26.4,0,0,0,4.9-1.9,19.1,19.1,0,0,1,5.6-2c1.7,0,16.7,18.4,17.4,21.2.2.9-1.7,1.5-7.2,2-8.7.8-9.4,1.5-9.4,9.8s2.8,13,6.9,13.9,5.2,4,4.7,8.8-4.1,6-11.1,7l-4.8.7,1.7-2.3c2.2-3.2,2.1-3.6-1.3-5.3s-3-1.4-7.9,2.6-5,4.7-5.6,8.5a14.7,14.7,0,0,1-3.7,7.8c-3.8,4.3-4.9,4.9-11.7,5.8s-5.5.7-6.6-2.4-2.4-3.9-6.2-1-3.2,2-7.2.6-6.1-1.3-7.1,2.8-1.9,4.3-8.5,4.4-8.7.6-8.7,3.5-1,3.8-6.4,6.7c-3,1.7-4,3-4.5,5.5s-.3,5.7,2,6.4a12.9,12.9,0,0,1,3.8,2.5c2,1.9,2.1,2.2.6,7.8s-1.5,6,1.7,15.6c1.8,5.4,3.6,10.2,4,10.7s1.1,10.4-.1,18.3c-.6,3.6-1.3,7.9-1.6,9.6s-3.6,6.6-10.8,14.8-10.8,13.1-11.5,15.3-4.1,7-7.9,11.2-6.8,8.3-6.8,10.3-.8,3.2-3.7,4.6l-4.3,2.2c-.4.2-.9-.5-1.1-1.6Zm13.5-27.4c3.5-4.1,8.5-17,7.8-19.7-.1-.6-.5-2.3-.8-3.9l-.7-2.8-8.8.3c-8.2.3-8.9.2-11.6-2.2-5.8-5.2-5.6-5.2-11-2s-6.3,3.6-11.8,1.7c-3.1-1.1-4.1-1.2-5.5-.2s-2.2,2.3,1.7,10.8l3.4,7.3,6.1.6c3.5.4,8.3.7,10.9.7,4.6,0,4.6,0,9.4,6.9,2.7,3.8,5.3,6.9,5.9,6.9s3-2.1,4.9-4.5Z"
              transform="translate(-7.6 -21.2)"/>
        <path class="a"
              d="M1027.5,865.6c-.8-.9-2.9-3.9-4.6-6.4l-3.2-4.6h-9.1c-5,0-9.9-.4-10.9-.8s-3.2-3.8-4.7-7.4c-3.3-7.7-2.6-8.8,4.1-6.1,4,1.6,4,1.6,9.4-1.5l5.4-3.1,4.9,4.1c4.4,3.7,5.2,4,7.2,3s4.6-1,7.6-.8c5.2.3,5.3.3,5.6,3.6s-3,14-6.4,18.4S1029.5,868,1027.5,865.6Z"
              transform="translate(-7.6 -21.2)"/>
        <path class="a"
              d="M800.5,909.6c-2-1-2.5-2.1-2.8-5.8s0-4.8,2.4-6.4c4.9-3.4,15.2-14,15.2-15.8a56.2,56.2,0,0,0-1.5-7.7c-2-8.3-1.9-10.3,1.1-14.1s2.6-3.5,1.1-7.2-1.3-4.5-.4-7.3c1.3-4.3.7-5-3.4-3.6-1.8.6-3.4.9-3.6.7s.5-2.4,1.4-4.8c1.7-4.5,1.7-4.6-.6-8.6s-2.3-7-.4-6.9,2.1,2.1,3.6,4.4c3.3,5,4.5,5.3,15.5,3,3.6-.8,6.8-1,7.2-.6s1.3,2.8,1.8,5.1,3.9,10,7.3,16.8,6.4,13,6.4,13.8-1.5,2.9-3.3,4.7a23,23,0,0,0-4.5,7.7c-.9,3.5-2.7,5.4-9.5,11.2s-8.6,7.9-9,9.7c-1.4,6.5-1.8,6.9-9,7.6-8.9.8-10.3,1.3-10,3.3s-2,2.5-5.1.9Z"
              transform="translate(-7.6 -21.2)"/>
        <path class="a"
              d="M804.5,887.7c0-1.5-2.2-2.2-12.9-4.5-5.3-1.1-5.6-1.4-6.2-4.7a77.1,77.1,0,0,1-.6-9.3c0-5.5-.1-5.8-6.1-12.8l-11.4-13.1-5.1-6-1.5-12.2c-.8-6.8-1.8-14.3-2.2-16.8l-.6-4.5,7.4-1.6a52.7,52.7,0,0,0,12.6-4.7c4.4-2.7,6.5-3.2,16.5-4,6.2-.6,11.4-.9,11.6-.7,5,6.3,9.4,13.5,9.4,15.6s-1.3,3.9-3.7,6.1a38.5,38.5,0,0,0-5.6,7.1c-1.9,3.5-1.9,3.5.5,7.9l2.3,4.3-2.2,5.3a31.7,31.7,0,0,0-2.2,6.6c0,1.3.3,1.3,6.3-.7,1.6-.4,1.8-.2,1.3,1.7a10.8,10.8,0,0,0,1,5.5c1.6,3.3,1.6,3.5-1.2,7.4s-2.8,4.2-1.6,9.7c2.7,12.2,2.7,12.8-.9,16.5s-4.9,4.2-4.9,2Z"
              transform="translate(-7.6 -21.2)"/>
        <path class="a"
              d="M878.7,282.8c0-.9.8-7.2,1.8-13.8,1.4-9.3,2.3-12.4,3.7-13.4s4-1.8,5.5,1.2,2,2.6,4.8,2.5,3.6-.1,6.5,6.6c2.3,4.9,2.8,7,2,7.7s-23.1,11.1-23.9,11.1-.5-.8-.4-1.8Z"
              transform="translate(-7.6 -21.2)"/>
        <path class="a"
              d="M861,264.8c-4.4-1-8.5-2.1-9-2.3s-1.6-3.1-2.6-6a21.1,21.1,0,0,1-.9-10.7c.9-4.7,1.1-5.1,4.7-6.3,6.1-2,14.1-1.8,17.2.5s2.7,2.3,3,13.2,0,11.3-1.4,12.3a7,7,0,0,1-2.3,1.2l-8.8-2Z"
              transform="translate(-7.6 -21.2)"/>
        <path class="a"
              d="M842.2,232.9c-2.7-3-2.9-3.9-2.2-6.6l2-7.4c1.1-4.3,5.2-10.2,7.2-10.2s8.5,11.1,9.2,15.5c1.1,7,.1,8.8-5.9,10.6s-6.8,2.1-10.3-1.9Z"
              transform="translate(-7.6 -21.2)"/>
        <path class="a"
              d="M954.8,487.1c3,.8,5.6,2.7,8.8,5.9l4.5,4.7,3.1,16.3c1.8,8.9,3.2,16.8,3.2,17.5s-1.6,3.1-3.5,5.3c-4.1,5.1-4.2,6.5-.6,9.2s2.9,3,3.5,8.3,1.4,7.4,5,12.9c2.5,3.7,4.4,7.3,4.4,8.2a18.2,18.2,0,0,1-2.1,5.6c-1.8,3.5-2,5.2-1.5,10.5.3,3.6.8,6.6,1.2,7s2.6.8,16,.9l9.6.2-5.8,3.9c-3.3,2.2-6.2,4.5-6.6,5.2s-.9,6.3-1,12.5l-.2,11.2,3.3,2.8c3.1,2.5,3.3,3,2.7,7-2.7,17.9-2.4,16.7-6.7,21.2s-4.3,4.9-4.9,10.5a82,82,0,0,1-1.4,8.3c-.8,2.7,4.3,8.8,9.1,10.8s4.2,4.2.8,10.8a29.7,29.7,0,0,0-2.5,5.4c0,.5,2.1,2.1,4.5,3.6s4.3,3.1,4,4.2l-1.8,5.1-1.5,4.6c-.4,1.5-2.9,1.5-6.2.2-1.3-.6-4.9-2.6-8.1-4.4-4.7-2.9-6.3-3.4-9.1-2.9s-6,1.2-6.7,2.1-.7,1.8,0,3.2c3.4,6.1,3.4,6.2-4.4,18-6.5,10-7.3,11.8-7.3,16,0,6.4-1.7,6.1-7.4-1.2-2.5-3.3-4.9-5.9-5.4-5.9s-2.1,1.6-3.7,3.6-3.4,3.7-9.8,4.2l-6.8.6-3.7,6.9a43.7,43.7,0,0,0-3.8,8.4c0,.8,1.4,5,3,9.3,3.4,8.7,3.8,7.6-4.2,16.8l-4.8,5.4,1.5,4.4c1.4,4,1.4,5.4,0,13.8l-1.6,9.3-5.2,3.7c-3,2.1-5.3,4.3-5.3,5.1s2.6,4.2,5.7,7.7,5.6,6.7,5.6,7-4.8,2.1-10.9,3.9l-10.9,3.2-.9,4.1c-.6,2.7-1.8,4.7-3.3,5.7s-4,4.4-6.1,8.1c-6.5,11.1-10.1,13.6-22.8,16.3-.8.2-4.9-.2-9.1-.8-6.3-.9-8.2-1.6-10.4-3.9l-2.8-2.8,5.6-5.1c4-3.6,5.9-6.3,6.6-8.9a25.5,25.5,0,0,1,4.4-7.8c2-2.3,3.6-4.7,3.6-5.5s-3.1-7.4-6.8-14.8-7.1-15.4-7.4-17.7c-1.3-7.1-2-7.5-10.3-5.8-10.6,2.3-12.1,2.1-14.7-1.7s-3.6-6-.3-9.1,3-3.7,3-7.2-.8-5.5-4.3-10.6l-4.3-6.2,1.8-2.8a7.5,7.5,0,0,0,1.3-5.7c-.4-2.6.3-4,3.6-8.2s4-5.8,4-9.1-.2-4-3.7-4.9c-13.2-3.5-12.1-2.9-12.1-6.8s.4-5,6.2-9,5.3-4.2,3.1-10c-1.5-3.8-1.8-4-5.8-4s-4.5-.4-9.4-6.4-5.7-7-19.6-8c-11.2-.8-13.1-2.1-10.2-6.6,1.9-3,1.9-3.1-.3-8.9-1.5-4.2-1.8-6-.9-6.3s16.5-11.4,17.3-12.5.9-2.4-5.5-6.1c-4.7-2.8-6.8-4.6-8.1-7.5s-1.8-4.6,7-14.1c5.9-6.4,6.2-7.7,3.9-14.7-1.6-4.6-1.6-4.6,1.2-8.6,4.8-6.7,5.3-8.1,5.3-15.9s-1.2-10.9-8.1-12.6c-5.2-1.4-4.7-.2-5.2-12.8-.1-3.1-.3-6-.4-6.7s-1.6-2-3.5-2.7l-3.3-1.4-.7-10.1c-.7-8.5-1.2-10.8-3.6-14.7a37.2,37.2,0,0,1-4-12.2c-1-6.7-.9-7.7.9-11.2s5.9-9.8,6.9-12.6.7-4.3-2.5-13.3l-3.7-10.1-3.6.7c-7,1.3-7.2,1.2-11.6-4.9a56.5,56.5,0,0,1-4.3-6.6c0-.4,2.7-2.6,5.9-4.9,6.2-4.5,8.5-8.3,9.5-16,.6-3.8.2-4.5-3.5-9-2.2-2.8-4-5.4-4-5.9s2.3-3.4,5-6.2l5-5.2,1.6,2.2c3.4,4.7,5.1,5.9,8.9,5.6l3.7-.3.3-6.1c.3-5.8.2-6.2-4.5-12.3a71.2,71.2,0,0,1-5.4-8c-.7-1.9,1.1-16.5,2.2-17.7s8.2-1.4,17.4-2.3c24.1-2.3,25.2-2.5,25.9-4.1s-.6-3.9-2-6.8l-2.6-5.2,4.1-6.1a106.5,106.5,0,0,1,9.3-11.9c4.4-4.7,6.8-6.2,17.2-10.9,8.6-3.9,12.3-6,13-7.7s9.1-7,11.5-7c.5,0,1.4,1.3,2.1,2.9,2.2,5.3,2.9,5.3,13.7.1l10.1-4.9-.3-3.7c-.3-3.4-.1-3.7,3.2-4.5,5.7-1.5,6.2-2.5,4.8-9.3l-1.2-5.9,4.8-7.7c2.7-4.2,5.7-8.3,6.8-9a8.1,8.1,0,0,1,8.7-.2c1.5,1.2,1.3,1.7-2.4,5.9-5.6,6.6-4.8,8.1,4,7.2,6.5-.7,6.8-.6,7.4,1.6a23.9,23.9,0,0,1,.6,4.4,3.6,3.6,0,0,0,3.6,3.4c.2,0,2.6-2.1,5.3-4.4l5-4.4h17.8l6.4,5.1c3.7,2.9,6.7,6.2,7,7.6s.7,7,.8,12.4v9.9l-6.5,9.9c-3.6,5.4-8.8,14-11.7,19.1s-7.1,12.4-9.6,16.3c-4.2,6.9-5.2,9.9-3.5,11s3.5.3,6.6-.1c5.3-.6,6.1-1.1,14.1-8.4,4.6-4.2,8.8-7.7,9.2-7.7s1.1.8,3.4,11.2c1.6,6.8,2.2,8.1,5.5,10.8s6.8,7.5,10.6,13c10.4,15.5,10.1,13.4,3.1,21.3s-7.4,9.3-8.4,20-1.4,10.2-6.2,9.8-4.1.2-10.9,7.2"
              transform="translate(-7.6 -21.2)"/>
        <path class="a"
              d="M659.6,766.2h-.2c-.5.3-1,2.1-1,3.8a8.3,8.3,0,0,1-2.5,5.6l-2.6,2.8,2.1,3.5c2.5,4.2,2,4.6-7,7l-6.5,1.7-2.2,7.6-2.2,7.5,3.4,4.9c3.8,5.2,3.8,5.7.2,13.8l-1.6,3.9,2.2-.5,7.1-1.9c3.8-1.1,4.7-1,5.7,0s1,1.9-.8,5a16.5,16.5,0,0,0-2.3,5.2c0,.7,2.9,4.4,6.2,8.6,1.6,2,2.9,3.4,4,4.9a65.3,65.3,0,0,1,13.9-3.5,85.3,85.3,0,0,0,21.2-6l10.4-4.4,5.4,6.1c3,3.4,7,8,9.1,10.2l3.7,4,5-5,5-5.2,8.9-.7c10.3-.8,14.7-3.3,14.7-8.2s-3.3-30.2-4-31.1-3.6.6-6.9,2.4-6.5,2.8-7,2.4-1.5-4.4-2.4-8.8-1.9-8.1-2.3-8.5-4.4-.1-9,.5c-7.4.9-8.4.7-9.6-.8s-3.8-2-8.1-2.7l-6.9-1-3.5-5.7c-1.8-3.1-4.6-6.4-6.4-7.6-3.4-2.4-30.5-10.2-33.5-9.8Z"
              transform="translate(-7.6 -21.2)"/>
        <path class="a"
              d="M606.8,833.6c-.3-.5-.3-2.5.1-4.4.8-4.2-.1-5.5-8-10.6-4.6-3.1-6.7-3.8-9.7-3.6s-4-.2-4.5-1.2-1.4-7.5-2.1-15l-1.2-13.5,4.8-9.7L591,766l5.9-1.5,5.9-1.5-.2-5.9c-.5-9.7-1.3-11.6-5.7-12.7s-4-1.3-4.2-5.5.4-5.5,3.1-9.9,3.7-5.3,4.1-5.1,1.6,2,2.4,4.1c1.4,4.2.8,4,14.4,7.3a120.7,120.7,0,0,0,14.6,2.1c8.2.6,9,.5,13-1.9a35.6,35.6,0,0,1,4.8-2.6c.3,0,0,1.6-.5,3.6s-.5,5,3.1,14.9c4.9,14,5.1,17.8.8,22.6s-3.2,3.7-1.5,6.5,1.5,3.3,1.3,3.7-3,1.3-5.9,2-6,1.8-6.7,2.5-2.4,4.8-3.6,9.3l-2.4,8.1,3.6,4.9,3.6,4.9-2,5c-1.1,2.8-1.9,5.7-1.7,6.5.6,3.7-28.3,9.6-30.4,6.2Z"
              transform="translate(-7.6 -21.2)"/>
        <path class="a"
              d="M741.2,799l-1.5-8.1h-9.4c-5.7,0-10-.5-10.9-1.2s-4.2-1.5-7.6-1.9c-6.8-.8-6.8-.8-11.1-7.5s-8.3-8.8-24.7-13.1c-7.9-2.1-14.8-4-15.6-4.4s-3.2-5.6-5.2-11.6c-3.8-10.2-3.9-11-2.8-16s2.5-6.7,7.7-12.9,6.7-7.8,10.6-7.9c2.3,0,4.6-.6,5.2-1.4s3.1-6.5,5.5-12.9,4.6-11.9,4.8-12.1,4.4-.1,9.5.3c8.6.7,9.1.9,10.5,3.6l1.5,2.9,8.1-.7c7.9-.6,8.3-.5,15.2,3,4,2,7.8,3.7,8.5,3.7s4.4-2,8.2-4.4,7.1-4.1,8.5-3.4,1.8,1.4,1.8,1.9,1.1,1.4,2.4,1.9,3.3,2.7,4.4,5.5l2.1,4.6-2,2.8c-1.9,2.7-2,3.1-.6,5.7s2.6,3.4,17.8,4.7c7.8.6,7.9.7,11.9,5.1,7.8,8.7,8.3,9.1,12,9.1s3.7.4,4.4,2.5c1.5,3.9,1.4,4-3.9,7.3s-6,5.3-6,12.5c0,3,.3,3.4,4.2,4.3,9.7,2.7,12.1,3.7,12.3,5s-1.8,4.3-4.2,7.7c-3.9,5.2-4.5,6.7-4,9.3,1,5.7-.8,6.7-14.4,7.8-11,.9-12.6,1.3-17.7,4.2a50.3,50.3,0,0,1-13.1,4.7,72.9,72.9,0,0,0-13.3,4.5,42,42,0,0,1-6.8,3.1c-.5,0-1.5-3.7-2.3-8.2Z"
              transform="translate(-7.6 -21.2)"/>
        <path class="a"
              d="M819.3,938.9c-1.1-1.2-.9-1.9.9-3.8s2.7-4-.9-9.6A117.2,117.2,0,0,1,814,915c-2.8-6.5-2.4-7.1,4.5-7.1s7.5-1.7,8.3-7a12.5,12.5,0,0,1,2.5-5.5c1.9-1.6,2.1-1.5,5.3,1.6s4.1,3.4,12.3,4.2c16.6,1.9,25.5-2.3,33.3-15.5a48.3,48.3,0,0,1,6.8-9.1c2.1-1.9,3.4-4,3.4-5.5,0-3.2,1.3-4,7.9-5.9,17.4-4.9,17-4.7,16.5-6.7-.9-3.6,4.4-2.2,15.6,4,9.5,5.1,11,5.7,13.5,4.8s3.3-.7,4.2.2,1.2,1.5-.8,3.4-4.4,11.6-1.7,15.3a12.4,12.4,0,0,1,2,3.8c0,.5-3.1,5.2-6.9,10.7s-6.9,10-6.9,10.4,1.8,5,4,10.6a105.4,105.4,0,0,1,4,11.1c0,.6-2.2,2.2-4.9,3.6-4.7,2.4-5.5,2.5-24.1,2.5H893.6l-1.2-5c-.8-3.2-2-5.4-3.4-6.2s-8.3-2.3-15.9-3.6l-13.8-2.2L840.2,931c-10.5,5.2-19.2,9.5-19.4,9.5s-.9-.7-1.6-1.6Z"
              transform="translate(-7.6 -21.2)"/>
        <circle class="b" cx="939.3" cy="701.8" r="16px"/>
    </g>

    <g data-item="08">
        <title>Дальневосточный Федеральный Округ</title>
        <path class="a"
              d="M1341.6,795.1l-21.9-20.1c-22.3-20.5-21.5-20.1-28.2-20.7-4.8-.6-6.4-.4-8.6,1s-4,1.6-11.8,1c-10-.7-12.2,0-21.9,6.6-5.1,3.6-6.9,3.3-13-2.2l-4.4-3.9,1.8-3c2.4-4,2.2-5.3-1.1-7.8s-3.3-3.8-4.5-8.3c-3.2-11.5-3.7-12.6-5.4-12.6s-2.8,1.1-4,2.5-2.6,2.5-3,2.5-2-2.1-3.8-4.4-3.7-4.4-4.3-4.4-2.4,1.2-4,2.6c-3.5,3.4-5.8,2-5-3,.5-3,.2-3.4-4.5-5.9-2.8-1.5-5-3.3-5-3.9s2.3-2.8,5-4.6c4.7-3.2,5.2-3.3,9.1-2.4,6.4,1.7,19.1.8,26.5-1.8l6.6-2.2,4.8,3.2c5.9,3.8,7.3,3.9,14.7.6,4.5-2.1,6.8-2.5,10.4-2.1s5.1.2,12.8-4.9c5-3.4,11.1-6.4,15.1-7.6s7.2-2.9,7.9-4c3.9-7.1,5.9-9.4,9.2-10s6.7-3.4,11.8-7.3c11-8.7,12.6-9.5,16-8.3s4,6.1.4,15.3c-2.7,6.8-6.1,22.9-6.1,28.8,0,3.2.6,3.2,8.7.7a53.3,53.3,0,0,1,7.5-2c.7,0,2.3,1.8,3.5,4s2.7,4,3.3,4,5.2-3.2,10.4-6.9c8.5-6.5,9.2-7.2,9.2-10.4s.3-3.5,2.4-3.5,3.9-1.6,6.9-5.1l4.4-5,3.1,6.8c1.8,3.8,3.8,8.2,4.5,9.9l1.3,3.2-7.8,3.2c-4.3,1.7-7.9,3.7-7.9,4.2s1.4,2.5,3.1,4.2l3.1,3.2-2.5,2.2a10.8,10.8,0,0,0-3.2,6.2,51.7,51.7,0,0,1-3.7,10.2c-2.8,5.8-3,6.7-2.6,16.8s.6,11.2,3.1,14.9,2.9,4.2,7.9,4.2,5.4.2,10.4,5.2c2.9,2.9,5.1,5.8,5.1,6.5a68.7,68.7,0,0,1-2.1,9.1c-1.6,5.8-2.6,7.9-4,8.3s-6.1.1-11.1-.6c-8.5-1.1-9.3-1.1-13.9.9s-17.8,6.1-19.6,6.1-5.2-4.1-10.9-9.1Z"
              transform="translate(-7.6 -21.2)"/>
        <path class="a"
              d="M1417.8,814.3c-.9-.4-4-3.6-6.9-7-9.5-11.2-8.9-9.9-7.4-16.3a46.2,46.2,0,0,1,1.7-5.9c1.6-1.3,20.6-11.5,21.5-11.5a15.4,15.4,0,0,1,4.5,1.7c3.5,1.6,4,1.6,12.4-.6,4.8-1.3,9.1-2.2,9.4-1.9s-2.3,4.5-5.5,9.6-7.2,11.6-8.8,14.6c-3.3,6.5-13.2,16.7-16.9,17.5a8.9,8.9,0,0,1-4-.2Z"
              transform="translate(-7.6 -21.2)"/>
        <path class="a"
              d="M1595.9,479.1c-36.2-18.3-47.6-24.9-47.6-27.6,0-.3,3.4-4.2,7.5-8.7l7.6-8.2-1.3-5.9c-.7-3.2-1.8-6.6-2.5-7.5s-1.5-1.5-5-.1-4.1,1.5-6.6-.1-2.7-1.9-2.7-2.3,3.4-3.7,7.4-7.3c7.6-6.8,8.4-8.4,6-11.9-3.9-5.5-11.5-20.5-10.7-21,9.5-6.4,14.1-10.8,15.6-14.6a15.2,15.2,0,0,1,2.1-4.2,49.1,49.1,0,0,1,5.2,2.5,22,22,0,0,0,10.9,2.5c6.9,0,8.3,1.5,5.6,6.1s-2.1,5,.4,12.6,4,9.4,7.6,10.3c12,2.9,12.8,3.4,13.5,7.5s.3,4.3-2.4,7.4-3.1,4.2-3.1,9.2a41.7,41.7,0,0,0,.6,7.6c.3,1.1,4,4.2,8.4,7.1,8.7,5.8,8.3,4.8,7.9,18.2l-.3,8.6,3.9,4.2c7.9,8.6,12.1,16,14.1,25s2.5,11.5.4,11.5-20.1-9.4-42.7-20.8Z"
              transform="translate(-7.6 -21.2)"/>
        <path class="a"
              d="M1540.3,443.4c-5.2-5.8-5.6-6.7-7.6-15.5s-2.4-9.6-6.7-13.4l-4.5-4,1.7-7.1c2.1-8.5,2.9-5.4-10.6-43.6l-10-28.2-.7-12.6c-.9-14.7-1.3-15.7-10.6-22.3-3.6-2.5-7.5-5.4-8.9-6.5l-2.3-2,2.5-4.7c3.6-6.6,2.8-8.6-3.5-8.6h-4.8l-4.5,8.4c-3.3,6-4.4,9.1-4,10.7s3.6,4.5,7,7.4,6.4,6,6.4,7.1-.3,2-.7,2-3.9-3.1-7.7-6.8c-7.5-7.3-11.5-9.4-15.1-7.7s-3.3.7-6.1-6.5c-2-5.2-2.5-5.6-5.3-5.6s-4.7-.6-8.5-7.2c-2.8-5-3.6-5.7-7-6.3s-3.9-.9-3.9-3.3,3.2-7.6,11.2-15.2a67.7,67.7,0,0,0,9.1-10.9c2.5-4.1,3.5-5,6.2-5.3a5.3,5.3,0,0,0,4.9-3.2c1.4-2.4,2.9-3.1,8.3-4.3,9.9-2.3,9.8-2.3,14,5.4,2.1,3.9,4.3,7.2,5.1,7.5s3.6-1.3,6.1-3.5c4.5-3.8,5.2-4,12.1-4.2l7.2-.3,1.8-6.4a50.4,50.4,0,0,0,1.9-9.5c0-1.7,1.1-5.8,2.5-9.3s2.5-7.8,2.5-9.6v-3.3h5.7c3.1,0,6.1.3,6.7.7s4,11.2,7.7,24c4.3,15.4,7.5,24.8,9.5,28a26,26,0,0,1,3,5.5c0,.4-4,2-8.8,3.4s-9.2,3.2-9.7,3.8-1.5,6.2-2.1,12.3c-.9,9.3-.9,11.6.3,14.5,2.3,5.4,1.9,5.8-3.1,3.2-8.7-4.8-9.7-3.2-4.8,8.2a80.1,80.1,0,0,1,3.5,9.1c0,.5-1.8,3.2-4,5.9s-4,5.3-4,5.7c0,2.3,24.1,39.2,26.4,40.4s4,.6,6.7.3l4.9-.6-.2-3.7c-.2-3,.2-3.9,1.8-4.3s4.3.8,5.9,3.7c.6,1.2.3,3.3-1.1,7s-3.1,5.9-9.4,10.6c-4,3-7.4,5.9-7.4,6.6s3,6.4,6.5,12.8l6.5,11.7-2.8,2.4c-7.6,6.5-13.2,12-13.2,12.9s1.8,2.2,4,3.7c4,2.7,4,2.7,7.5,1s4.5-1.7,6.3,5.5l1.1,4.7-7.2,7.6c-4,4.2-7.4,7.8-7.7,7.9s-3.1-2.6-6.1-5.9Z"
              transform="translate(-7.6 -21.2)"/>
        <path class="a"
              d="M1469.9,803.1a15.7,15.7,0,0,1-1-8.9c.6-4.5.4-5.1-4.4-12.6a113.9,113.9,0,0,1-6-10.5c-.5-1.4-1.3-2.5-1.7-2.5s-4.9,1.3-10.1,3c-11,3.5-11,3.5-16,.9l-4-2L1417,776c-5.4,3.1-10.1,5.5-10.4,5.5s-.6-.7-.6-1.6-2.9-4.4-6.4-7.9c-6.1-6-6.7-6.3-11.3-6.3s-4.8-.3-6.7-3.8-2.2-6-2.5-12.5c-.4-8.4-.3-9.3,2.9-16.1,1.8-4,3.3-8.3,3.3-9.7s1.4-3.9,3.1-5.7,2.8-3.9,2-5.4a8.3,8.3,0,0,0-2.9-3c-2.3-1.4-1-2.5,6.2-5.4,3.3-1.3,6.3-3,6.7-3.8s-9.4-24.5-11-24.5-3,2.4-5.5,5.3-5.2,5.4-8.3,5.7-3.7.3-3.4,4.3.3,4.1-7.1,9.7c-4.1,3.1-7.9,5.5-8.4,5.5s-1.9-1.7-3-3.7c-2.4-4-3.4-4-13.1-.9-4.3,1.4-4.7,1.3-4.7-.2,0-4.6,3.3-19.4,6.1-27.2s3-9.4,2.2-12.3-1.5-3.9-5-5.1l-4.2-1.5-7.4,5.2c-4,2.8-7.8,5.1-8.3,5.1s-4-9.7-4-13.3a12.8,12.8,0,0,1,1-4.5c2-3.7.1-6.7-6.6-10.6l-6.3-3.7.7-4c1.1-6.5,1.1-6.7-2.9-9.3s-3.6-2.7-2.3-3.9,1.3-4.1.9-15.4l-.5-13.9,9.8-5,9.7-4.9-.2-5.9-.2-6,6.1-1.9,6.1-1.9.5-7.4.5-7.4,3.5-.4c6.8-.6,6.7-.8-5.2-16.2-6.3-8.1-7.6-10.4-8.5-15.2-1.4-7.3-1.5-6.6,2-10.7s3.4-4.9-1.1-12.3a70,70,0,0,1-4-8.3c-1.2-3.2-1.1-3.8.4-5.3s3.2-1.7,7.9-1.4a42.9,42.9,0,0,0,10.6-1.1c3.8-1.2,4.8-2.1,6.9-6l2.5-4.5h11.6l-.7-5.2-.6-5.1,4.8-3.8c4.8-3.7,5-3.8,9.6-2.7,7.1,1.6,12,4.5,15.2,9.2l3,4.3-2.9,4-2.9,3.9,2.5,3.7c2.8,4,4.7,4.4,8.3,1.7s4-2,14.6-2,12.1.2,12.1,1.4-2.2,2.1-5.1,3.1c-6.8,2.3-7.8,3.2-7.5,6.7s-.1,3.2-4,4.5-4.8,2.5-5.4,3.6-5.1,6.8-10.1,12.8-9.5,11.6-10.3,12.5-1,2.6,1,7.2,2.4,7.2-1.6,17.4l-1.8,4.5,3.7,5.9,3.8,6-3.1,12.2-3.1,12.3,1.6,13.8,1.6,13.9-4.5,21.3c-2.6,11.8-4.3,21.8-4,22.3s2.6,1,4.8,1,5.6-.9,10.8-4.4,7-4.4,7.5-4.4,2.9,2.2,5.2,4.9c4.9,5.7,8,6.5,7.9,2a24.2,24.2,0,0,0-.6-2.7c-.5-1.7-.1-2.5,1.5-3.4s4-.1,5.7,5.7c.8,3,1.7,4.2,3,4.2s11-9.1,11-11-1.4-3.7-3.2-6.6l-3.1-5.4,4.1-4c4-3.7,4.4-3.9,8.8-3.3,2.6.3,8.8.9,13.8,1.2,9.8.6,9.3.3,10.3,6.7.2,1.2,3.4,3.6,8.7,6.5l8.4,4.6,1.7,7.8c2.6,12.3,8.4,23.8,17.7,34.6a168.6,168.6,0,0,1,14.9,20.9l7,11.5.7,13.8c.4,7.7.3,14.3-.1,14.8s-3.9-1.2-3.9-3.5-10-9.8-12-9.8-10.8,13.3-10.5,15.2,1.9,3,4,4.1,4.4,2,6.9,1.3l3.4-.9a47,47,0,0,1,.2,5.9v5.9h-3.1a12.6,12.6,0,0,0-4.9,1c-1.9,1.1-1.9,1.3,1.2,6.6l3.2,5.5-4,3.8c-4,3.8-4.1,3.9-12,3.9h-7.9l-3.6,5.4c-3.7,5.8-4,7.3-2.4,9.1s.5,3.3-1,3.3-1.6-1.9-2.5-4Z"
              transform="translate(-7.6 -21.2)"/>
        <path class="a"
              d="M1388.1,471.8c-.9-2.1-.7-3,1.7-6l2.7-3.6-3.6-5.3a25.3,25.3,0,0,0-16.4-10.8l-5-1.1c-.9-.3-3.7,1.1-6.1,3.1s-5.1,3.3-5.6,3-1-2.2-1-4.1-1-4.5-6.8-10.6c-8.7-9-12-15.3-12-23.2v-5.8l6.5-3.4c3.7-1.8,6.8-3.9,7.1-4.5s-1.4-3.3-3.7-5.6l-4.1-4.1,5.7-5.1c4.1-3.7,6.3-4.9,7.7-4.5l4.6,1.1,2.7.6-.6-5c-.5-4.7-.4-5.2,3.4-9.7,2.2-2.7,4.2-5.3,4.6-6s-1.7-3.7-5.3-7.7l-6.1-6.5.7-4.7c.6-4.6.6-4.7-3-6.9s-3.5-2.7-3-4.3c1.8-5.7,1.7-6.2-1.4-8.5s-3.1-2.5-3.1-3,3-2.7,6.5-5,6.9-5.2,7.4-6.5,1.6-2.3,3.8-2.3,3.6,0,5.3-7.8c1.4-5.7,1.3-6.2-.5-8.5s-1.8-2.4.1-3.5,2.2-.6,3.3.7a32.2,32.2,0,0,0,5,4.2l3.7,2.8,9-3.4c5.5-2.1,10.5-4.6,12.7-6.7s4.8-3.5,9.1-4a19.7,19.7,0,0,0,8.8-3.1c5.2-3.9,7.3-3.3,11.6,3.6,3.2,5.1,4,5.9,6.7,5.9s4.3.8,6.7,7a34.8,34.8,0,0,0,2.9,6.2c1.3,1.7,1.5,1.7,4.5.1s3.4-1.5,6.3.4a70.7,70.7,0,0,1,9.1,7.9c3.3,3.3,6.4,6,7,6s6.3,23.4,6.3,27.1c0,.9-4.6.6-7.6-.5s-4.6-3.3-7-5.9-5.1-4.8-6.2-4.8-4.2,3.6-9.6,11.6c-4.2,6.4-8,12.3-8.3,13.2s.4,5.7,8.6,32.4c5.3,17.3,8.5,24.1,12.8,27.7,1.4,1.2,2,1.1,4.4-.8s4.9-2.7,4.9-1.1-2.2,3.6-4.7,6.7c-4.1,5-5,7-7.5,16.5-3.4,12.7-4,14.3-6.3,14.3s-4-1.3-2.9-5.7.4-6.1-3.8-6.1c-2.6,0-24.2,12.6-24.9,14.6s.2,3.8,1.2,6.6,1.5,5.6,1.1,6.2-2.2,1.5-4,2.2-3.5,1.5-3.5,2-5.3,1-12.1,1c-10.5,0-12.5.3-15.1,2s-4.2,2.5-5.6-.5Z"
              transform="translate(-7.6 -21.2)"/>
        <path class="a"
              d="M1378.1,286.4c-4.3-3.7-4.9-4-7.3-2.9s-2.9.8-6.4-2.6l-3.8-3.8-7.9.3-8,.3-3.9-4.2c-3.8-4-4-4.6-4-10.6s.3-6.6,3.5-10.5,3.5-5.1,3.5-7.8.9-4.7,3.2-7.5,3.1-3.9,1.2-5.9c-3.6-4-10.8-8.5-17.2-10.8-3.6-1.3-6.8-2.7-7.3-3.2s1.6-6.8,9.7-18.1,9.5-13.4,9.5-16.7a4.5,4.5,0,0,1,1.2-3.3c.7-.4,6.1-1,12.1-1.4s11.2-1.2,12-2.1,2.6-14.2,1.1-16-3.6-1.6-8.5-1.8-8-.8-10.6-2.8-3.3-3.1-3.3-3.8,10.9-21.2,17.1-31.1c3.1-4.9,14.5-15.6,28.4-26.4s47.7-33.6,49.8-33.6a33.3,33.3,0,0,1,7.4,2c3,1.1,6.3,2,7.4,1.9,2.7,0,12.7-7.1,13.2-9.3s-1.3-3.3-9.5-4-8.8-1.8-5.7-4.3c.8-.7,2.4-4.1,3.5-7.8,2-6.5,2-6.6,10.1-11.9,4.3-3,8.7-5.5,9.6-5.7s3.2,1,5,2.6l3.5,2.9-1.8,6.7c-3,11.6-3.5,11.1,14.6,14.2,6.4,1.1,12.3,2.5,13,3.1,3.3,2.8,0,9.8-4.5,9.8s-4.7,1.1-10,8.2c-4,5.4-4.3,5.8-7.5,5.3s-4,0-8.2,3.4-5.5,4.7-6.5,11.3-.7,7.4-9.7,6.7-11,0-10,7.5c.4,2.7,1.2,5.6,1.8,6.4s4.7,2.1,10.9,3,10.2,1.8,10.6,2.3,1.8,4.3,2.9,8.7l2,7.8-4.3,6.4c-5.4,7.8-4.9,9,3.8,9,5.3,0,6.7-.5,11.2-3.5s6.3-4,14.1-2.4c4.8,1,6.1.9,11.5-1,7.9-2.8,10.4-2.7,13.6.7l2.8,2.9-7.4,7.9-7.4,7.9,3.9,15.6c2.2,8.6,3.8,16.2,3.5,16.9s-2.6,1.4-7.5,1.4h-6.9v4.4a32.6,32.6,0,0,1-2.5,10.4,30,30,0,0,0-2.5,9.1,43,43,0,0,1-1.3,8.2l-1.3,4.9-6.9.5c-6.1.4-7.4.9-10.7,3.7s-4.1,3.3-4.8,3.3-2.9-3.2-4.9-6.9c-4.1-7.9-4.3-7.9-14.9-5.4-8.6,2-9.1,2.2-10.3,4.8s-2.2,2.6-4.8,3-4.1,1.4-7.6,7.1a52.2,52.2,0,0,1-9.1,11c-8.1,6.9-10.3,10.6-10.3,17.3s-1.7,8.3-10,9.3c-4.1.5-6,1.3-9.2,4.2s-16.4,8.9-19.9,8.9c-.5,0-3.2-1.9-5.7-4.1Z"
              transform="translate(-7.6 -21.2)"/>
        <path class="a"
              d="M1342.5,81.2c-3.3-3.6-3.7-4.5-3.7-9.4s.3-5.4,2.3-6a21.2,21.2,0,0,0,4.8-2.6,9.8,9.8,0,0,1,3.7-1.8c2.6,0,.2,22.5-2.5,23.4-.6.2-2.7-1.5-4.6-3.7Z"
              transform="translate(-7.6 -21.2)"/>
        <path class="a"
              d="M1475.5,920c-.9-.6-.2-2.8,2.7-8.2s4-7.9,4-8.6-2.9-5.8-6.4-11.5c-4.4-7.2-8-11.5-11.9-14.5s-5.4-5-5.4-5.9,3-11,4.1-12.4,3.9-1.6,7.5-2.3c7.9-1.3,12.1-2.8,12.1-4.3a24.9,24.9,0,0,0-1.4-5c-.8-2.2-1.7-8.7-2.1-14.3-.5-7.8-1.3-11.8-3.1-15.7-2.5-5.5-3-8-1.6-8a6,6,0,0,0,2.6-1.4c1.8-1.2,1.8-1.5.2-3.8s-1.5-2.7,1-7.1l2.6-4.5h15.2l5.4-4.8,5.3-4.8-2.7-5.5-2.7-5.4,3.7-.3c2.9-.3,3.8-.8,4.2-2.8,1.1-3.9,1-13.6-.1-14.3s-2.6-.2-4.5.4a7.6,7.6,0,0,1-6.4-.5c-1.6-.8-2.9-1.8-2.9-2.3s1.8-3.4,4-6.4l4-5.6,4.5,3.3c3.3,2.4,4.7,4.1,4.9,6s1.2,3.1,3.6,4,3.4,2,3.9,5.1,1.6,7.6,2.7,12.2c2,7.6,2.2,12,2.7,49.4l.5,41-6.3,13.8-6.3,13.7-12.2,3.7c-6.6,2.1-12.6,4.1-13.3,4.7s-1.5,4-1.8,7.9a48.8,48.8,0,0,1-2.4,11.4c-1.5,3.7-2.4,4.5-4.3,4.5a10.6,10.6,0,0,1-3.7-.8Z"
              transform="translate(-7.6 -21.2)"/>
        <path class="a"
              d="M1177.9,704.2c-6.9-5.2-7.6-6.2-10.8-14.7-1.9-4.7-5.4-9.9-18.8-26.6l-2.7-3.4-6.2,2.7-6.2,2.7-6.2-6-6.3-6-7.2.6a78.7,78.7,0,0,0-8.8,1.2c-.8.2-4,5.6-7.1,12-4.2,8.8-5.8,13.1-6.2,17.8s-1.3,6.7-2.6,7.9-2.1,1.6-4.6-1.7-3.3-3.2-4.3-2.7c-3.1,1.1-17,10.8-20.5,14.2l-3.6,3.4-3.1-2.7c-3.8-3.1-3.9-3.9-1.6-26.3.9-8.7,1.3-16.4,1.1-17.1s-2-1.6-3.7-2-4.1-2.3-7-6.1-4-5.9-3.5-9.3a35.8,35.8,0,0,1,1.2-5.2c.4-1.1-.7-2.4-4-4.3s-4.4-3.5-4.5-4.5-3.8-9-7.6-14.2a8.6,8.6,0,0,0-6.3-3.9c-3.7-.6-3.9-.7-2.3-2.4s1.4-2.4.5-5.1c-2.1-6.1-3.2-6.5-17.9-6.9l-13.3-.2-.3-4.7a19.1,19.1,0,0,1,1.8-9.2,25.6,25.6,0,0,0,2-6.5c0-1.1-2.1-4.8-4.5-8.3-3.7-5.1-4.6-7.5-5.3-12.6-1.1-7.2-1.8-9.5-3.1-9.5s-1.8-3.2,1.2-7.2l3.2-4.5L975,514.1l-3.6-18.6-5-5-5-5.1,5.6-5.6c5.3-5.3,5.9-5.6,9.5-5.2,5.2.8,6.3-1,7.7-12.1.7-5.2,1.5-10.2,1.8-11.2s3.4-5,6.8-8.9,6.3-7.9,6.3-8.8c0-2.8-15.2-24.8-19.8-28.7s-4.4-4.2-6.4-13.3c-1.2-5.2-2-10.3-1.8-11.1s6.4-5.9,8.2-5.9,1.9,1.8,3,4c2.7,5.2,4.9,5.1,7.7-.5s4.7-6.8,14.9-9.4c8.3-2,10-2,10,.4s5.8,6.5,8.5,6.5,7.6-2.2,14-4.8,12.5-5.1,13.7-5.4c3.3-1.1,3.5-3.2.8-9.2s-3-8.1-1.1-10.8,2.5-1.8,8.9-1.6,7.7.2,11.1-2.8,3.9-3,4.2-3,5.4,4,11.1,9.1c7.8,7.1,9.7,9.2,8.2,9.5s-4.3,2-4.3,3.2,3.5,3.3,7.6,6.4c6.7,5,9.4,6.3,20.9,10.1,17.7,5.6,17.8,5.5,12.6-9.9-2-6.1-3.7-12-3.7-12.8s1.3-1.6,9.2-1.4l9.1.2,2-5.7c1.1-3.1,2.6-5.8,3.4-6.1a45.3,45.3,0,0,1,7.4-1.2c7.8-.8,9.7-1.8,9-4.5s.5-3.2,4-6.5,4.4-4.6,4.4-5.1-3.1-3.3-6.9-6c-7.1-5.1-7.5-5.7-8.2-13.9-.5-5.5-.1-6.1,8-10.7,17.8-10.1,29.3-17.3,35.3-22.2s7.1-5.4,10.8-5.1,4.2.1,2.9,6.8c-.3,1.6,0,2.8.9,3.1s33.2-6.2,35.2-7.5,4.9-8.2,9.6-17.3l8.4-16.6,7.9-4.1c7.8-4,8-4,13.5-3.1s6.2,1.8,7.9,3.8a13.4,13.4,0,0,1,2.3,3.5c0,.3.9.9,2,1.3,3,.9,13.6-6.7,15.4-11.1s1.5-3.9,11.6.2c5.9,2.4,13.5,7.8,13.5,9.5a9.4,9.4,0,0,1-2,3.6,10.4,10.4,0,0,0-2,5.4c0,3.5-1.3,6-5,10.5-2.6,2.9-2.9,3.9-2.9,10.3s.4,7.6,2,9a9.7,9.7,0,0,1,2.5,3.6c1,3.2,7.6,5.2,14.6,4.4l6.3-.7,5.4,6,5.5,6.1-1.2,5.1c-1.1,4.7-1.4,5.1-4.5,5.6s-3.5,1.1-4,2.9-3.1,4-8.1,7.4-7.6,5.6-7.6,6.5,1.5,2.5,3.5,3.8,3.5,2.7,2.9,4.4c-1.9,6-1.8,6.4,1.9,8.7s3.7,2.5,3.1,6.8-.5,4.6,4.8,10.4c3.1,3.3,5.5,6.4,5.5,7s-1.8,3.2-4,5.7-4,5-3.7,8.1.4,3.5-2.9,2.9-4-.1-10.2,5.4c-3.9,3.4-6.9,6.6-6.9,7.3s1.6,2.7,3.5,4.5,3.4,3.8,3.2,4.2-2.9,2.3-6.1,4l-5.9,3.2-.3,6.4c-.4,9.1,3.5,17.2,12.1,25.4l6.2,6,1.4,8.2c2,11.8,2.2,11.3-3.5,11.3s-4.9,0-7.2,4.5-6.2,7.1-17,6.9c-7.3-.2-7.6-.1-9.3,2.7a13.8,13.8,0,0,0-1.7,4.3c0,.8,2.1,5.2,4.5,10l4.4,8.6-3.1,3.9-3.2,3.9,1.6,7.4c1.4,7,2.1,8.2,9.5,17.6s8.5,11.7,3.4,11.8c-2.3,0-3.4,3.5-3.4,11.4v4l-6.1,2-6.2,2,.3,5.9.3,5.9-9.7,5.1-9.7,5,.4,14.3c.3,13.7.2,14.3-1.8,15.4s-2.5,3.7,2.2,6.2,4.3,2.6,3.3,9.4l-.7,4,6.4,3.8c3.6,2.1,6.7,4.3,7,5.1s0,3-.7,4.8-.9,4.5,1,11.9c2.5,9.7,2.3,10.4-4.2,12.1-3.8.9-4.7,1.8-7.9,6.8s-3.9,5.9-9.2,7.1c-3.7.9-8.5,3.4-14.2,7.2-8.2,5.5-9,5.8-13,5.1s-5.4-.1-10,1.9c-7.2,3.3-8.2,3.2-14.3-.6l-5-3.2-8.2,2.7c-8.9,2.9-18.3,3.5-25.6,1.5-4.1-1.1-4.3-1.1-10.6,3.5a50.4,50.4,0,0,1-6.8,4.5,62.3,62.3,0,0,1-7-5Z"
              transform="translate(-7.6 -21.2)"/>
        <path class="a" d="M1144.9,282.8c-1-6.4-.8-7.2,3-8.7s12.3-1.6,12.9.2-8.8,8.7-13.2,11.1c-1.8,1-2.1.7-2.7-2.6Z"
              transform="translate(-7.6 -21.2)"/>
        <path class="a"
              d="M1105.9,265.3c-2.5-.8-4.8-1.8-5.3-2.4s-3.6-12.6-3.7-16.6c0-2.2.2-2.3,8.7-2l8.6.4-.3-3c-.1-1.7-.3-4.1-.5-5.4s.3-2.5,1.8-2.5,2.2,1,2.8,3.8,1.5,4.1,7.7,6.9l6.7,3.2-4.9,6.4c-10.5,13.5-11.9,14.2-21.5,11.2Z"
              transform="translate(-7.6 -21.2)"/>
        <path class="a"
              d="M1128,240.5c-7.6-4.1-7.2-9.5.8-10.8,3.2-.5,3.5-.3,4.5,2.7s1.5,10.9.4,10.8A31.2,31.2,0,0,1,1128,240.5Z"
              transform="translate(-7.6 -21.2)"/>
        <path class="a"
              d="M1144.5,226.2c-2.7-2.8-1.1-4.3,9.2-9.5,13.3-6.6,13.8-6.6,12.9-.2a46.5,46.5,0,0,1-1.2,6.2c-.3.8-4,2.1-8.1,3-9.1,2-11.3,2.1-12.8.5Z"
              transform="translate(-7.6 -21.2)"/>
        <path class="a"
              d="M1573.5,738.3a41.2,41.2,0,0,1-4.8-3.2c-3.8-3.3-13.3-16.7-17.9-25.1s-5.1-8.9-8.8-10.5-7.5-5.8-21.9-23.4l-17.7-21.4-8-3.8c-10-4.5-14.7-8.8-21-18.7-5.3-8.3-6-11.2-3.4-14s1.5-2.7.7-6.5-1.3-5.1-8.8-8.4c-3.4-1.4-3.9-3.5-1.2-5s2.7-.1,8.1,5.5c3.5,3.7,9.9,9.8,14.3,13.6s8.5,8.4,9.5,10.7,3.2,4.6,19.5,13.6c30.7,17.1,39.7,22.2,40.6,23.1s-1.7,2.1-5.6,3.9-6.9,3.7-7.2,4.4,1.8,6.7,4.5,13.1l7.6,17.2c2.9,6.5,3.7,6.9,24.2,13.7,12.7,4.1,19.1,7.9,13,7.8a66.5,66.5,0,0,1-8.3-.9c-4-.6-5.8-.5-6.7.4s-1.5,1,3.4,12.1c1.7,3.8.7,4.1-4,1.6Z"
              transform="translate(-7.6 -21.2)"/>
        <path class="a"
              d="M1013.4,916.4l-8.9-2.2-3.1-8.7c-1.8-4.7-3.4-8.8-3.6-9.1s-41.5-9.5-45-9.7-6.4-3-5.8-8.5c.4-3.1,1.2-4.9,2.9-6.1s2.5-1.9,7.3-7.5,7.5-5.3,8.3-.7c.5,2.7,1.7,3.6,12.8,9.1,8.5,4.1,13.5,6.1,16.2,6.1s5.6,1.2,9.6,3.8,5.7,4,5.5,6.7.1,3,3.3,3.3a7.9,7.9,0,0,1,5.6,2.9l2.2,2.7,4.5-2.3c5.7-2.9,7.4-4.6,7.4-7.7s2.1-4.8,6.3-9.6,6.8-8.7,7.4-10.6,8.6-12.4,20.9-25.9c1.1-1.2,2.1-5,2.8-10.9,2.3-19.8,2.4-22.1.8-24.6a72.7,72.7,0,0,1-4.2-11c-2.8-8.6-2.8-8.7-1.2-14.6s2.2-5.7-4.8-11.5c-3.4-2.7-2-5.8,3.8-8.8,3.5-1.8,4.8-3.1,5.3-5.2s.9-2.9,7.7-3.5,9.6-2,9.6-5.7c0-2.1,1-2.2,6.2-.8,3.2.9,4.1.8,5.5-.5s3.6-1.9,4.8,1,1.4,2.8,9.7,1.4c5-.9,7.1-1.9,10.7-5s4.5-4.6,5.1-8.5a11.1,11.1,0,0,1,4.2-7.9c5.2-4.8,8.1-4.1,4,1s-2.5,7.7,1.8,15.8c6.6,12.7,10.7,18.3,13.7,19a40.9,40.9,0,0,1,8,3.6c4.8,2.8,5.1,3.3,5.1,6.8s-.4,4-3,5-9.2,7.9-16.9,19.2c-3,4.2-5.8,8.5-6.5,9.4-2.1,2.8.7,10.2,4.4,11.9,5.5,2.5,5,6.2-2.2,14.8a34.5,34.5,0,0,1-11.2,8.9c-6.2,3.3-6.7,3.9-7.5,7.6s-1.8,4.8-4.6,7.2a26.1,26.1,0,0,0-5.9,7c-1.9,3.7-2.3,4-6.2,4s-5.2.7-8.4,3-4.7,2.9-6,2.5-9,2.4-9,4.5a12.3,12.3,0,0,0,1.1,4.1c1,2.1.8,3-1,5.4-3.1,4.3-2.7,6.7,1.5,8.9l3.6,1.8-3.5,2.4c-2.6,1.8-3.7,3.3-4,6.1s-1.3,4.4-11.8,2.1c-5.3-1.2-9.5-1.4-16.8-1l-9.8.7-7.7,5.4c-4.5,3.2-8.7,5.3-10,5.3s-6.3-1.1-11.3-2.3Z"
              transform="translate(-7.6 -21.2)"/>
        <path class="a"
              d="M1087.1,914.5c-3.5-2.8-4-3.7-3.8-6.6s1-4,4.3-6.4,4.1-3.6,4.1-4.3-1.7-2-3.9-3c-4.5-1.9-4.7-2.8-1.9-6.5s2.1-3.1,1.1-6.3-.9-3.8.6-4.8a6.2,6.2,0,0,1,4.5-.8c2.2.4,3.7-.1,6.7-2.5a16.7,16.7,0,0,1,9-3.8c4.5-.6,5.3-1,6.6-3.9a36,36,0,0,1,6.1-7.6c3.1-3,4.7-5.4,5.1-7.9s1.3-3.9,6.8-6.3,7.1-4.1,11.9-10.1,5.7-7.6,5.4-11.8-.7-4.6-3.5-5.9c-4.5-1.9-6.2-7.2-3.5-10.3a92.4,92.4,0,0,0,5.8-8c6.1-9.7,12.4-17.1,15.1-17.8s4.9-2.5,4.9-7.1-.6-4.8-2.4-6.6-10.6-6.5-12.8-6.5-14.9-20.4-15.6-25.7c-.3-2.2.2-2.5,6.2-3.6,11.7-2.2,15.3-5.2,14.2-12.1s-1.4-8-4.9-8.7-6.4-4.3-6.4-12.1.2-7,9.7-7h6.6l2,5c1.7,4.3,3.3,6.2,9.9,11.4a138.4,138.4,0,0,0,13.5,9.4c5.3,2.9,5.6,3.3,5.4,6.5s.3,3.7,3.5,5.5l3.7,2.1,2.4-2.2a9.7,9.7,0,0,1,3-2.2c.3,0,2,2,3.8,4.4s3.8,4.4,4.3,4.4,2.4-1,3.9-2.1,2.9-2,3.1-1.8,1.2,3.6,2.4,7.4,3.2,8.1,4.5,9.5l2.5,2.5-2.1,2.6c-1.1,1.5-1.9,3.3-1.7,4s3.2,3.7,6.6,6.5l6.2,5.2-5.5,5.5a30.7,30.7,0,0,0-7.9,12.2c-2.9,7.4-2.7,9.2,1.2,10.1,1.5.4,4.6,2.9,7,5.5l4.3,4.9-2.7,5.9c-2.6,5.7-2.7,6.4-2.4,20.6s.4,14.8,2.7,17.3,2,4.4-3,6.5c-2.2.9-3.7,2.7-5.3,6.5s-3.2,5.6-4.6,6.1a25.7,25.7,0,0,1-16.1.7c-7.5-2.3-8.8-2-11.9,2.5s-3.6,4.5-11.1,2.4-14.5-1.5-16.9,1a86.8,86.8,0,0,0-6.6,10.2c-4.7,8.2-5.5,9-17.4,17.7l-12.3,9.2-16.5,2c-22.3,2.8-23.3,2.8-28.3-1.2Zm80.9-39.7c7-2.4,10.9-4.6,17.8-10.4l3.5-2.9-2.6-2.8c-2.2-2.5-2.4-3.4-1.8-7.2s.4-4.7,0-5.1a37.3,37.3,0,0,0-7.1-2.1c-6-1.4-6.7-1.3-10.1.4s-3.7,2.6-3.7,3.9-1.2,2.5-3,3.5-4.9,4.1-4.9,7.2-4.6,6.2-9.3,5.6-4.2-.3-7.2,3.6c-1.8,2.2-3.3,4.6-3.3,5.2s8.2,2.4,22.4,3.4c1.1.1,5.3-.9,9.2-2.3Z"
              transform="translate(-7.6 -21.2)"/>
        <path class="a"
              d="M1148.2,874a61.9,61.9,0,0,1-8.7-1.3c-.2-.1.9-1.8,2.4-3.7s2.9-3.4,5.7-2.2,3.4,1,6.7-1.3,3.8-3.2,3.8-5.1,1.4-4.9,5.2-7.3c1.5-.9,2.7-2.5,2.7-3.5s3.8-4,7.2-4a30.2,30.2,0,0,1,6,1.1l3.8,1-.5,4.6c-.4,3.9-.2,5,1.6,6.9s1.8,2.5,1.1,3l-5.4,4.2c-4.3,3.6-17.5,8.9-21.1,8.6-1.1,0-5.7-.5-10.4-1.1Z"
              transform="translate(-7.6 -21.2)"/>
    </g>

    <g data-item="09">
        <title>Республика Беларусь</title>
        <circle class="d" cx="73.9" cy="465.8" r="16px"/>
    </g>

    <g data-item="10">
        <title>Республика Казахстан</title>
        <circle class="d" cx="520.1" cy="829.9" r="16px"/>
    </g>

</svg>