<?xml version="1.0" encoding="utf-8"?>
<!-- Generator: Adobe Illustrator 24.2.0, SVG Export Plug-In . SVG Version: 6.00 Build 0)  -->
<svg version="1.1" id="Слой_1" xmlns="http://www.w3.org/2000/svg" xmlns:xlink="http://www.w3.org/1999/xlink" x="0px" y="0px"
	 viewBox="0 0 18 18" style="enable-background:new 0 0 18 18;" xml:space="preserve">
<style type="text/css">
	.st0{fill:#0087C6;}
	.st1{fill:#FFFFFF;}
	.st2{fill:#222222;}
</style>
<path class="st0" d="M2,0C0.9,0,0,0.9,0,2v14c0,1.1,0.9,2,2,2h6.6h2.8H16c1.1,0,2-0.9,2-2V2c0-1.1-0.9-2-2-2H2z M2,2h14l0,14h-4.6
	v-4h2.4l0.4-2.7h-2.7V7.6c0-0.8,0.2-1.3,1.3-1.3h1.4V3.8c-0.7-0.1-1.4-0.1-2.1-0.1C10,3.7,8.6,5,8.6,7.3v2H6.3V12h2.3v4H2V2z"/>
</svg>
