<?xml version="1.0" encoding="utf-8"?>
<!-- Generator: Adobe Illustrator 24.2.0, SVG Export Plug-In . SVG Version: 6.00 Build 0)  -->
<svg version="1.1" id="Слой_1" xmlns="http://www.w3.org/2000/svg" xmlns:xlink="http://www.w3.org/1999/xlink" x="0px" y="0px"
	 viewBox="0 0 18 18" style="enable-background:new 0 0 18 18;" xml:space="preserve">
<style type="text/css">
	.st0{fill:#0087C6;}
	.st1{fill:#FFFFFF;}
	.st2{fill:#222222;}
</style>
<path class="st0" d="M5.4,6.3c0,1.6,0.6,3,1.5,4.1l-0.4,0.4H5.4L0,16.2L1.8,18l5.4-5.4v-1.2l0.4-0.4c1.1,1,2.5,1.5,4.1,1.5
	c3.5,0,6.3-2.8,6.3-6.3C18,2.8,15.2,0,11.7,0C8.2,0,5.4,2.8,5.4,6.3z M16.2,6.3c0,2.5-2,4.5-4.5,4.5c-2.5,0-4.5-2-4.5-4.5
	s2-4.5,4.5-4.5C14.2,1.8,16.2,3.8,16.2,6.3z"/>
</svg>
