<?xml version="1.0" encoding="utf-8"?>
<!-- Generator: Adobe Illustrator 24.2.0, SVG Export Plug-In . SVG Version: 6.00 Build 0)  -->
<svg version="1.1" id="Слой_1" xmlns="http://www.w3.org/2000/svg" xmlns:xlink="http://www.w3.org/1999/xlink" x="0px" y="0px"
	 viewBox="0 0 114 38" style="enable-background:new 0 0 114 38;" xml:space="preserve">
<style type="text/css">
	.st0{fill:#FFFFFF;}
</style>
<g>
	<g>
		<path class="st0" d="M38,28.5c0,5.2-4.3,9.5-9.5,9.5c-5.2,0-9.5-4.3-9.5-9.5c0-5.2,4.3-9.5,9.5-9.5C33.8,19,38,23.3,38,28.5z"/>
		<path class="st0" d="M25,5.9c0,3.2-2.6,5.9-5.9,5.9c-3.2,0-5.9-2.6-5.9-5.9c0-3.2,2.6-5.9,5.9-5.9C22.4,0,25,2.6,25,5.9z"/>
		<path class="st0" d="M7.2,16c0,2-1.6,3.6-3.6,3.6C1.6,19.6,0,18,0,16c0-2,1.6-3.6,3.6-3.6C5.6,12.4,7.2,14,7.2,16z"/>
		<path class="st0" d="M11.7,28.5c0,1.2-1,2.2-2.2,2.2c-1.2,0-2.2-1-2.2-2.2c0-1.2,1-2.2,2.2-2.2C10.7,26.3,11.7,27.3,11.7,28.5z"/>
		<polygon class="st0" points="9.5,28.5 16.8,5.9 21.6,5.9 		"/>
		<polygon class="st0" points="28.5,28.5 15.9,7.1 22.2,4.3 		"/>
		<polygon class="st0" points="3.6,16 28.2,24.8 25,31.6 		"/>
	</g>
	<g>
		<path d="M49.9,0.2c0.7,0,1.4,0.1,1.9,0.2s1,0.4,1.3,0.7c0.4,0.3,0.6,0.7,0.8,1.1c0.2,0.4,0.3,0.9,0.3,1.4c0,0.5-0.1,1-0.3,1.4
			c-0.2,0.4-0.5,0.8-0.8,1.1c-0.4,0.3-0.8,0.6-1.3,0.7s-1.1,0.3-1.8,0.3h-1.8v4h-1.7v-11H49.9z M49.9,5.8c0.4,0,0.8-0.1,1.1-0.2
			c0.3-0.1,0.6-0.3,0.8-0.5c0.2-0.2,0.4-0.4,0.5-0.7c0.1-0.3,0.2-0.6,0.2-0.9c0-0.7-0.2-1.2-0.6-1.6s-1.1-0.6-2-0.6h-1.8v4.4H49.9z"
			/>
		<path d="M66.6,5.7c0,0.8-0.1,1.6-0.4,2.3c-0.3,0.7-0.7,1.3-1.1,1.8c-0.5,0.5-1.1,0.9-1.8,1.2s-1.5,0.4-2.3,0.4
			c-0.8,0-1.6-0.1-2.3-0.4c-0.7-0.3-1.3-0.7-1.8-1.2c-0.5-0.5-0.9-1.1-1.1-1.8c-0.3-0.7-0.4-1.4-0.4-2.3c0-0.8,0.1-1.6,0.4-2.3
			c0.3-0.7,0.7-1.3,1.1-1.8c0.5-0.5,1.1-0.9,1.8-1.2C59.4,0.2,60.2,0,61,0c0.8,0,1.6,0.1,2.3,0.4s1.3,0.7,1.8,1.2
			c0.5,0.5,0.9,1.1,1.1,1.8C66.5,4.1,66.6,4.9,66.6,5.7z M64.9,5.7c0-0.7-0.1-1.2-0.3-1.8c-0.2-0.5-0.4-1-0.8-1.3
			c-0.3-0.4-0.8-0.6-1.2-0.8c-0.5-0.2-1-0.3-1.6-0.3s-1.1,0.1-1.6,0.3c-0.5,0.2-0.9,0.5-1.2,0.8c-0.3,0.4-0.6,0.8-0.8,1.3
			S57.1,5,57.1,5.7c0,0.7,0.1,1.2,0.3,1.8c0.2,0.5,0.4,1,0.8,1.3c0.3,0.4,0.8,0.6,1.2,0.8s1,0.3,1.6,0.3s1.1-0.1,1.6-0.3
			s0.9-0.5,1.2-0.8c0.3-0.4,0.6-0.8,0.8-1.3C64.8,6.9,64.9,6.3,64.9,5.7z"/>
		<path d="M76.6,8.8c0.1,0,0.2,0,0.2,0.1l0.7,0.7c-0.5,0.5-1,0.9-1.7,1.2c-0.7,0.3-1.5,0.4-2.4,0.4c-0.8,0-1.6-0.1-2.2-0.4
			c-0.7-0.3-1.2-0.7-1.7-1.2s-0.8-1.1-1.1-1.8C68.2,7.3,68,6.5,68,5.7s0.1-1.6,0.4-2.3c0.3-0.7,0.7-1.3,1.1-1.8s1.1-0.9,1.8-1.2
			C72,0.2,72.8,0,73.6,0c0.8,0,1.5,0.1,2.1,0.4c0.6,0.3,1.2,0.6,1.6,1l-0.6,0.8c0,0.1-0.1,0.1-0.1,0.1c-0.1,0-0.1,0.1-0.2,0.1
			c-0.1,0-0.2,0-0.4-0.1C76,2.2,75.8,2,75.6,1.9c-0.2-0.1-0.5-0.2-0.8-0.3c-0.3-0.1-0.7-0.1-1.2-0.1c-0.6,0-1.1,0.1-1.5,0.3
			c-0.5,0.2-0.9,0.5-1.2,0.8c-0.3,0.4-0.6,0.8-0.8,1.3c-0.2,0.5-0.3,1.1-0.3,1.8c0,0.7,0.1,1.3,0.3,1.8s0.5,1,0.8,1.3
			c0.3,0.4,0.7,0.6,1.2,0.8c0.5,0.2,1,0.3,1.5,0.3c0.3,0,0.6,0,0.9-0.1c0.3,0,0.5-0.1,0.7-0.2c0.2-0.1,0.4-0.2,0.6-0.3
			s0.4-0.3,0.6-0.4c0,0,0.1-0.1,0.1-0.1C76.5,8.8,76.6,8.8,76.6,8.8z"/>
		<path d="M88,11.2h-1.7c-0.1,0-0.2,0-0.3-0.1c-0.1-0.1-0.1-0.1-0.2-0.2L83,6.3c0,0.1-0.1,0.2-0.2,0.3L80,10.9
			c-0.1,0.1-0.1,0.1-0.2,0.2s-0.2,0.1-0.3,0.1H78l3.9-5.7l-3.7-5.3h1.7c0.1,0,0.2,0,0.3,0.1c0.1,0,0.1,0.1,0.2,0.2l2.9,4.3
			c0-0.1,0.1-0.3,0.2-0.4l2.7-3.9c0-0.1,0.1-0.1,0.2-0.2s0.1-0.1,0.2-0.1h1.6l-3.7,5.3L88,11.2z"/>
		<path d="M98.8,0.2v11h-1.7V3.6c0-0.2,0-0.5,0-0.7c0-0.3,0-0.5,0.1-0.8c-0.1,0.2-0.2,0.5-0.3,0.7c-0.1,0.2-0.2,0.4-0.3,0.6
			l-5.1,7.3c-0.1,0.1-0.2,0.2-0.3,0.4c-0.1,0.1-0.3,0.2-0.4,0.2h-1.3v-11h1.7v7.6c0,0.2,0,0.5,0,0.7c0,0.3,0,0.5-0.1,0.8
			c0.1-0.2,0.2-0.5,0.3-0.7s0.2-0.4,0.3-0.6l5.1-7.3c0.1-0.1,0.2-0.2,0.3-0.4c0.1-0.1,0.3-0.2,0.4-0.2H98.8z"/>
		<path d="M113.6,0.2v11h-1.5V3.3c0-0.1,0-0.2,0-0.4s0-0.3,0-0.4l-3.8,6.7c-0.1,0.3-0.3,0.4-0.6,0.4h-0.2c-0.3,0-0.5-0.1-0.6-0.4
			l-3.8-6.7c0,0.3,0,0.6,0,0.8v7.8h-1.5v-11h1.2c0.1,0,0.3,0,0.3,0c0.1,0,0.2,0.1,0.2,0.2l3.8,6.6c0.1,0.1,0.1,0.3,0.2,0.4
			c0.1,0.1,0.1,0.3,0.2,0.4c0.1-0.3,0.2-0.6,0.4-0.9l3.7-6.6c0.1-0.1,0.1-0.2,0.2-0.2c0.1,0,0.2,0,0.3,0H113.6z"/>
		<path d="M49.7,14.2c1.3,0,2.3,0.3,3,0.8c0.7,0.6,1,1.4,1,2.4c0,0.5-0.1,0.9-0.3,1.3s-0.4,0.7-0.8,1c-0.3,0.3-0.8,0.5-1.2,0.7
			c-0.5,0.2-1,0.2-1.6,0.2h-2.1V25h-0.8V14.2H49.7z M49.7,20c0.5,0,0.9-0.1,1.3-0.2c0.4-0.1,0.7-0.3,1-0.6c0.3-0.2,0.5-0.5,0.6-0.8
			c0.1-0.3,0.2-0.7,0.2-1c0-0.8-0.3-1.5-0.8-1.9c-0.5-0.4-1.3-0.7-2.4-0.7h-2.1V20H49.7z"/>
		<path d="M62.7,24.3l0,0.7h-6.7V14.2h6.7v0.7h-5.9v4.4h4.9v0.6h-4.9v4.5H62.7z"/>
		<path d="M73.6,25H73c-0.1,0-0.1,0-0.2-0.1c0,0-0.1-0.1-0.1-0.1l-1.3-3.1h-5.5l-1.3,3.1c0,0.1-0.1,0.1-0.1,0.1
			c-0.1,0-0.1,0.1-0.2,0.1h-0.6l4.6-10.8H69L73.6,25z M71.1,21.1l-2.3-5.5c-0.1-0.2-0.2-0.4-0.2-0.6c0,0.1-0.1,0.2-0.1,0.3
			c0,0.1-0.1,0.2-0.1,0.3l-2.3,5.5H71.1z"/>
		<path d="M83.7,25H83c-0.1,0-0.2,0-0.3-0.1s-0.1-0.1-0.2-0.2l-3.7-4.4c-0.1-0.1-0.1-0.2-0.2-0.2c-0.1-0.1-0.2-0.1-0.2-0.2
			c-0.1,0-0.2-0.1-0.3-0.1c-0.1,0-0.2,0-0.4,0h-1.4V25h-0.8V14.2h0.8v5h1.3c0.1,0,0.3,0,0.4,0c0.1,0,0.2,0,0.3-0.1
			c0.1,0,0.2-0.1,0.3-0.2c0.1-0.1,0.2-0.2,0.3-0.3l3.5-4.2c0.1-0.1,0.1-0.1,0.2-0.2c0.1,0,0.2-0.1,0.3-0.1h0.7l-3.8,4.6
			c-0.1,0.2-0.3,0.3-0.4,0.4c-0.2,0.1-0.3,0.2-0.5,0.2c0.2,0.1,0.4,0.1,0.6,0.3c0.2,0.1,0.3,0.3,0.5,0.5L83.7,25z"/>
		<path d="M92.8,14.8h-3.9V25h-0.8V14.8h-3.9v-0.7h8.7V14.8z"/>
		<path d="M103.3,14.2V25h-0.8v-8.9c0-0.2,0-0.3,0-0.5s0-0.3,0-0.5c-0.1,0.2-0.1,0.3-0.2,0.4c-0.1,0.1-0.1,0.3-0.2,0.4l-6.4,8.9
			c0,0.1-0.1,0.1-0.2,0.2c-0.1,0-0.1,0.1-0.2,0.1h-0.6V14.2h0.8v8.9c0,0.2,0,0.3,0,0.5c0,0.2,0,0.3,0,0.5c0.1-0.2,0.1-0.3,0.2-0.4
			c0.1-0.1,0.1-0.3,0.2-0.4l6.5-8.9c0-0.1,0.1-0.1,0.2-0.2c0.1,0,0.1-0.1,0.2-0.1H103.3z"/>
		<path d="M109.8,14.2c0.6,0,1.2,0.1,1.7,0.2c0.5,0.1,0.9,0.3,1.2,0.5c0.3,0.2,0.5,0.5,0.7,0.9c0.1,0.3,0.2,0.7,0.2,1.2
			c0,0.3-0.1,0.6-0.2,0.8s-0.3,0.5-0.4,0.7c-0.2,0.2-0.4,0.4-0.7,0.6s-0.6,0.3-1,0.4c0.9,0.1,1.6,0.4,2,0.8c0.5,0.4,0.7,1,0.7,1.7
			c0,0.5-0.1,0.9-0.3,1.2c-0.2,0.4-0.4,0.7-0.7,0.9c-0.3,0.3-0.7,0.5-1.2,0.6c-0.5,0.1-1,0.2-1.6,0.2h-3.6V14.2H109.8z M107.4,14.8
			v4.4h2.4c0.5,0,1-0.1,1.3-0.2c0.4-0.1,0.7-0.3,0.9-0.5c0.2-0.2,0.4-0.4,0.5-0.7c0.1-0.3,0.2-0.5,0.2-0.8c0-0.7-0.2-1.3-0.7-1.7
			c-0.5-0.4-1.2-0.6-2.2-0.6H107.4z M110.2,24.4c1,0,1.7-0.2,2.2-0.6c0.5-0.4,0.8-1,0.8-1.7c0-0.3-0.1-0.6-0.2-0.9
			c-0.1-0.3-0.3-0.5-0.6-0.7c-0.3-0.2-0.6-0.3-0.9-0.4c-0.4-0.1-0.8-0.2-1.3-0.2h-2.8v4.6H110.2z"/>
	</g>
	<g>
		<path d="M50.4,36.7h-0.3c0,0-0.1,0-0.1,0c0,0,0,0,0-0.1l-0.6-1.4H47l-0.6,1.4c0,0,0,0,0,0.1c0,0-0.1,0-0.1,0H46l2-4.8h0.4
			L50.4,36.7z M49.3,35l-1-2.4c0-0.1-0.1-0.2-0.1-0.3c0,0.1,0,0.1,0,0.2c0,0,0,0.1-0.1,0.1l-1,2.4H49.3z"/>
		<path d="M56.8,35.9C56.8,35.9,56.8,35.9,56.8,35.9l0.2,0.2c-0.1,0.1-0.2,0.2-0.3,0.3s-0.3,0.2-0.4,0.2c-0.1,0.1-0.3,0.1-0.5,0.1
			c-0.2,0-0.4,0-0.6,0c-0.3,0-0.7-0.1-0.9-0.2c-0.3-0.1-0.5-0.3-0.7-0.5c-0.2-0.2-0.4-0.5-0.5-0.8c-0.1-0.3-0.2-0.6-0.2-1
			c0-0.4,0.1-0.7,0.2-1c0.1-0.3,0.3-0.6,0.5-0.8c0.2-0.2,0.5-0.4,0.8-0.5c0.3-0.1,0.6-0.2,1-0.2c0.3,0,0.6,0.1,0.9,0.2
			c0.3,0.1,0.5,0.2,0.7,0.4l-0.1,0.2c0,0,0,0-0.1,0c0,0-0.1,0-0.1-0.1s-0.2-0.1-0.3-0.2c-0.1-0.1-0.3-0.1-0.4-0.2
			c-0.2,0-0.4-0.1-0.6-0.1c-0.3,0-0.6,0-0.8,0.1c-0.2,0.1-0.5,0.2-0.6,0.4c-0.2,0.2-0.3,0.4-0.4,0.7c-0.1,0.3-0.2,0.6-0.2,0.9
			c0,0.3,0.1,0.6,0.2,0.9c0.1,0.3,0.2,0.5,0.4,0.7c0.2,0.2,0.4,0.3,0.6,0.4c0.2,0.1,0.5,0.1,0.8,0.1c0.2,0,0.3,0,0.5,0
			s0.3-0.1,0.4-0.1c0.1,0,0.2-0.1,0.3-0.2C56.5,36.1,56.6,36.1,56.8,35.9C56.7,36,56.7,36,56.8,35.9C56.8,35.9,56.8,35.9,56.8,35.9z
			"/>
		<path d="M63.5,35.9C63.6,35.9,63.6,35.9,63.5,35.9l0.2,0.2c-0.1,0.1-0.2,0.2-0.3,0.3s-0.3,0.2-0.4,0.2c-0.1,0.1-0.3,0.1-0.5,0.1
			c-0.2,0-0.4,0-0.6,0c-0.3,0-0.7-0.1-0.9-0.2c-0.3-0.1-0.5-0.3-0.7-0.5c-0.2-0.2-0.4-0.5-0.5-0.8c-0.1-0.3-0.2-0.6-0.2-1
			c0-0.4,0.1-0.7,0.2-1c0.1-0.3,0.3-0.6,0.5-0.8s0.5-0.4,0.8-0.5c0.3-0.1,0.6-0.2,1-0.2c0.3,0,0.6,0.1,0.9,0.2
			c0.3,0.1,0.5,0.2,0.7,0.4l-0.1,0.2c0,0,0,0-0.1,0c0,0-0.1,0-0.1-0.1c-0.1,0-0.2-0.1-0.3-0.2c-0.1-0.1-0.3-0.1-0.4-0.2
			s-0.4-0.1-0.6-0.1c-0.3,0-0.6,0-0.8,0.1c-0.2,0.1-0.5,0.2-0.6,0.4s-0.3,0.4-0.4,0.7C60.1,33.7,60,34,60,34.3
			c0,0.3,0.1,0.6,0.2,0.9c0.1,0.3,0.2,0.5,0.4,0.7c0.2,0.2,0.4,0.3,0.6,0.4c0.2,0.1,0.5,0.1,0.8,0.1c0.2,0,0.3,0,0.5,0
			s0.3-0.1,0.4-0.1c0.1,0,0.2-0.1,0.3-0.2C63.3,36.1,63.4,36.1,63.5,35.9C63.5,36,63.5,36,63.5,35.9C63.5,35.9,63.5,35.9,63.5,35.9z
			"/>
		<path d="M71.1,34.3c0,0.4-0.1,0.7-0.2,1c-0.1,0.3-0.3,0.6-0.5,0.8c-0.2,0.2-0.5,0.4-0.7,0.5c-0.3,0.1-0.6,0.2-1,0.2
			s-0.7-0.1-1-0.2c-0.3-0.1-0.5-0.3-0.7-0.5c-0.2-0.2-0.4-0.5-0.5-0.8c-0.1-0.3-0.2-0.6-0.2-1c0-0.4,0.1-0.7,0.2-1
			c0.1-0.3,0.3-0.6,0.5-0.8c0.2-0.2,0.5-0.4,0.7-0.5c0.3-0.1,0.6-0.2,1-0.2s0.7,0.1,1,0.2c0.3,0.1,0.5,0.3,0.7,0.5
			c0.2,0.2,0.4,0.5,0.5,0.8C71,33.6,71.1,34,71.1,34.3z M70.7,34.3c0-0.3,0-0.6-0.1-0.9c-0.1-0.3-0.2-0.5-0.4-0.7
			c-0.2-0.2-0.4-0.3-0.6-0.4c-0.2-0.1-0.5-0.1-0.8-0.1c-0.3,0-0.6,0-0.8,0.1s-0.5,0.2-0.6,0.4s-0.3,0.4-0.4,0.7
			c-0.1,0.3-0.1,0.6-0.1,0.9c0,0.3,0,0.6,0.1,0.9c0.1,0.3,0.2,0.5,0.4,0.7c0.2,0.2,0.4,0.3,0.6,0.4c0.2,0.1,0.5,0.1,0.8,0.1
			c0.3,0,0.6,0,0.8-0.1c0.2-0.1,0.5-0.2,0.6-0.4c0.2-0.2,0.3-0.4,0.4-0.7C70.7,35,70.7,34.7,70.7,34.3z"/>
		<path d="M78.8,36.5v1.4c0,0,0,0.1,0,0.1c0,0-0.1,0-0.1,0h-0.2v-1.2h-4.1v-4.8h0.4v4.5h2.9v-4.5h0.4v4.5H78.8z"/>
		<path d="M85.6,31.9v4.8h-0.4v-3.9c0-0.1,0-0.1,0-0.2c0-0.1,0-0.2,0-0.2c0,0.1-0.1,0.1-0.1,0.2c0,0.1-0.1,0.1-0.1,0.2l-2.9,3.9
			c0,0,0,0.1-0.1,0.1s-0.1,0-0.1,0h-0.3v-4.8h0.4v3.9c0,0.1,0,0.1,0,0.2c0,0.1,0,0.2,0,0.2c0-0.1,0.1-0.1,0.1-0.2
			c0-0.1,0.1-0.1,0.1-0.2l2.9-3.9c0,0,0-0.1,0.1-0.1c0,0,0.1,0,0.1,0H85.6z"/>
		<path d="M92.9,36.7h-0.3c0,0-0.1,0-0.1,0c0,0,0,0,0-0.1l-0.6-1.4h-2.4l-0.6,1.4c0,0,0,0,0,0.1c0,0-0.1,0-0.1,0h-0.3l2-4.8h0.4
			L92.9,36.7z M91.8,35l-1-2.4c0-0.1-0.1-0.2-0.1-0.3c0,0.1,0,0.1,0,0.2s0,0.1-0.1,0.1l-1,2.4H91.8z"/>
		<path d="M100.3,36.5v1.4c0,0,0,0.1,0,0.1c0,0-0.1,0-0.1,0h-0.2v-1.2h-4.1v-4.8h0.4v4.5h2.9v-4.5h0.4v4.5H100.3z"/>
		<path d="M107.1,31.9v4.8h-0.4v-3.9c0-0.1,0-0.1,0-0.2c0-0.1,0-0.2,0-0.2c0,0.1-0.1,0.1-0.1,0.2c0,0.1-0.1,0.1-0.1,0.2l-2.9,3.9
			c0,0,0,0.1-0.1,0.1s-0.1,0-0.1,0h-0.3v-4.8h0.4v3.9c0,0.1,0,0.1,0,0.2c0,0.1,0,0.2,0,0.2c0-0.1,0.1-0.1,0.1-0.2
			c0-0.1,0.1-0.1,0.1-0.2l2.9-3.9c0,0,0-0.1,0.1-0.1c0,0,0.1,0,0.1,0H107.1z"/>
		<path d="M113.7,36.7h-0.4v-2.2h-0.9c-0.1,0-0.1,0-0.2,0c-0.1,0-0.1,0-0.2,0.1c-0.1,0-0.1,0.1-0.2,0.1c-0.1,0-0.1,0.1-0.2,0.2
			l-1.3,1.7c0,0-0.1,0.1-0.1,0.1c0,0-0.1,0-0.1,0H110l1.5-1.8c0.1-0.1,0.2-0.2,0.2-0.2c0.1-0.1,0.2-0.1,0.2-0.1
			c-0.2,0-0.4-0.1-0.6-0.1c-0.2-0.1-0.3-0.2-0.4-0.3c-0.1-0.1-0.2-0.2-0.2-0.4s-0.1-0.3-0.1-0.5c0-0.2,0-0.4,0.1-0.5
			c0.1-0.2,0.2-0.3,0.3-0.4c0.1-0.1,0.3-0.2,0.5-0.3c0.2-0.1,0.4-0.1,0.7-0.1h1.5V36.7z M113.4,34.3v-2.1h-1.2c-0.4,0-0.8,0.1-1,0.3
			c-0.2,0.2-0.3,0.4-0.3,0.8c0,0.3,0.1,0.6,0.3,0.8c0.2,0.2,0.5,0.3,1,0.3H113.4z"/>
	</g>
</g>
</svg>
