<?xml version="1.0" encoding="utf-8"?>
<!-- Generator: Adobe Illustrator 21.0.2, SVG Export Plug-In . SVG Version: 6.00 Build 0)  -->
<svg version="1.1" id="Слой_1" xmlns="http://www.w3.org/2000/svg" xmlns:xlink="http://www.w3.org/1999/xlink" x="0px" y="0px"
	 viewBox="0 0 48 48" style="enable-background:new 0 0 48 48;" xml:space="preserve">
<style type="text/css">
	.st0{fill:#2C3036;}
	.st1{fill:#3A85C0;}
	.st2{fill:#FFFFFF;}
</style>
<path class="st0" d="M23.7,0C13.8,0,7,0,3.5,3.5C0,7,0,14.2,0,23.7c10.6-0.3,15.5-0.6,19.4-4.4C23.1,15.5,23.4,10.6,23.7,0z
	 M3.5,44.5C0,41,0,33.8,0,24.3c10.6,0.3,15.5,0.6,19.4,4.4c3.8,3.9,4.1,8.7,4.4,19.4C13.8,48,7,48,3.5,44.5z M24.3,48
	c0.3-10.6,0.6-15.5,4.4-19.4c3.9-3.8,8.7-4.1,19.4-4.4c0,9.6,0,16.7-3.5,20.3C41,48,34.2,48,24.3,48z M24.3,0
	c0.3,10.6,0.6,15.5,4.4,19.4c3.9,3.8,8.7,4.1,19.4,4.4c0-9.6,0-16.7-3.5-20.3C41,0,34.2,0,24.3,0z"/>
<path class="st1" d="M28.6,28.6c-3.8,3.9-4.1,8.7-4.4,19.4c9.9,0,16.7,0,20.3-3.5C48,41,48,33.8,48,24.3
	C37.4,24.6,32.5,24.9,28.6,28.6z M0,24.3C0,33.8,0,41,3.5,44.5C7,48,13.8,48,23.7,48c-0.3-10.6-0.6-15.5-4.4-19.4
	C15.5,24.9,10.6,24.6,0,24.3z M23.7,0C13.8,0,7,0,3.5,3.5C0,7,0,14.2,0,23.7c10.6-0.3,15.5-0.6,19.4-4.4C23.1,15.5,23.4,10.6,23.7,0
	z M28.6,19.4c-3.8-3.9-4.1-8.7-4.4-19.4C34.2,0,41,0,44.5,3.5C48,7,48,14.2,48,23.7C37.4,23.4,32.5,23.1,28.6,19.4z"/>
<path class="st2" d="M48,24.3V24v-0.3c-10.6-0.3-15.5-0.6-19.4-4.4c-3.8-3.9-4.1-8.7-4.4-19.4H24h-0.3c-0.3,10.6-0.6,15.5-4.4,19.4
	c-3.9,3.8-8.7,4.1-19.4,4.4V24v0.3c10.6,0.3,15.5,0.6,19.4,4.4c3.8,3.9,4.1,8.7,4.4,19.4H24h0.3c0.3-10.6,0.6-15.5,4.4-19.4
	C32.5,24.9,37.4,24.6,48,24.3z"/>
</svg>
